<?xml version="1.0" encoding="utf-8"?>
<!-- Generator: Adobe Illustrator 28.1.0, SVG Export Plug-In . SVG Version: 6.00 Build 0)  -->
<svg version="1.1" id="Layer_1" xmlns="http://www.w3.org/2000/svg" xmlns:xlink="http://www.w3.org/1999/xlink" x="0px" y="0px"
	 viewBox="0 0 422 150" style="enable-background:new 0 0 422 150;" xml:space="preserve">
<style type="text/css">
	.st0{stroke:#000000;stroke-width:0.5015;stroke-miterlimit:10;}
	.st1{stroke:#000000;stroke-width:0.3768;stroke-miterlimit:10;}
	.st2{stroke:#000000;stroke-width:7.556130e-02;stroke-miterlimit:10;}
	.st3{stroke:#000000;stroke-width:0.1984;stroke-miterlimit:10;}
	.st4{stroke:#000000;stroke-width:0.4744;stroke-miterlimit:10;}
	.st5{fill:none;}
	.st6{stroke:#000000;stroke-width:0.2178;stroke-miterlimit:10;}
	.st7{fill:none;stroke:#000000;stroke-width:0.1805;stroke-miterlimit:10;}
	.st8{fill:none;stroke:#000000;stroke-width:0.5015;stroke-miterlimit:10;}
	.st9{stroke:#000000;stroke-width:0.1805;stroke-miterlimit:10;}
</style>
<g>
	<g>
		<g>
			<path d="M246.9,136.9c-0.9,0.4-2,0.1-2.7-0.6c-0.3-0.3-0.5-0.7-0.7-1c0-0.1,0-0.1,0.1-0.2c1.2-0.5,2.6-0.1,3.5,0.8
				c0.1,0.1,0.2,0.3,0.4,0.5c0,0.1,0,0.1,0,0.1C247.2,136.7,247,136.8,246.9,136.9z"/>
			<path d="M247.6,136.9c0.1,0.2,0.2,0.4,0.2,0.7c0.2,1.2-0.2,2.1-1.2,2.7c-0.1,0-0.2,0.1-0.2,0.1c-0.1,0-0.1,0-0.1,0
				c-0.3-0.5-0.5-1-0.5-1.6c0-0.5,0.1-0.9,0.3-1.2c0.1-0.1,0.1-0.2,0.3-0.2c0.4-0.1,0.8-0.2,1.2-0.5
				C247.5,136.9,247.5,136.9,247.6,136.9C247.6,136.9,247.6,136.9,247.6,136.9z"/>
			<path d="M244.5,140.3c-0.1-0.3-0.2-0.6-0.3-0.9c0-0.2,0-0.5,0.1-0.7c0-0.1,0.1-0.1,0.2-0.1c0.3,0.1,0.5,0.1,0.8,0.1
				c0.1,0,0.1,0,0.1,0.1c0,0.3,0.1,0.6,0.3,0.9c0,0.1,0,0.1,0,0.2c-0.3,0.2-0.6,0.4-0.9,0.5c-0.1,0-0.1,0-0.2-0.1
				C244.6,140.4,244.5,140.4,244.5,140.3z"/>
			<path d="M242.5,136.7c-0.2-0.3-0.2-0.3,0-0.5c0.3-0.1,0.5-0.2,0.9-0.3c0.1,0,0.1,0,0.2,0.1c0.2,0.2,0.4,0.5,0.6,0.7
				c0.1,0.1,0.1,0.1,0,0.1c-0.1,0.2-0.3,0.4-0.4,0.7c0,0.1-0.1,0.1-0.1,0.1c-0.3,0-0.6-0.2-0.8-0.4
				C242.7,137,242.5,136.8,242.5,136.7z"/>
			<path d="M245.8,137.4c-0.1,0.1-0.1,0.2-0.1,0.3c-0.1,0.3-0.1,0.5-0.2,0.8c0,0.1,0,0.1-0.1,0.1c-0.4,0-0.8-0.1-1.2-0.3
				c-0.1,0-0.1-0.1-0.1-0.2c0.1-0.4,0.2-0.7,0.4-1c0,0,0.1-0.1,0.1,0C245,137.2,245.3,137.3,245.8,137.4
				C245.7,137.4,245.7,137.4,245.8,137.4z"/>
			<path d="M243.7,138c-0.1,0.3,0.1,0.5,0.4,0.6c0,0,0,0.1-0.1,0.1c0,0.1-0.1,0.2-0.1,0.4c0,0.1,0,0.1-0.1,0.1c-0.3,0-0.7-0.1-1-0.3
				c-0.1,0-0.1-0.1-0.1-0.2c0.1-0.3,0.2-0.6,0.4-0.9c0,0,0.1,0,0.1,0C243.3,137.8,243.5,137.9,243.7,138z"/>
			<path d="M243.6,140.2c-0.2,0-0.3,0.1-0.5,0.1c0,0-0.1,0-0.1-0.1c-0.1-0.3-0.2-0.6-0.1-0.9c0-0.1,0-0.1,0.2-0.1
				c0.3,0.1,0.5,0.1,0.8,0.2c0.1,0,0.1,0,0.1,0.1c0,0.1,0.1,0.2,0.1,0.3c0,0,0,0.1,0,0.1C243.8,140.1,243.7,140.2,243.6,140.2z"/>
			<path d="M242,137.3c0.1,0,0.3-0.1,0.4-0.1c0,0,0.1,0,0.1,0c0.1,0.1,0.2,0.2,0.2,0.2c0.1,0.1,0.1,0.1,0,0.1
				c-0.1,0.2-0.2,0.5-0.3,0.7c0,0,0,0.1-0.1,0.1c-0.3-0.1-0.6-0.4-0.8-0.7c0,0,0-0.1,0-0.1C241.7,137.5,241.8,137.4,242,137.3z"/>
			<path d="M242.4,138.9C242.4,139,242.4,139,242.4,138.9c0.2,0.1,0.2,0.2,0.1,0.3c0,0.1,0,0.1,0,0.2c0,0.1,0,0.1-0.1,0.1
				c-0.3-0.1-0.5-0.1-0.8-0.2c-0.1,0-0.1-0.1-0.1-0.2c0.1-0.3,0.2-0.5,0.3-0.7c0-0.1,0.1-0.1,0.1,0c0.1,0.1,0.2,0.1,0.3,0.2
				c0.1,0,0.1,0.1,0.1,0.1C242.4,138.9,242.4,138.9,242.4,138.9z"/>
			<path d="M248.2,137c0.9-1.7,0.8-2.9,0.8-2.9s-1.5-1.6-1-0.2s-0.1,2.2-0.1,2.2L248.2,137z"/>
		</g>
		<g>
			<path d="M264.6,136.8c-0.2,0-0.4,0-0.5-0.1c-0.8-0.3-1.5-0.6-2.3-0.9c-0.8-0.3-1.7-0.7-2.5-1c-0.6-0.2-1.1-0.5-1.5-0.9
				c-0.4-0.4-0.9-0.7-1.5-0.9c-1.3-0.4-2.7-0.8-4-1.2c0,0,0,0,0,0c-1.4-0.4-2.8-0.8-4.3-1.3c-0.6-0.2-0.8,0.1-1,0.5
				c-0.3,0.9-0.6,1.8-0.9,2.7c0,0.1,0,0.3,0,0.4c0,0.3,0.2,0.5,0.4,0.6c0,0,0.1,0,0.1,0c2.8,0.8,5.5,1.6,8.3,2.4
				c0.6,0.2,1.2,0.2,1.8,0.1c0.6-0.1,1.1-0.1,1.7,0c1,0.2,2,0.4,3,0.6c0.7,0.1,1.4,0.3,2.1,0.4c0.1,0,0.2,0.1,0.2,0.1
				c0.2,0.1,0.4,0.2,0.6,0.2c0.1,0,0.2-0.1,0.2-0.1c0.3-0.5,0.4-0.9,0.5-1.5C264.9,137,264.7,136.8,264.6,136.8z M256.3,135.4
				c-0.1,0.1-0.2,0.1-0.3,0.1c0,0,0,0,0,0c0,0,0,0.1,0,0.1c0,0.1,0,0.1-0.1,0.1c-0.1,0-0.2,0-0.3-0.1c0,0,0,0,0,0c0,0,0,0,0,0.1
				c0,0,0,0,0,0.1c0,0.1-0.1,0.1-0.1,0.1c-0.1,0-0.2-0.1-0.3-0.1c0,0,0,0,0,0c0,0,0,0.1,0,0.1c0,0.1-0.1,0.1-0.1,0.1
				c0,0-0.1,0-0.1-0.1c-0.5-0.2-0.7-0.7-0.5-1.2c0.1-0.3,0.3-0.5,0.6-0.6c0.2-0.1,0.5-0.1,0.7,0c0.1,0,0.1,0.1,0.1,0.1
				c0,0,0,0,0,0.1c0,0,0,0,0,0c0.1,0,0.2,0,0.4,0.1c0.1,0,0.1,0.1,0.1,0.1c0,0,0,0.1,0,0.1c0,0,0,0,0,0c0,0,0,0,0,0
				c0.1,0,0.2,0.1,0.3,0.1c0,0,0.1,0.1,0,0.1c0,0,0,0.1-0.1,0.1c0,0,0,0,0,0.1c0.1,0.1,0.1,0.2,0.2,0.3
				C256.4,135.3,256.4,135.4,256.3,135.4z"/>
		</g>
		<g>
			<g>
				<path d="M102.5,121.2c-0.1,0.1-0.2,0-0.2-0.1c0-0.2,0-0.4,0-0.6c0.1-0.3,0.3-0.3,0.5-0.5c0.1-0.1,0.2,0,0.2,0.1
					C103,120.8,102.8,120.9,102.5,121.2z"/>
				<path d="M103.6,121.7c0.1,0.1,0.2,0,0.2-0.1c0-0.2,0-0.4,0-0.6c-0.1-0.3-0.3-0.3-0.5-0.5c-0.1-0.1-0.2,0-0.2,0.1
					C103,121.3,103.3,121.4,103.6,121.7z"/>
				<path d="M102.5,122.3c-0.1,0.1-0.2,0-0.2-0.1c0-0.2,0-0.4,0-0.6c0.1-0.3,0.3-0.3,0.5-0.5c0.1-0.1,0.2,0,0.2,0.1
					C103.1,121.9,102.8,122,102.5,122.3z"/>
				<path d="M103.6,122.7c0.1,0.1,0.2,0,0.2-0.1c0-0.2,0-0.4,0-0.6c-0.1-0.3-0.3-0.3-0.5-0.5c-0.1-0.1-0.2,0-0.2,0.1
					C103,122.4,103.3,122.5,103.6,122.7z"/>
				<path d="M102.5,123.3c-0.1,0.1-0.2,0-0.2-0.1c0-0.2,0-0.4,0-0.6c0.1-0.3,0.3-0.3,0.5-0.5c0.1-0.1,0.2,0,0.2,0.1
					C103.1,122.9,102.8,123,102.5,123.3z"/>
				<path d="M103.6,123.8c0.1,0.1,0.2,0,0.2-0.1c0-0.2,0-0.4,0-0.6c-0.1-0.3-0.3-0.3-0.5-0.5c-0.1-0.1-0.2,0-0.2,0.1
					C103,123.4,103.3,123.5,103.6,123.8z"/>
				<path d="M103.5,120.5c-0.2-0.1-0.4-0.2-0.4-0.5c0-0.1-0.1-0.1-0.2-0.1c-0.1,0-0.2,0.1-0.3,0.1c-0.1,0.1-0.2,0-0.2-0.1
					c0-0.1,0-0.2,0.1-0.3c0.1-0.3,0.3-0.3,0.5-0.4c0,0,0-0.1,0-0.1l-0.1-2.2c0-0.1,0.1-0.2,0.2-0.1v0c0,0,0,0.1,0,0.1l0,2.6
					c0,0.1,0,0.1,0.1,0.1c0.2,0,0.3,0.1,0.4,0.4c0.1,0.1,0,0.3,0,0.5C103.7,120.5,103.6,120.5,103.5,120.5z"/>
				<path d="M104,125.5c0.1,0.5,0.1,1,0.1,1.5c0,0,0,0,0,0C104,126.5,104,126,104,125.5c-0.1-0.1-0.1-0.3-0.2-0.4c0,0,0,0,0-0.1
					c-0.4-0.4-0.7-0.4-0.7-1.2c0-0.1,0.1-0.1,0.2-0.1c0.2,0.1,0.4,0.2,0.5,0.5c0.1,0.2,0,0.4,0,0.6c0,0,0,0,0,0
					C103.9,125,104,125.2,104,125.5z"/>
				<path d="M103.3,124.9c0,0.2-0.2,0.4-0.3,0.6c0,0,0,0,0,0.1c0,0.2,0,0.4,0,0.6c0,0.2,0,0.4,0,0.6c0,0.2-0.1,0.4-0.1,0.7
					c0,0,0,0,0,0c0-0.2,0-0.4,0-0.5c0-0.2,0-0.5,0-0.7c0-0.2,0-0.3,0-0.5c0,0,0,0,0,0c-0.1-0.6-0.5-0.8,0-1.5c0.1-0.1,0.2-0.1,0.2,0
					C103.2,124.4,103.3,124.6,103.3,124.9z"/>
				<path d="M102.4,124.5C102.3,124.5,102.3,124.5,102.4,124.5c-0.1,0.3-0.2,0.6-0.2,0.8c-0.1,0.5,0.1,1,0,1.5c0,0-0.1,0-0.1,0
					c0-0.5-0.1-1-0.1-1.5c0-0.2,0.1-0.5,0.1-0.7c0-0.1,0-0.2,0.1-0.3c0,0,0,0,0,0c0-0.2,0-0.5,0-0.6c0.1-0.3,0.3-0.3,0.5-0.5
					c0.1-0.1,0.2,0,0.2,0.1C103.1,124.1,102.7,124.1,102.4,124.5z"/>
			</g>
			<g>
				<path d="M112.8,121.2c-0.1,0.1-0.2,0-0.2-0.1c0-0.2,0-0.4,0-0.6c0.1-0.3,0.3-0.3,0.5-0.5c0.1-0.1,0.2,0,0.2,0.1
					C113.4,120.8,113.1,120.9,112.8,121.2z"/>
				<path d="M114,121.7c0.1,0.1,0.2,0,0.2-0.1c0-0.2,0-0.4,0-0.6c-0.1-0.3-0.3-0.3-0.5-0.5c-0.1-0.1-0.2,0-0.2,0.1
					C113.4,121.3,113.7,121.4,114,121.7z"/>
				<path d="M112.9,122.3c-0.1,0.1-0.2,0-0.2-0.1c0-0.2,0-0.4,0-0.6c0.1-0.3,0.3-0.3,0.5-0.5c0.1-0.1,0.2,0,0.2,0.1
					C113.4,121.9,113.2,122,112.9,122.3z"/>
				<path d="M114,122.7c0.1,0.1,0.2,0,0.2-0.1c0-0.2,0-0.4,0-0.6c-0.1-0.3-0.3-0.3-0.5-0.5c-0.1-0.1-0.2,0-0.2,0.1
					C113.4,122.4,113.7,122.5,114,122.7z"/>
				<path d="M112.9,123.3c-0.1,0.1-0.2,0-0.2-0.1c0-0.2,0-0.4,0-0.6c0.1-0.3,0.3-0.3,0.5-0.5c0.1-0.1,0.2,0,0.2,0.1
					C113.4,122.9,113.2,123,112.9,123.3z"/>
				<path d="M114,123.8c0.1,0.1,0.2,0,0.2-0.1c0-0.2,0-0.4,0-0.6c-0.1-0.3-0.3-0.3-0.5-0.5c-0.1-0.1-0.2,0-0.2,0.1
					C113.4,123.4,113.7,123.5,114,123.8z"/>
				<path d="M113.9,120.5c-0.2-0.1-0.4-0.2-0.4-0.5c0-0.1-0.1-0.1-0.2-0.1c-0.1,0-0.2,0.1-0.3,0.1c-0.1,0.1-0.2,0-0.2-0.1
					c0-0.1,0-0.2,0.1-0.3c0.1-0.3,0.3-0.3,0.5-0.4c0,0,0-0.1,0-0.1l-0.1-2.2c0-0.1,0.1-0.2,0.2-0.1v0c0,0,0,0.1,0,0.1l0,2.6
					c0,0.1,0,0.1,0.1,0.1c0.2,0,0.3,0.1,0.4,0.4c0.1,0.1,0,0.3,0,0.5C114,120.5,113.9,120.5,113.9,120.5z"/>
				<path d="M114.4,125.5c0.1,0.5,0.1,1,0.1,1.5c0,0,0,0,0,0C114.4,126.5,114.4,126,114.4,125.5c-0.1-0.1-0.1-0.3-0.2-0.4
					c0,0,0,0,0-0.1c-0.4-0.4-0.7-0.4-0.7-1.2c0-0.1,0.1-0.1,0.2-0.1c0.2,0.1,0.4,0.2,0.5,0.5c0.1,0.2,0,0.4,0,0.6c0,0,0,0,0,0
					C114.3,125,114.3,125.2,114.4,125.5z"/>
				<path d="M113.7,124.9c0,0.2-0.2,0.4-0.3,0.6c0,0,0,0,0,0.1c0,0.2,0,0.4,0,0.6c0,0.2,0,0.4,0,0.6c0,0.2-0.1,0.4-0.1,0.7
					c0,0,0,0,0,0c0-0.2,0-0.4,0-0.5c0-0.2,0-0.5,0-0.7c0-0.2,0-0.3,0-0.5c0,0,0,0,0,0c-0.1-0.6-0.5-0.8,0-1.5c0.1-0.1,0.2-0.1,0.2,0
					C113.5,124.4,113.7,124.6,113.7,124.9z"/>
				<path d="M112.7,124.5C112.7,124.5,112.7,124.5,112.7,124.5c-0.1,0.3-0.2,0.6-0.2,0.8c-0.1,0.5,0.1,1,0,1.5c0,0-0.1,0-0.1,0
					c0-0.5-0.1-1-0.1-1.5c0-0.2,0.1-0.5,0.1-0.7c0-0.1,0-0.2,0.1-0.3c0,0,0,0,0,0c0-0.2,0-0.5,0-0.6c0.1-0.3,0.3-0.3,0.5-0.5
					c0.1-0.1,0.2,0,0.2,0.1C113.5,124.1,113.1,124.1,112.7,124.5z"/>
			</g>
			<g>
				<path class="st0" d="M113.8,95c0-1.4-0.8-1.8-1.8-1.9c-2.4-0.1-4.7,0-7.1,0c-0.3,0-0.6,0.1-0.9,0.2c-0.7,0.2-1,0.7-1,1.4
					c0,0.1,0,0.2,0,0.2c0,6.8,0,13.7,0,20.5c0,1.5,0.3,2.9,1.1,4.2c0.7,1.2,1,2.5,1.1,3.8c0.2,2.4,0.4,4.7,0.7,7.1
					c0.2,1.7,0.3,9.8,0.5,11.5c0,0.2-0.1,0.4-0.1,0.6c0,0.5-0.3,1,0,1.5c0.1,0.1,0.2,0.3,0.4,0.3c1.2,0.2,2.5,0.2,3.8,0
					c0.3-0.1,0.6-0.8,0.5-1c-0.1-0.4-0.3-0.9-0.3-1.3c0.1-1.9,0.3-10.2,0.5-12.1c0.2-2.2,0.4-4.3,0.6-6.5c0.1-1.5,0.4-2.9,1.2-4.1
					c0.7-1.2,1-2.6,1-4c0-3.3,0-6.6,0-9.9c0,0,0,0,0,0C113.8,102.1,113.8,98.5,113.8,95z"/>
				<path class="st0" d="M113.8,105.6c0-3.5,0-7,0-10.6c0-1.4-0.8-1.8-1.8-1.9c-2.4-0.1-4.7,0-7.1,0c-0.3,0-0.6,0.1-0.9,0.2
					c-0.7,0.2-1,0.7-1,1.4c0,0.1,0,0.2,0,0.2c0,6.8,0,13.7,0,20.5c0,1.5,0.3,2.9,1.1,4.2c0.7,1.2,1,2.5,1.1,3.8
					c0.2,2.4,0.4,4.7,0.7,7.1c0.2,1.7,0.3,9.8,0.5,11.5c0,0.2-0.1,0.4-0.1,0.6c0,0.5-0.3,1,0,1.5c0.1,0.1,0.2,0.3,0.4,0.3
					c1.2,0.2,2.5,0.2,3.8,0c0.3-0.1,0.6-0.8,0.5-1c-0.1-0.4-0.3-0.9-0.3-1.3c0.1-1.9,0.3-10.2,0.5-12.1c0.2-2.2,0.4-4.3,0.6-6.5
					c0.1-1.5,0.4-2.9,1.2-4.1c0.7-1.2,1-2.6,1-4C113.8,112.2,113.8,108.9,113.8,105.6C113.8,105.6,113.8,105.6,113.8,105.6z"/>
			</g>
		</g>
		<g>
			<path d="M308.5,63.7c7.4,0.4,14.7,1.5,22,2.9c0-0.8-0.5-1.4-1-1.9c-0.2-0.2-0.5-0.4-0.8-0.6c-2.4-1.6-4.8-3.1-7.1-4.7
				c-0.7-0.5-1.3-0.5-2.1-0.2c-4,1.5-7.9,3.3-12,4.5C307.7,63.6,308.1,63.6,308.5,63.7z"/>
			<path d="M340.9,77.4c-6.2-1.2-10.6-6.4-10.5-7c0-1.1-0.2-2.2,0-3.2c-1.8-0.4-3.7-0.7-5.5-1c-7.1-1.2-14.3-2-21.5-2
				c0,0.1-0.1,0.2-0.1,0.3c-0.1,0.8-0.2,1.7-0.2,2.5c0,1.1,0,2.2,0,3.3c0,0.7-0.3,1-1,0.9c-1.8,0-3.7,0-5.5,0c-0.8,0-1-0.3-0.5-1
				c0.5-0.7,0.5-1.3,0.2-2.1c-0.1-0.4-0.3-0.7-0.8-0.7c-0.5,0-0.8,0.2-1,0.6c-0.4,0.8-0.2,1.6,0.4,2.3c0.3,0.3,0.4,0.5,0,0.8
				c-1,0.5-2.4-0.3-2.4-1.4c0-3.7,0-7.4,0-11.1c0-1.7,0-1.8-1.7-1.8c-1.8,0-3.4-0.5-4.3-2.2c-0.3-0.5-0.7-0.6-1.2-0.6c-1,0-2,0-3,0
				c-0.9,0-1.6,0.7-1.6,1.6c0,5.3,0,10.7,0,16c0,1.1-0.2,1.3-1.3,1.3c-0.6,0-1.3,0-1.9,0c-1.6,0.1-1.7,0-1.4-1.5
				c0.1-0.6-0.5-1.3-0.9-1.1c-0.5,0.3-2.4,1.1-3,1c-0.3-0.1-10-11.4-19.1,1.9c-0.1,0.4-0.1,0.9-0.7,0.8c-0.2,0-0.5,0-0.6-0.3
				c-0.2-0.5,0.2-0.7,0.6-1c0.1,0,0.1-0.1,0.1-0.1c0.4-0.5,0.3-1.4-0.3-1.9c-0.4-0.4-0.9-0.7-1.4-0.2c-1.2,1-1.2,2.4,0.1,3.3
				c-6.3-0.5,1.4-10.6-11-10.9c0-2.3,0.3-16.8,0.1-16.9c-0.1-0.1-0.1-0.3-0.1-0.4c0-0.6,0-1.3,0-1.9c0-1.8,0-1.8-1.8-2
				c-0.6,0-0.9-0.2-0.9-0.8c0-0.6,0-1.1-0.8-1.1c-0.8,0-0.9,0.5-0.9,1.1c0,0.4,0,0.8-0.6,0.8c-1.1,0.1-1.4-0.2-1.7,0.2
				c-0.3,0.4-0.3,4-0.3,4l-0.4,0.5l-0.2,14.9c0,0-0.8,0.1-1.4-0.2c-0.2-0.1-0.2-0.1-0.3-0.1c0,0,0-0.1,0-0.3
				c-0.2-0.4-0.5-0.8-2.7-0.6c-2.2,0.2-1.2,5.7-1.4,6.1c-0.2,0.3-4.5,2.1-4.3,0.3c0.3-3.1,0.5-11.9,0.8-15c0.1-0.8-0.5-1.6-1.3-1.8
				c-0.6-0.1-1.1-0.4-1.1-1.2c0.2-2.3,0.2-4.6,0.4-6.9c0.1-1.2-0.1-1.9-1.2-2.5c-1.5-0.8-1.5-0.9-2.1,0.6c-0.1,0.3-0.2,0.5-0.3,0.8
				c-1.4,2.9-3.7,4.7-7.1,4.7c-2,0-1.1,0-1.1,4.8c-0.1,3.4,0.3,6.7,0.9,10c0.2,1.2,0.2,2.4,0.3,3.6c0,0.2-0.5,0.2-0.5,0
				c-0.1-0.9-0.6-1.5-1-2.2c-0.2-0.4-4.5-1.3-5-1c-1,0.8-2,0.5-2.4-0.6c-0.4-1.1-1.7-1.3-1.7-1.7c0-2.9-0.1-5.7,0-8.6
				c0.1-2.8-0.2-5.7,0-8.5c0.1-1.3,0-2.5,0-3.8c0-0.8,0-1.5-0.9-1.8c0.6,0,0.9-0.2,0.9-0.8c0-0.7-0.3-1.2-1.3-1.2
				c-1.4-0.1-2.7-0.5-4-1.2c-0.7-0.3-1.4-0.3-2.1-0.1c-1.3,0.4-2.5,0.9-3.8,1.1c-0.9,0.1-1.4,0.4-1.5,1.2c0,0.7,0.3,1,1,1
				c-0.9,0.2-1,0.7-1,1.4c-0.1,2.3,0.1,4.5,0,6.8c-0.1,2.2,0,4.5,0,6.8c0,3.3,0,6.7,0,10c0,0.4-14.3,0.8-16.1,1.1
				c-6.6,1.1-33.1,3.7-33.4,4l-1.2-5.5c-0.7-1.6-0.7-2.7-0.9-3.4c0-0.2-0.1-0.3-0.1-0.5c-0.3-3-0.7-6-1-9c-0.1-0.7-0.1-1.5-0.5-2.2
				c-0.2,1-0.4,2.1-0.5,3.1c-0.4,2.9-0.7,5.8-1.1,8.7c0,0.3,0,0.8-0.4,1c-0.5,0.1-0.9-0.1-1.2-0.5c-0.7-0.8-1.5-1.6-2.2-2.5
				c-0.4-0.4-0.8-0.7-1.3-0.7c-0.5,0-0.9-0.4-0.9-0.9c-0.2-2.8-0.5-5.7-0.8-8.5c0-0.5,0-1-0.5-1.4c-0.1,0.1-0.1,0.2-0.2,0.3
				c-0.3,3.1-0.7,6.2-1,9.4c-0.1,0.6-0.6,1.1-1.2,1.1c-2.2,0-4.4,0-6.5,0c-0.8,0-1.1-0.3-1.1-1.1c0-0.7,0-1.4,0-2
				c-0.1-6.4,0.2-12.8-0.5-19.2c-0.1-0.5,0.1-1-0.3-1.6c-0.7,1.3-0.3,2.6-0.9,3.8c-0.1-0.5-0.2-0.9-0.2-1.2
				c-0.4-3.7-3.4-27.6-4.1-28.1c-0.7-0.4-3.3,25-3.6,27.6c0,0.3,0.1,0.6-0.3,0.9c-0.4-0.8-0.1-1.9-0.7-2.7c-0.4,0.4-0.4,0.9-0.4,1.3
				c-0.1,2.5-0.5,4.9-0.5,7.4c0,3.7,0.1,11.1,0.1,11.1l-0.8,2.6c0,0,0.3,7.6-0.4,8.1c-0.1,0.1-3,0-3.2,0c-0.6,0-1-0.3-1.8-0.8
				c-0.4-0.2-0.6-0.3-0.9,0c-0.8,0.8-0.9,0.8-1.6-0.2c-0.3-0.5-0.7-0.6-1.1-0.1c-0.3,0.3-0.5,0.7-1,0.5c-0.5-0.2-0.5-0.7-0.5-1.1
				c0-3.4,0-6.8,0-10.2c0-0.5,0.2-1.2,0.4-1.6c0.3-0.7,0.4-1.4,0.4-2.1c0-0.9,0-1.8,0-2.7c0-1.6-0.1-1.5-1.6-1.8
				c-1.5-0.3-3.1,0.1-4.5-0.6c-0.5-0.2-1.3,0.2-1.5-0.6c-0.1-0.6-0.2-1.2-0.2-1.8c0-2.7,0-5.4,0-8.1c0-0.5,0-1.1-0.6-1.1
				c-0.7,0-0.6,0.6-0.6,1.1c0,2.6,0,5.2,0,7.9c0,0.6-0.2,1.2-0.3,1.9c-0.1,0.3-0.2,0.5-0.5,0.5c-1.3,0.1-2.4,0.8-3.7,0.7
				c-0.8-0.1-1.6,0.2-2.4,0.3c-0.5,0.1-0.8,0.5-0.8,1c0.1,2-0.5,4.1,0.5,6c0.1,0.2,0.1,0.6,0.1,0.8c0,2.9,0,5.8,0,8.7
				c0,0.4-1.1,2.1-1.5,2.2c-0.2,0.1-0.5,0-0.6-0.1c-0.9-0.6-1.2-0.2-1.5,0.6c-0.3,0.9-1.6,0.8-1.9,1.7c0,0-0.2,0-0.3,0
				c-0.3-0.1-0.6,0-0.9,0.2c-0.4,0.4-0.7,0.2-1.1-0.1c-0.7-0.7-1.2-0.6-1.7,0.2c-0.4,0.6-0.7,0.8-1.2,0.2c-0.5-0.5-0.9-0.3-1.1,0.3
				c-0.1,0.2-0.2,0.3-0.2,0.5V64c0.5,0.5,0,3.1-0.4,3.8c-0.2,0.4-1.2,5.1-5.5,7.5c-4.4,2.3,3.6,4.4-23.8,3.9
				c-3.1-0.1,9.6-0.2,22.3,3.8S54.1,91,85.5,94.5c8.9,1,86.1,2.3,99.8,3.8c13.7,1.5,61.4-5.7,66.9-6.7c4.5-0.9,10-3.7,25.5,0.9
				c14.1,4.1,44.6,0.5,50.1-0.7s4.6-7,14.2-8.9c9.7-1.9,45.5-2.8,45.5-2.8S347.1,78.6,340.9,77.4z M76.7,42.2
				c-0.1-0.2,0.1-0.4,0.3-0.4c0.6-0.1,1.2-0.3,1.9-0.3c1.9-0.1,3.8-0.4,5.6-0.2c2.4-0.1,4.6,0.1,6.8,0.4c0.2,0,0.3,0,0.5,0.1
				c0.2,0.1,0.6,0.1,0.5,0.4c-0.1,0.3-0.4,0.2-0.6,0.2c-0.8-0.1-1.5-0.1-2.3-0.2c-4-0.4-7.9-0.2-11.9,0.2c-0.2,0-0.3,0-0.5,0.1
				C76.9,42.4,76.7,42.4,76.7,42.2z M78.7,50c0,2.1,0,4.2,0,6.2c0,1.3,0,2.6,0,4c0,0.4,0.2,1.1-0.2,1.1c-0.6,0-0.3-0.7-0.3-1.1
				c0-1.7,0-3.4,0-5.1c0-1.7,0-3.4,0-5.1c0-0.3-0.2-0.9,0.3-0.9C78.8,49,78.7,49.6,78.7,50z M81.2,60.7c-0.4,0-0.2-0.5-0.2-0.8
				c0-3.3,0-6.6-0.1-9.9c0-0.2,0-0.4,0-0.6c0-0.2-0.1-0.5,0.2-0.5c0.4,0,0.3,0.4,0.3,0.6c0,1.8,0,3.6,0,5.4h0c0,1.7,0,3.3,0,5
				C81.5,60.1,81.6,60.7,81.2,60.7z M84.5,54.6L84.5,54.6c0,1.8,0,3.5,0,5.3c0,0.2,0.1,0.7-0.3,0.6c-0.3,0-0.2-0.4-0.2-0.6
				c0-3,0-5.9,0-8.9c0-0.6-0.1-1.1-0.1-1.7c0-0.3,0-0.7,0.4-0.7c0.4,0,0.3,0.4,0.3,0.7C84.5,51,84.5,52.8,84.5,54.6z M87.5,54.9
				c0,1.7,0,3.5,0,5.2c0,0.3,0.1,0.7-0.3,0.7c-0.4,0-0.4-0.4-0.4-0.7c0-3.5,0-7,0-10.5c0-0.3-0.1-0.8,0.4-0.8c0.4,0,0.3,0.5,0.3,0.8
				C87.5,51.3,87.5,53.1,87.5,54.9z M89.9,61.2c-0.5,0-0.4-0.5-0.4-0.8c0-1.8,0-3.6,0-5.4c0-1.8,0-3.5,0-5.3c0-0.3-0.1-0.7,0.4-0.7
				c0.4,0,0.4,0.4,0.4,0.7c0,3.6,0,7.1,0,10.7C90.3,60.7,90.4,61.2,89.9,61.2z M92,47c-0.1,0.4-0.3,0.7-0.8,0.6
				c-1.5-0.3-3-0.1-4.4-0.2c-2.8-0.2-5.7,0-8.5,0.2c-0.3,0-0.5,0.1-0.7,0c-0.3-0.1-0.5-0.4-0.4-0.7c0-0.3,0.3-0.3,0.5-0.3
				c0.7-0.2,1.5-0.2,2.3-0.2c0.8,0,1.6-0.2,2.1-0.3c3.1,0.1,5.8,0.2,8.5,0.3c0.3,0,0.6,0,0.8,0.1C91.6,46.6,92.1,46.5,92,47z
				 M109,40.8c-0.8,0-1.3-0.6-1.3-1.5c0-0.9,0.6-1.4,1.4-1.4c0.8,0,1.4,0.7,1.4,1.5C110.5,40.2,109.8,40.8,109,40.8z M269,76.9
				h-11.4c-3.4-1.1-3.1-3.1-3-3.3c0.3-1.1,6.2-8.7,12.9-4.7C274.1,73,270,75.7,269,76.9z"/>
			<path d="M244.3,28.7c-0.4,0.4-0.2,0.7,0.3,0.9c0.7,0.1,1.3,0.2,2,0.2c0.6,0,0.8,0.3,0.7,0.8c-0.3,1-0.3,2.1-1,3
				c-0.3,0.3-0.1,0.6,0.3,0.5c1-0.2,1.9-0.2,2.8-0.6c0-0.3-0.5-0.1-0.4-0.5c0.1-0.3,0.4-0.5,0.7-0.5c0.6-0.1,1.3-0.2,1.8-0.6
				c-0.2-0.4-0.6-0.2-0.9-0.6c0.8-0.4,1.6-0.3,2.3-0.6c0.3-0.1,0.8-0.2,0.8-0.5c0.3-1.2,1.3-1.5,2.3-1.8c2.1-0.6,4.1-1.2,6.2-1.9
				c0.4-0.1,1.1-0.3,1-0.8c-0.1-0.5-0.8-0.4-1.2-0.5c-2.2-0.4-4.6,0.2-6.5-1.5c0,0-0.1-0.1-0.2-0.1c-0.5-0.1-0.7,0-0.7,0.6
				c0.1,0.3,0.4,0.8,0,1c-0.4,0.2-0.7-0.2-1-0.3c-0.7-0.3-1.2-0.9-1.9-1.3c-0.1-0.1-0.3-0.3-0.3-0.3c0.3-0.9-0.4-0.6-0.7-0.5
				c-0.4,0-0.9,0.1-1.3,0.2c-0.2,0-0.6,0.1-0.4,0.4c0.6,1-0.2,1.7-0.4,2.5c-0.1,0.6-0.5,0.7-1.1,0.5c-0.8-0.2-1.5-0.8-2.4-0.8
				c-0.4,0-0.9-0.3-1.2,0.1c-0.4,0.5,0.1,0.9,0.3,1.3C244.6,27.6,244.9,28.1,244.3,28.7z"/>
			<path d="M188.1,32c1.3-0.3,2.6-0.6,3.9-1c1-0.3,2-0.3,3,0c1.3,0.4,2.6,0.8,3.8,1.1c0.6,0.1,0.8,0,0.7-0.5
				c-0.1-0.6-0.3-1.1-0.7-1.5c-1.3-1.5-2.6-3-3.9-4.4c-0.7-0.7-1.1-1.5-1-2.5c0-0.3,0.1-0.8-0.4-0.8c-0.4,0-0.4,0.5-0.3,0.8
				c0,1-0.3,1.8-1,2.6c-1.3,1.3-2.5,2.7-3.7,4.1c-0.4,0.4-0.7,0.9-0.9,1.4c-0.1,0.2-0.3,0.5-0.1,0.7C187.5,32.2,187.8,32.1,188.1,32
				z"/>
		</g>
		<g>
			<g>
				<path class="st1" d="M130.9,105.1c0,0.8,0.2,2,0.5,2.7c0.3,0.6,0.5,1.3,0.5,2c0.1,1.2,0.2,2.4,0.3,3.7c0.1,0.9,0.2,1.8,0.2,2.6
					c0,0.1,0,0.2,0,0.3c0,0.3-0.2,0.5,0,0.8c0,0.1,0.1,0.2,0.2,0.2c0.6,0.1,1.2,0.1,1.8,0c0.1,0,0.3-0.4,0.2-0.5
					c-0.1-0.2-0.1-0.4-0.1-0.7c0.1-1,0.2-2,0.2-3c0.1-1.1,0.2-2.2,0.3-3.3c0.1-0.8,0.2-1.5,0.6-2.1c0.4-0.6,0.5-1.9,0.5-2.6"/>
			</g>
			<g>
				<path class="st1" d="M124.2,105.1c0,0.8,0.2,2,0.5,2.7c0.3,0.6,0.5,1.3,0.5,2c0.1,1.2,0.2,2.4,0.3,3.7c0.1,0.9,0.2,1.8,0.2,2.6
					c0,0.1,0,0.2,0,0.3c0,0.3-0.2,0.5,0,0.8c0,0.1,0.1,0.2,0.2,0.2c0.6,0.1,1.2,0.1,1.8,0c0.1,0,0.3-0.4,0.2-0.5
					c-0.1-0.2-0.1-0.4-0.1-0.7c0.1-1,0.2-2,0.2-3c0.1-1.1,0.2-2.2,0.3-3.3c0.1-0.8,0.2-1.5,0.6-2.1c0.4-0.6,0.5-1.9,0.5-2.6"/>
			</g>
		</g>
		<path class="st0" d="M110.1,116c0-0.6-0.2-1.2-0.7-1.7c-0.7-0.6-1.5-0.6-2.2,0c-0.9,0.9-0.9,2.6,0,3.4c0.7,0.6,1.7,0.5,2.3-0.2
			C110,117.1,110.1,116.6,110.1,116z"/>
		<g>
			<path d="M308.4,96.5c0-0.6,0-1.2,0-1.9c0-0.6,0-1.2,0-1.9c0,0.6,0,1.2,0,1.9C308.4,95.3,308.4,95.9,308.4,96.5z"/>
			<path d="M308.4,101.6c0-0.6,0-1.2,0-1.9c0-0.6,0-1.2,0-1.9c0,0.6,0,1.2,0,1.9C308.4,100.3,308.4,100.9,308.4,101.6z"/>
			<path d="M306,90.4c0-0.4,0.1-0.7,0.5-0.9c0.6-0.3,1.2-0.4,1.8-0.7c0.1,0.1,0.1,0.1,0.1,0.1c0,0.9,0,1.8,0,2.6
				c0,0.1-0.1,0.2-0.2,0.2c-0.6,0.1-1.2,0.2-1.9,0.4c-0.2,0-0.3,0-0.3-0.3C306,91.3,305.9,90.9,306,90.4z M306,93.2
				c0-0.1,0.1-0.3,0.2-0.3c0.6-0.1,1.2-0.2,1.9-0.4c0.2,0,0.3,0,0.3,0.3c0,0.6,0,1.2,0,1.9c0,0.6,0,1.2,0,1.9c0,0.2-0.1,0.3-0.3,0.3
				c-0.6,0-1.2,0-1.8,0c-0.2,0-0.3-0.1-0.3-0.3C305.9,95.4,305.9,94.3,306,93.2z M305.9,97.8c0-0.2,0.1-0.3,0.3-0.3
				c0.6,0,1.2,0,1.8,0c0.2,0,0.3,0.1,0.3,0.3c0,0.6,0,1.2,0,1.9c0,0.6,0,1.2,0,1.9c0,0.2,0,0.3-0.3,0.3c-0.6-0.1-1.2-0.2-1.9-0.3
				c-0.2,0-0.3-0.2-0.3-0.4C305.9,100,305.9,98.9,305.9,97.8z M308.4,104.4c0,0.3,0,0.7,0,1.1c-0.7-0.2-1.3-0.4-1.9-0.7
				c-0.2-0.1-0.4-0.4-0.4-0.6c-0.1-0.7,0-1.3,0-2c0,0,0.1,0,0.1,0c0.7,0.1,1.4,0.2,2.1,0.4c0.1,0,0.2,0.2,0.2,0.3
				C308.4,103.4,308.4,103.9,308.4,104.4z M311,106.5c-0.5-0.1-0.9-0.2-1.4-0.3c-0.4-0.1-0.5-0.2-0.5-0.6c0-5.4,0-10.8,0-16.2
				c0-0.3,0-0.6,0-0.9c0-0.1,0.1-0.3,0.1-0.3c0.6-0.2,1.1-0.3,1.7-0.4C311,94,311,100.3,311,106.5z M311.7,88.4
				c0-0.2,0.1-0.3,0.3-0.4c2-0.3,4-0.5,5.9-0.5c2.1,0,4.1,0.2,6.1,0.5c0.3,0,0.3,0.2,0.3,0.4c0,0.8,0,1.5,0,2.3c0,0.6,0,0.6-0.6,0.5
				c-1.7-0.1-3.5-0.3-5.2-0.3c-2.1,0-4.3,0.2-6.4,0.3c-0.3,0-0.4,0-0.4-0.3C311.7,90.1,311.7,89.2,311.7,88.4z M324,106.3
				c-2,0.3-4.1,0.6-6,0.5c-2.1,0-4-0.2-6-0.5c-0.2,0-0.3-0.1-0.3-0.4c0-0.9,0-1.7,0-2.6c0-0.3,0.1-0.4,0.4-0.3
				c1.7,0.1,3.4,0.3,5.1,0.3c2.3,0,4.6-0.2,6.8-0.3c0.2,0,0.4,0,0.4,0.3c0,0.9,0,1.8,0,2.6C324.3,106.2,324.2,106.3,324,106.3z
				 M323.9,102.4c-0.5,0-1.1,0.1-1.6,0.1c-3.4,0.3-6.8,0.2-10.2-0.1c-0.3,0-0.4-0.1-0.4-0.5c0-1.3,0-2.6,0-3.9
				c0-0.4,0.1-0.5,0.5-0.5c1.9,0,3.9,0,5.8,0c2,0,3.9,0,5.9,0c0.3,0,0.4,0.1,0.4,0.4c0,1.3,0,2.7,0,4
				C324.3,102.3,324.2,102.4,323.9,102.4z M323.9,96.8c-2,0-3.9,0-5.9,0c-2,0-3.9,0-5.9,0c-0.3,0-0.4-0.1-0.4-0.4c0-1.4,0-2.7,0-4.1
				c0-0.3,0.1-0.4,0.4-0.4c1.2-0.1,2.4-0.2,3.7-0.2c2.7-0.1,5.5,0,8.2,0.2c0.3,0,0.4,0.2,0.4,0.5c0,1.3,0,2.7,0,4
				C324.3,96.7,324.2,96.8,323.9,96.8z M326.9,101.8c0,1.3,0,2.6,0,3.9c0,0.1-0.1,0.3-0.1,0.4c-0.6,0.2-1.1,0.3-1.7,0.4
				c0-6.3,0-12.5,0-18.8c0.5,0.1,1,0.3,1.5,0.3c0.4,0.1,0.4,0.2,0.4,0.6C326.9,93,326.9,97.4,326.9,101.8z M327.6,88.8
				c0.7,0.2,1.3,0.4,1.9,0.7c0.2,0.1,0.4,0.4,0.5,0.7c0.1,0.6,0,1.3,0,2c-0.8-0.1-1.5-0.3-2.3-0.4c-0.1,0-0.1-0.1-0.1-0.2
				C327.6,90.7,327.6,89.8,327.6,88.8z M330,104.2c0,0.2-0.3,0.6-0.5,0.7c-0.6,0.3-1.2,0.4-1.9,0.6c0-1,0-1.9,0-2.7
				c0-0.1,0.1-0.2,0.2-0.2c0.7-0.1,1.5-0.3,2.2-0.4C330,102.9,330.1,103.6,330,104.2z M330.1,101.2c0,0.1-0.1,0.2-0.2,0.2
				c-0.7,0.1-1.4,0.3-2.2,0.4c0-0.1-0.1-0.1-0.1-0.1c0-1.3,0-2.6,0-4c0-0.2,0.1-0.2,0.3-0.2c0.5,0,1,0,1.4,0c0.2,0,0.4,0,0.7,0
				C330.1,98.8,330.1,100,330.1,101.2z M330.1,96.5c0,0.1,0,0.2,0,0.3c-0.7,0-1.4,0-2,0c-0.3,0-0.4-0.1-0.4-0.4c0-1.2,0-2.4,0-3.6
				c0-0.1,0-0.2,0-0.4c0.2,0,0.4,0,0.5,0.1c0.5,0.1,1,0.2,1.5,0.3c0.3,0,0.3,0.2,0.3,0.4C330.1,94.3,330.1,95.4,330.1,96.5z"/>
			<path d="M323.9,97.5c-2,0-3.9,0-5.9,0c-1.9,0-3.9,0-5.8,0c-0.4,0-0.5,0.1-0.5,0.5c0,1.3,0,2.6,0,3.9c0,0.3,0.1,0.4,0.4,0.5
				c3.4,0.3,6.8,0.4,10.2,0.1c0.5,0,1.1-0.1,1.6-0.1c0.3,0,0.4-0.1,0.4-0.4c0-1.3,0-2.7,0-4C324.3,97.6,324.2,97.5,323.9,97.5z"/>
			<path d="M323.9,97.5c-2,0-3.9,0-5.9,0c-1.9,0-3.9,0-5.8,0c1.9,0,3.9,0,5.8,0C320,97.5,321.9,97.5,323.9,97.5z"/>
			<path d="M323.9,91.9c-2.7-0.2-5.4-0.4-8.2-0.2c-1.2,0.1-2.4,0.2-3.7,0.2c-0.3,0-0.4,0.1-0.4,0.4c0,1.4,0,2.7,0,4.1
				c0,0.3,0.1,0.4,0.4,0.4c2,0,3.9,0,5.9,0c2,0,3.9,0,5.9,0c0.3,0,0.4-0.1,0.4-0.4c0-1.3,0-2.7,0-4C324.3,92.1,324.2,92,323.9,91.9z
				"/>
			<path d="M312.1,96.8c2,0,3.9,0,5.9,0c2,0,3.9,0,5.9,0c-2,0-3.9,0-5.9,0C316,96.8,314.1,96.8,312.1,96.8z"/>
			<path d="M324,103.1c-2.3,0.1-4.6,0.3-6.8,0.3c-1.7,0-3.4-0.2-5.1-0.3c-0.3,0-0.4,0.1-0.4,0.3c0,0.9,0,1.7,0,2.6
				c0,0.2,0.1,0.3,0.3,0.4c2,0.3,3.9,0.5,6,0.5c2,0.1,4-0.2,6-0.5c0.2,0,0.3-0.1,0.3-0.3c0-0.9,0-1.8,0-2.6
				C324.3,103.1,324.2,103.1,324,103.1z"/>
			<path d="M329.4,97.5c-0.5,0-1,0-1.4,0c-0.2,0-0.3,0-0.3,0.2c0,1.3,0,2.6,0,4c0,0,0,0.1,0.1,0.1c0.7-0.1,1.4-0.3,2.2-0.4
				c0.1,0,0.2-0.2,0.2-0.2c0-1.2,0-2.4,0-3.7C329.8,97.5,329.6,97.5,329.4,97.5z"/>
			<path d="M306.2,101.5c0.6,0.1,1.2,0.2,1.9,0.3c0.3,0.1,0.3-0.1,0.3-0.3c0-0.6,0-1.2,0-1.9c0-0.6,0-1.2,0-1.9
				c0-0.2-0.1-0.3-0.3-0.3c-0.6,0-1.2,0-1.8,0c-0.2,0-0.3,0.1-0.3,0.3c0,1.1,0,2.2,0,3.3C305.9,101.3,306,101.5,306.2,101.5z"/>
			<path d="M329.7,92.8c-0.5-0.1-1-0.2-1.5-0.3c-0.2,0-0.3,0-0.5-0.1c0,0.1,0,0.3,0,0.4c0,1.2,0,2.4,0,3.6c0,0.3,0.1,0.4,0.4,0.4
				c0.7,0,1.3,0,2,0c0-0.1,0-0.2,0-0.3c0-1.1,0-2.2,0-3.3C330.1,93,330,92.9,329.7,92.8z"/>
			<path d="M306.3,96.8c0.6,0,1.2,0,1.8,0c0.2,0,0.3-0.1,0.3-0.3c0-0.6,0-1.2,0-1.9c0-0.6,0-1.2,0-1.9c0-0.3-0.1-0.3-0.3-0.3
				c-0.6,0.1-1.2,0.2-1.9,0.4c-0.1,0-0.2,0.2-0.2,0.3c0,1.1,0,2.2,0,3.3C305.9,96.7,306,96.8,306.3,96.8z"/>
			<path d="M308.2,102.6c-0.7-0.1-1.4-0.3-2.1-0.4c0,0,0,0-0.1,0c0,0.7,0,1.3,0,2c0,0.2,0.2,0.5,0.4,0.6c0.6,0.3,1.2,0.4,1.9,0.7
				c0-0.4,0-0.7,0-1.1c0-0.5,0-1,0-1.5C308.4,102.8,308.3,102.6,308.2,102.6z"/>
			<path d="M327.8,102.6c-0.1,0-0.2,0.1-0.2,0.2c0,0.9,0,1.8,0,2.7c0.7-0.2,1.3-0.4,1.9-0.6c0.2-0.1,0.5-0.4,0.5-0.7
				c0.1-0.7,0-1.3,0-2C329.3,102.3,328.6,102.4,327.8,102.6z"/>
		</g>
		<g>
			<path d="M294.3,107.7c-0.2-2.9-0.3-5.7-0.5-8.6c-0.1-1.9-0.2-3.8-0.3-5.7c0-0.6-0.1-0.6-0.6-0.6c-1.7,0-3.4,0-5.1,0c0,0,0,0,0,0
				c-1.7,0-3.4,0-5.1,0c-0.5,0-0.6,0.1-0.6,0.6c-0.2,3.6-0.4,7.3-0.6,10.9c-0.2,3-0.3,6-0.5,8.9c-0.1,1.9,1.4,3.4,3.1,3.2
				c0.3,0,0.5,0,0.7,0.3c1.6,1.9,4.6,1.9,6.2,0c0.2-0.2,0.4-0.3,0.7-0.3c1.6,0.2,3.2-1.2,3.1-3C294.5,111.6,294.4,109.6,294.3,107.7
				z M281.9,107.6c0.2-2.9,0.3-5.8,0.5-8.7c0.1-1.7,0.2-3.3,0.3-5c0-0.3,0.1-0.4,0.4-0.4c3.1,0,6.2,0,9.3,0c0.3,0,0.4,0.1,0.4,0.4
				c0.2,2.9,0.3,5.8,0.5,8.7c0.1,1.7,0.2,3.3,0.3,5c0,0.4-0.1,0.5-0.4,0.5c-1.8,0-3.6,0-5.4,0c-1.8,0-3.6,0-5.3,0
				C281.9,108.2,281.9,108.2,281.9,107.6z M281.8,110.9c0.1-0.8,0.1-0.8,0.9-0.8c3.5,0,7,0,10.5,0c0.5,0,0.5,0,0.5,0.5
				c0,0.6,0.1,0,0.1,0.7c-0.2-0.1-0.3-0.2-0.4-0.2c-1.6-1.1-3.8-0.3-4.2,1.8c-0.1,0.2-0.1,0.3-0.4,0.3c-2.3,0-4.6,0-7,0
				c-0.1,0-0.1,0-0.2-0.1C281.7,112,281.7,112,281.8,110.9z M292.2,115.6c-0.3,0.1-0.7,0-1.1-0.1c-0.2,0-0.4,0-0.6,0.2
				c-1.6,2.1-4.2,2.1-5.8,0c-0.2-0.3-0.4-0.3-0.6-0.2c-1,0.3-2-0.2-2.4-1.2c-0.1-0.1-0.1-0.3-0.1-0.5c0.2,0,0.4,0,0.5,0
				c2.4,0,4.7,0,7.1,0c0.5,0,0.5,0,0.6-0.6c0.1-1.1,1-2,2-2c1.1,0,1.9,0.8,2,2C294,114.4,293.3,115.5,292.2,115.6z"/>
			<path d="M282.4,108.2c1.8,0,3.6,0,5.3,0c1.8,0,3.6,0,5.4,0c0.4,0,0.5-0.1,0.4-0.5c-0.1-1.7-0.2-3.3-0.3-5
				c-0.2-2.9-0.3-5.8-0.5-8.7c0-0.3-0.1-0.4-0.4-0.4c-3.1,0-6.2,0-9.3,0c-0.3,0-0.4,0.1-0.4,0.4c-0.1,1.7-0.2,3.3-0.3,5
				c-0.2,2.9-0.3,5.8-0.5,8.7C281.9,108.2,281.9,108.2,282.4,108.2z"/>
		</g>
		<path class="st2" d="M240.3,104.4c0-0.2-0.1-0.3-0.2-0.4c-0.3-0.2-0.5-0.4-0.5-0.8c0-0.1-0.1-0.2-0.2-0.2c-1.8,0-3.6,0-5.4,0
			c-0.1,0-0.2,0-0.2,0.2c0,0.4-0.3,0.6-0.6,0.8c-0.1,0.1-0.2,0.2-0.2,0.3c0,2.4,0,4.9,0,7.3c0,0.2,0.1,0.3,0.2,0.4
			c0.3,0.2,0.5,0.4,0.6,0.8c0,0.1,0.1,0.2,0.2,0.2c0.1,0,0.3,0,0.4,0c1.6,0,3.2,0,4.8,0c0.3,0,0.3,0,0.4-0.3
			c0.1-0.3,0.3-0.5,0.5-0.7c0.2-0.1,0.2-0.2,0.2-0.4c0-1.2,0-2.4,0-3.6C240.3,106.9,240.3,105.6,240.3,104.4z"/>
		<path class="st2" d="M240.3,111.7c0,0.2-0.1,0.3-0.2,0.4c-0.3,0.2-0.5,0.4-0.5,0.7c-0.1,0.3-0.1,0.3-0.4,0.3c-1.6,0-3.2,0-4.8,0
			c-0.1,0-0.3,0-0.4,0c-0.1,0-0.2,0-0.2-0.2c0-0.3-0.2-0.6-0.6-0.8c-0.2-0.1-0.2-0.2-0.2-0.4c0-2.4,0-4.9,0-7.3
			c0-0.1,0.1-0.3,0.2-0.3c0.3-0.2,0.5-0.4,0.6-0.8c0-0.1,0.1-0.2,0.2-0.2c1.8,0,3.6,0,5.4,0c0.1,0,0.2,0,0.2,0.2
			c0,0.3,0.2,0.6,0.5,0.8c0.2,0.1,0.2,0.2,0.2,0.4c0,1.2,0,2.4,0,3.6C240.3,109.3,240.3,110.5,240.3,111.7z M239.6,104.4
			c-2,0-4.1,0-6.1,0c-0.2,0-0.2,0.1-0.2,0.2c0,2.3,0,4.5,0,6.8c0,0.2,0,0.2,0.3,0.2c2,0,4.1,0,6.1,0c0.2,0,0.2,0,0.2-0.2
			c0-2.3,0-4.6,0-6.9c0-0.1,0-0.1,0-0.2C239.8,104.4,239.7,104.4,239.6,104.4z M234,112.6c0,0,0.1,0.1,0.2,0.1c0.7,0,1.5,0,2.2,0
			c0.8,0,1.7,0,2.5,0c0.2,0,0.3,0,0.3-0.2c0.1-0.2,0.2-0.3,0.3-0.5c-1.9,0-3.8,0-5.8,0C233.8,112.2,233.9,112.4,234,112.6z
			 M239.2,103.5c0,0-0.1-0.1-0.2-0.1c-0.2,0-0.4,0-0.5,0c-1.4,0-2.8,0-4.2,0c-0.2,0-0.2,0-0.3,0.2c-0.1,0.2-0.2,0.3-0.3,0.5
			c1.9,0,3.8,0,5.8,0C239.4,103.9,239.3,103.7,239.2,103.5z"/>
		<path class="st2" d="M239.9,104.4c-0.1,0-0.2,0-0.2,0c-2,0-4.1,0-6.1,0c-0.2,0-0.2,0.1-0.2,0.2c0,2.3,0,4.5,0,6.8
			c0,0.2,0,0.2,0.3,0.2c2,0,4.1,0,6.1,0c0.2,0,0.2,0,0.2-0.2c0-2.3,0-4.6,0-6.9C239.9,104.6,239.9,104.5,239.9,104.4z"/>
		<path class="st2" d="M233.7,112c0.1,0.2,0.2,0.4,0.3,0.6c0,0,0.1,0.1,0.2,0.1c0.7,0,1.5,0,2.2,0c0.8,0,1.7,0,2.5,0
			c0.2,0,0.3,0,0.3-0.2c0.1-0.2,0.2-0.3,0.3-0.5C237.6,112,235.6,112,233.7,112z"/>
		<path class="st2" d="M239.5,104.1c-0.1-0.2-0.2-0.4-0.3-0.6c0,0-0.1-0.1-0.2-0.1c-0.2,0-0.4,0-0.5,0c-1.4,0-2.8,0-4.2,0
			c-0.2,0-0.2,0-0.3,0.2c-0.1,0.2-0.2,0.3-0.3,0.5C235.6,104.1,237.5,104.1,239.5,104.1z"/>
		<path class="st2" d="M240.3,94c0-0.2-0.1-0.3-0.2-0.4c-0.3-0.2-0.5-0.4-0.5-0.8c0-0.1-0.1-0.2-0.2-0.2c-1.8,0-3.6,0-5.4,0
			c-0.1,0-0.2,0-0.2,0.2c0,0.4-0.3,0.6-0.6,0.8c-0.1,0.1-0.2,0.2-0.2,0.3c0,2.4,0,4.9,0,7.3c0,0.2,0.1,0.3,0.2,0.4
			c0.3,0.2,0.5,0.4,0.6,0.8c0,0.1,0.1,0.2,0.2,0.2c0.1,0,0.3,0,0.4,0c1.6,0,3.2,0,4.8,0c0.3,0,0.3,0,0.4-0.3
			c0.1-0.3,0.3-0.5,0.5-0.7c0.2-0.1,0.2-0.2,0.2-0.4c0-1.2,0-2.4,0-3.6C240.3,96.4,240.3,95.2,240.3,94z"/>
		<path class="st2" d="M240.3,101.3c0,0.2-0.1,0.3-0.2,0.4c-0.3,0.2-0.5,0.4-0.5,0.7c-0.1,0.3-0.1,0.3-0.4,0.3c-1.6,0-3.2,0-4.8,0
			c-0.1,0-0.3,0-0.4,0c-0.1,0-0.2,0-0.2-0.2c0-0.3-0.2-0.6-0.6-0.8c-0.2-0.1-0.2-0.2-0.2-0.4c0-2.4,0-4.9,0-7.3
			c0-0.1,0.1-0.3,0.2-0.3c0.3-0.2,0.5-0.4,0.6-0.8c0-0.1,0.1-0.2,0.2-0.2c1.8,0,3.6,0,5.4,0c0.1,0,0.2,0,0.2,0.2
			c0,0.3,0.2,0.6,0.5,0.8c0.2,0.1,0.2,0.2,0.2,0.4c0,1.2,0,2.4,0,3.6C240.3,98.9,240.3,100.1,240.3,101.3z M239.6,94
			c-2,0-4.1,0-6.1,0c-0.2,0-0.2,0.1-0.2,0.2c0,2.3,0,4.5,0,6.8c0,0.2,0,0.2,0.3,0.2c2,0,4.1,0,6.1,0c0.2,0,0.2,0,0.2-0.2
			c0-2.3,0-4.6,0-6.9c0-0.1,0-0.1,0-0.2C239.8,94,239.7,94,239.6,94z M234,102.2c0,0,0.1,0.1,0.2,0.1c0.7,0,1.5,0,2.2,0
			c0.8,0,1.7,0,2.5,0c0.2,0,0.3,0,0.3-0.2c0.1-0.2,0.2-0.3,0.3-0.5c-1.9,0-3.8,0-5.8,0C233.8,101.8,233.9,102,234,102.2z
			 M239.2,93.1c0,0-0.1-0.1-0.2-0.1c-0.2,0-0.4,0-0.5,0c-1.4,0-2.8,0-4.2,0c-0.2,0-0.2,0-0.3,0.2c-0.1,0.2-0.2,0.3-0.3,0.5
			c1.9,0,3.8,0,5.8,0C239.4,93.5,239.3,93.3,239.2,93.1z"/>
		<path class="st2" d="M239.9,94c-0.1,0-0.2,0-0.2,0c-2,0-4.1,0-6.1,0c-0.2,0-0.2,0.1-0.2,0.2c0,2.3,0,4.5,0,6.8
			c0,0.2,0,0.2,0.3,0.2c2,0,4.1,0,6.1,0c0.2,0,0.2,0,0.2-0.2c0-2.3,0-4.6,0-6.9C239.9,94.1,239.9,94.1,239.9,94z"/>
		<path class="st2" d="M233.7,101.6c0.1,0.2,0.2,0.4,0.3,0.6c0,0,0.1,0.1,0.2,0.1c0.7,0,1.5,0,2.2,0c0.8,0,1.7,0,2.5,0
			c0.2,0,0.3,0,0.3-0.2c0.1-0.2,0.2-0.3,0.3-0.5C237.6,101.6,235.6,101.6,233.7,101.6z"/>
		<path class="st2" d="M239.5,93.7c-0.1-0.2-0.2-0.4-0.3-0.6c0,0-0.1-0.1-0.2-0.1c-0.2,0-0.4,0-0.5,0c-1.4,0-2.8,0-4.2,0
			c-0.2,0-0.2,0-0.3,0.2c-0.1,0.2-0.2,0.3-0.3,0.5C235.6,93.7,237.5,93.7,239.5,93.7z"/>
		<path class="st2" d="M240.3,114.8c0-0.2-0.1-0.3-0.2-0.4c-0.3-0.2-0.5-0.4-0.5-0.8c0-0.1-0.1-0.2-0.2-0.2c-1.8,0-3.6,0-5.4,0
			c-0.1,0-0.2,0-0.2,0.2c0,0.4-0.3,0.6-0.6,0.8c-0.1,0.1-0.2,0.2-0.2,0.3c0,2.4,0,4.9,0,7.3c0,0.2,0.1,0.3,0.2,0.4
			c0.3,0.2,0.5,0.4,0.6,0.8c0,0.1,0.1,0.2,0.2,0.2c0.1,0,0.3,0,0.4,0c1.6,0,3.2,0,4.8,0c0.3,0,0.3,0,0.4-0.3
			c0.1-0.3,0.3-0.5,0.5-0.7c0.2-0.1,0.2-0.2,0.2-0.4c0-1.2,0-2.4,0-3.6C240.3,117.2,240.3,116,240.3,114.8z"/>
		<path class="st2" d="M240.3,122c0,0.2-0.1,0.3-0.2,0.4c-0.3,0.2-0.5,0.4-0.5,0.7c-0.1,0.3-0.1,0.3-0.4,0.3c-1.6,0-3.2,0-4.8,0
			c-0.1,0-0.3,0-0.4,0c-0.1,0-0.2,0-0.2-0.2c0-0.3-0.2-0.6-0.6-0.8c-0.2-0.1-0.2-0.2-0.2-0.4c0-2.4,0-4.9,0-7.3
			c0-0.1,0.1-0.3,0.2-0.3c0.3-0.2,0.5-0.4,0.6-0.8c0-0.1,0.1-0.2,0.2-0.2c1.8,0,3.6,0,5.4,0c0.1,0,0.2,0,0.2,0.2
			c0,0.3,0.2,0.6,0.5,0.8c0.2,0.1,0.2,0.2,0.2,0.4c0,1.2,0,2.4,0,3.6C240.3,119.6,240.3,120.8,240.3,122z M239.6,114.8
			c-2,0-4.1,0-6.1,0c-0.2,0-0.2,0.1-0.2,0.2c0,2.3,0,4.5,0,6.8c0,0.2,0,0.2,0.3,0.2c2,0,4.1,0,6.1,0c0.2,0,0.2,0,0.2-0.2
			c0-2.3,0-4.6,0-6.9c0-0.1,0-0.1,0-0.2C239.8,114.8,239.7,114.8,239.6,114.8z M234,123c0,0,0.1,0.1,0.2,0.1c0.7,0,1.5,0,2.2,0
			c0.8,0,1.7,0,2.5,0c0.2,0,0.3,0,0.3-0.2c0.1-0.2,0.2-0.3,0.3-0.5c-1.9,0-3.8,0-5.8,0C233.8,122.6,233.9,122.8,234,123z
			 M239.2,113.8c0,0-0.1-0.1-0.2-0.1c-0.2,0-0.4,0-0.5,0c-1.4,0-2.8,0-4.2,0c-0.2,0-0.2,0-0.3,0.2c-0.1,0.2-0.2,0.3-0.3,0.5
			c1.9,0,3.8,0,5.8,0C239.4,114.2,239.3,114,239.2,113.8z"/>
		<path class="st2" d="M239.9,114.8c-0.1,0-0.2,0-0.2,0c-2,0-4.1,0-6.1,0c-0.2,0-0.2,0.1-0.2,0.2c0,2.3,0,4.5,0,6.8
			c0,0.2,0,0.2,0.3,0.2c2,0,4.1,0,6.1,0c0.2,0,0.2,0,0.2-0.2c0-2.3,0-4.6,0-6.9C239.9,114.9,239.9,114.8,239.9,114.8z"/>
		<path class="st2" d="M233.7,122.4c0.1,0.2,0.2,0.4,0.3,0.6c0,0,0.1,0.1,0.2,0.1c0.7,0,1.5,0,2.2,0c0.8,0,1.7,0,2.5,0
			c0.2,0,0.3,0,0.3-0.2c0.1-0.2,0.2-0.3,0.3-0.5C237.6,122.4,235.6,122.4,233.7,122.4z"/>
		<path class="st2" d="M239.5,114.4c-0.1-0.2-0.2-0.4-0.3-0.6c0,0-0.1-0.1-0.2-0.1c-0.2,0-0.4,0-0.5,0c-1.4,0-2.8,0-4.2,0
			c-0.2,0-0.2,0-0.3,0.2c-0.1,0.2-0.2,0.3-0.3,0.5C235.6,114.4,237.5,114.4,239.5,114.4z"/>
		<g>
			<path class="st3" d="M224.4,120.4c-0.3-0.1-0.7-0.3-1-0.4c-0.3-0.1-0.4-0.2-0.4-0.6c-0.1-1.5-0.3-2.9-0.4-4.4
				c-0.1-1.3-0.3-2.6-0.4-3.9c-0.2-1.5-0.3-2.9-0.5-4.4c-0.2-1.5-0.3-3-0.5-4.5c-0.2-1.5-0.3-2.9-0.5-4.4c0-0.2,0.1-0.2,0.2-0.2
				c0.1,0,0.1,0.1,0.1,0.2c0.1,0.5,0.1,1.1,0.2,1.6c0.2,1.8,0.4,3.5,0.6,5.3c0.2,1.8,0.4,3.6,0.5,5.3c0.2,2.2,0.5,4.5,0.7,6.7
				c0.1,0.9,0.2,1.8,0.3,2.7c0,0.1,0.1,0.2,0.1,0.2c0.3,0.1,0.6,0.2,1,0.4c-0.1-0.1-0.1-0.2-0.1-0.2c-0.2-0.4-0.4-0.8-0.4-1.3
				c-0.1-0.9-0.2-1.9-0.3-2.8c-0.2-1.4-0.3-2.8-0.5-4.2c-0.2-1.4-0.3-2.9-0.5-4.3c-0.1-1.3-0.3-2.5-0.4-3.8
				c-0.2-1.4-0.3-2.9-0.5-4.3c-0.2-1.6-0.3-3.2-0.5-4.8c0-0.2-0.1-0.2-0.2-0.2c-0.7-0.1-1.4-0.2-2.1-0.3c-1.5-0.1-3-0.1-4.5,0.1
				c-0.7,0.1-1.3,0.2-2,0.2c-0.1,0-0.2,0.1-0.2,0.2c-0.1,1.7-0.2,3.5-0.3,5.2c0,0.4,0,0.4-0.3,0.4c-0.1,0-0.1,0-0.2,0.1
				c-1,0.5-2.1,1-3.1,1.5c-0.6,0.3-1.3,0.7-1.8,1.3c-0.1,0.1-0.2,0.2-0.2,0.4c0,0.6,0,1.2,0,1.7c0,2.7,0,5.4,0,8.1
				c0,0.2,0,0.4,0,0.5c0,0.5,0.1,1,0.4,1.5c0.5,0.9,1.1,1.2,1.9,1.4c0.3,0.1,0.6,0.1,0.9,0.1c-0.1,0.7-0.1,1.4-0.2,2.2
				c0.2,0,0.4,0,0.5,0c0.1,0,0.2,0,0.2-0.2c0.2-1.6,0.4-3.3,0.5-4.9c0.2-1.7,0.4-3.4,0.5-5.2c0.2-2,0.4-4,0.6-6
				c0.2-1.9,0.4-3.7,0.6-5.6c0-0.2,0.1-0.2,0.2-0.3c0.9-0.2,1.7-0.3,2.6-0.5c1.3-0.2,2.5-0.2,3.8,0.1c0.4,0.1,0.7,0.2,1.1,0.3
				c-0.1,0.2-0.1,0.3-0.1,0.4c-0.6-0.3-1.3-0.4-1.9-0.5c-1.7-0.2-3.4,0-5.1,0.4c-0.1,0-0.1,0.1-0.1,0.2c0,0.2-0.1,0.5-0.1,0.7
				c-0.2,1.4-0.3,2.9-0.5,4.3c-0.1,1.2-0.3,2.5-0.4,3.7c-0.2,1.4-0.3,2.9-0.5,4.3c-0.1,1.3-0.3,2.5-0.4,3.8
				c-0.1,1.3-0.3,2.6-0.4,3.9c0,0.3-0.1,0.6-0.1,0.9c0.1,0,0.2,0,0.2,0c1.3,0,2.5-0.1,3.8,0.1c1.9,0.2,3.7,0.9,5.3,2.1
				c1.2,0.9,2.4,1,3.7,0.4c0.4-0.2,0.7-0.4,1-0.6c0,0,0,0,0-0.1C224.5,120.4,224.5,120.4,224.4,120.4z M211.3,102.9
				c-0.2,1.5-0.3,2.9-0.5,4.4c-0.2,1.4-0.3,2.9-0.5,4.3c-0.1,0.9-0.2,1.9-0.3,2.8c0,0.1-0.1,0.2-0.2,0.2c-0.3,0.1-0.7,0.2-1,0.1
				c-0.6-0.1-1-0.6-1.1-1.3c-0.1-0.5-0.1-1.1-0.2-1.7c-0.1-2.6,0-5.2,0-7.9c0-0.2,0.1-0.3,0.2-0.4c0.4-0.4,0.8-0.6,1.2-0.8
				c0.7-0.3,1.5-0.6,2.2-0.9c0,0,0.1,0,0.1,0C211.4,102.1,211.4,102.5,211.3,102.9z"/>
			<path class="st3" d="M224.7,119.8c-0.3-0.4-0.5-0.8-0.5-1.3c-0.1-0.4-0.1-0.8-0.1-1.2c-0.2-2-0.4-4.1-0.6-6.1
				c-0.2-1.7-0.4-3.4-0.6-5.1c-0.2-2-0.4-4.1-0.6-6.1c-0.2-2-0.4-4-0.6-6.1c0-0.2-0.1-0.2-0.2-0.2c-0.8-0.1-1.6-0.3-2.4-0.3
				c-1.5-0.1-3-0.1-4.6,0.1c-0.7,0.1-1.5,0.2-2.2,0.3c-0.2,0-0.2,0.1-0.2,0.3c0,0.2,0,0.3,0,0.5c-0.1,1.6-0.2,3.3-0.3,4.9
				c0,0.1,0,0.2-0.1,0.2c-1.2,0.4-2.3,1-3.4,1.6c-0.6,0.4-1.3,0.8-1.8,1.3c-0.1,0.1-0.2,0.3-0.2,0.5c0,3.2,0,6.4,0,9.7
				c0,0.3,0,0.5,0,0.8c0.1,1.2,0.5,2.1,1.4,2.7c0.5,0.4,1.1,0.6,1.7,0.6c0.1,0,0.2,0,0.2,0.2c-0.1,0.6-0.1,1.2-0.1,1.8
				c0,0.1,0,0.2,0.1,0.2c0.4,0,0.8,0.1,1.2,0c1.6-0.1,3.2-0.1,4.9,0.2c1.5,0.3,3,0.9,4.3,1.9c0.5,0.4,1.1,0.7,1.7,0.8
				c1.2,0.2,2.3-0.1,3.2-0.9c0.2-0.2,0.4-0.3,0.6-0.5C225,120.2,224.9,120,224.7,119.8z M223.6,121.1c-1.3,0.6-2.5,0.5-3.7-0.4
				c-1.6-1.2-3.4-1.8-5.3-2.1c-1.3-0.2-2.5-0.1-3.8-0.1c-0.1,0-0.2,0-0.2,0c0-0.3,0.1-0.6,0.1-0.9c0.1-1.3,0.3-2.6,0.4-3.9
				c0.1-1.3,0.3-2.5,0.4-3.8c0.2-1.4,0.3-2.9,0.5-4.3c0.1-1.2,0.3-2.5,0.4-3.7c0.2-1.4,0.3-2.9,0.5-4.3c0-0.2,0.1-0.5,0.1-0.7
				c0-0.1,0-0.2,0.1-0.2c1.7-0.4,3.4-0.6,5.1-0.4c0.6,0.1,1.3,0.2,1.9,0.5c0-0.1,0.1-0.2,0.1-0.4c-0.4-0.1-0.7-0.3-1.1-0.3
				c-1.3-0.3-2.5-0.3-3.8-0.1c-0.9,0.1-1.7,0.3-2.6,0.5c-0.1,0-0.2,0.1-0.2,0.3c-0.2,1.9-0.4,3.7-0.6,5.6c-0.2,2-0.4,4-0.6,6
				c-0.2,1.7-0.4,3.4-0.5,5.2c-0.2,1.6-0.4,3.3-0.5,4.9c0,0.2-0.1,0.2-0.2,0.2c-0.2,0-0.3,0-0.5,0c0.1-0.7,0.1-1.5,0.2-2.2
				c-0.3,0-0.6-0.1-0.9-0.1c-0.8-0.2-1.5-0.6-1.9-1.4c-0.2-0.4-0.3-0.9-0.4-1.5c0-0.2,0-0.4,0-0.5c0-2.7,0-5.4,0-8.1
				c0-0.6,0-1.2,0-1.7c0-0.2,0.1-0.3,0.2-0.4c0.6-0.5,1.2-0.9,1.8-1.3c1-0.5,2-1,3.1-1.5c0.1,0,0.1,0,0.2-0.1
				c0.3-0.1,0.3-0.1,0.3-0.4c0.1-1.7,0.2-3.5,0.3-5.2c0-0.1,0.1-0.2,0.2-0.2c0.7-0.1,1.3-0.2,2-0.2c1.5-0.1,3-0.2,4.5-0.1
				c0.7,0.1,1.4,0.2,2.1,0.3c0.1,0,0.2,0.1,0.2,0.2c0.2,1.6,0.3,3.2,0.5,4.8c0.2,1.4,0.3,2.9,0.5,4.3c0.1,1.3,0.3,2.5,0.4,3.8
				c0.2,1.4,0.3,2.9,0.5,4.3c0.2,1.4,0.3,2.8,0.5,4.2c0.1,0.9,0.2,1.9,0.3,2.8c0,0.5,0.2,0.9,0.4,1.3c0,0.1,0.1,0.1,0.1,0.2
				c-0.4-0.1-0.7-0.2-1-0.4c0,0-0.1-0.1-0.1-0.2c-0.1-0.9-0.2-1.8-0.3-2.7c-0.2-2.2-0.5-4.5-0.7-6.7c-0.2-1.8-0.4-3.6-0.5-5.3
				c-0.2-1.8-0.4-3.5-0.6-5.3c-0.1-0.5-0.1-1.1-0.2-1.6c0-0.1,0-0.2-0.1-0.2c-0.1,0-0.2,0-0.2,0.2c0.2,1.5,0.3,2.9,0.5,4.4
				c0.2,1.5,0.3,3,0.5,4.5c0.2,1.5,0.3,2.9,0.5,4.4c0.1,1.3,0.3,2.6,0.4,3.9c0.2,1.5,0.3,2.9,0.4,4.4c0,0.4,0.2,0.5,0.4,0.6
				c0.3,0.1,0.7,0.2,1,0.4c0.1,0,0.1,0,0.2,0.1c0,0,0,0,0,0.1C224.2,120.7,223.9,121,223.6,121.1z"/>
		</g>
		<g>
			<path class="st4" d="M151.1,132.2c-0.1,0-0.3,0-0.4-0.1c-0.9-0.4-1.5-1.6-1.8-3.6c0-0.3-0.1-0.6-0.1-0.9c0-2.1,0-4.3,0-6.4
				c0-0.1,0.1-0.3,0.1-0.4c0.1-0.3,0.2-0.4,0.4-0.4c0-0.1,0-0.1,0-0.2c0-0.7,0-1.3,0-2c0-0.6,0.2-1.1,0.5-1.1c0.8,0,1.7,0,2.5,0
				c0.3,0,0.5,0.4,0.5,1.1c0,0.7,0,1.3,0,2c0,0.1,0,0.1,0,0.2c0.3,0.1,0.5,0.5,0.5,1.2c0,0.6,0,1.3,0,1.9c0,0.1,0,0.1,0,0.2
				c1,0,2.1,0,3.1,0c0-0.2,0-0.5,0-0.7c0.1-1.4,0.7-2.4,1.3-2.4c0.4,0,0.7,0,1.1,0c0.1,0,0.1,0,0.1-0.2c0-1,0-1.9,0-2.9
				c0-5,0-10.1,0-15.1c0-0.1,0-0.1,0-0.2c0-0.1,0-0.2-0.1-0.1c-0.1,0-0.2,0-0.3,0c-0.4,0-0.8-0.3-1.1-0.8c-0.7-1-1-2.4-1-4.2
				c0-0.2,0-0.2-0.1-0.2c-0.9,0-1.9,0-2.8,0c0,0-0.1,0-0.1,0c-0.2-0.1-0.4-0.6-0.3-1.1c0-0.6,0.2-0.9,0.5-0.9c0.9,0,1.7,0,2.6,0
				c5.3,0,10.6,0,15.9,0c0,0,0,0,0,0c0.3,0,0.5,0.7,0.4,1.4c-0.1,0.4-0.2,0.7-0.4,0.7c-0.9,0-1.9,0-2.8,0c0,0-0.1,0-0.1,0
				c0,0.3,0,0.6,0,0.9c-0.1,1.7-0.5,3-1.2,3.8c-0.4,0.4-0.8,0.6-1.2,0.5c-0.1,0-0.1,0-0.1,0.2c0,5.9,0,11.9,0,17.8
				c0,0.1,0,0.3,0,0.4c0,0,0.1,0,0.1,0c0.4,0,0.8,0,1.2,0c0.5,0.1,0.9,0.8,1.1,1.8c0.1,0.4,0.1,0.8,0.1,1.2c1,0,2.1,0,3.1,0
				c0-0.1,0-0.1,0-0.2c0-0.7,0-1.4,0-2.1c0-0.4,0.1-0.8,0.3-1c0.1-0.1,0.1-0.1,0.2-0.1c0,0,0-0.1,0-0.2c0-0.7,0-1.3,0-2
				c0-0.7,0.2-1.1,0.5-1.1c0.8,0,1.7,0,2.5,0c0.3,0,0.5,0.4,0.5,1.1c0,0.7,0,1.3,0,2c0,0.1,0,0.1,0,0.2c0,0,0,0,0,0
				c0.3,0,0.4,0.5,0.4,1.1c0,1.9,0,3.8,0,5.7c0,0.2,0,0.5,0,0.7c-0.1,1.1-0.3,2.1-0.6,2.9c-0.4,1-1,1.4-1.6,1.5
				c-0.1,0-0.1,0.1-0.1,0.2c0,0.9,0,1.8,0,2.7c0,0.1,3,5.2-0.5,5.6s-2.4-5.2-2.4-5.8c0-0.8-0.6-1.7-0.6-2.5c0-0.2,0-0.2-0.1-0.2
				c-0.6,0-1.1,0-1.7,0c0,0,0,0-0.1,0c0,0.1,0,0.1,0,0.1c0,1.7-0.6,3-1.4,3c-0.4,0-0.7,0-1.1,0c0,0,0,0-0.1,0c0,0.3-1.1,7.6-4.1,7.6
				c-3,0-3.6-6.8-3.6-7.4c0-0.1,0-0.2-0.1-0.2c-0.3,0-0.7,0-1,0c-0.1,0-0.2,0-0.3,0c-0.6-0.2-1-1.2-1.1-2.4c0-0.2,0-0.4,0-0.6
				c0,0,0,0,0,0c-0.6,0-1.2,0-1.7,0L151.1,132.2z M157.4,96.8c0,0.3,0,0.6,0,0.8c0.1,1.4,0.7,2.3,1.3,2.3c2.7,0,5.5,0,8.2,0
				c0.8,0,1.4-1.5,1.3-3.2c0,0,0,0,0,0C164.6,96.8,161,96.8,157.4,96.8z M159.9,133.5c0,0.2,0,0.3,0,0.5c0.1,0.8,0.4,1.3,0.7,1.3
				c1.5,0,3.1,0,4.6,0c0.4,0,0.8-0.8,0.7-1.8c0,0,0,0,0,0C163.9,133.5,161.9,133.5,159.9,133.5z M159,122.6
				C159,122.6,158.9,122.6,159,122.6c-0.4,0-0.8,0-1.1,0c-0.3,0-0.5,0.4-0.5,1c0,2.8,0,5.7,0,8.5c0,0.6,0.2,1.1,0.5,1.1
				c0.3,0,0.7,0,1,0c0,0,0,0,0.1,0C159,129.7,159,126.2,159,122.6z M166.7,133.3c0.3,0,0.7,0,1,0c0.3,0,0.5-0.4,0.5-1.1
				c0-2.5,0-4.9,0-7.4c0-0.5,0-0.9,0-1.4c0-0.4-0.2-0.8-0.4-0.8c-0.4,0-0.8,0-1.2,0c0,0,0,0,0,0
				C166.7,126.2,166.7,129.7,166.7,133.3C166.7,133.2,166.7,133.3,166.7,133.3z"/>
		</g>
		<g>
			<path class="st5" d="M82.1,109.8c0.1,0.4,0.3,0.6,0.7,0.6c0.4,0,0.6-0.2,0.7-0.6c0-0.2,0-0.4,0-0.6c0-3.8,0-7.7,0-11.5
				c0-0.7-0.2-1.1-0.7-1.1c-0.5,0-0.7,0.4-0.7,1.1c0,1.9,0,3.9,0,5.8c0,1.9,0,3.9,0,5.8C82.1,109.5,82.1,109.7,82.1,109.8z"/>
			<path class="st5" d="M78.7,109.8c0.1,0.4,0.3,0.6,0.7,0.6c0.4,0,0.6-0.2,0.7-0.6c0-0.2,0-0.4,0-0.6c0-3.8,0-7.7,0-11.5
				c0-0.7-0.2-1.1-0.7-1.1c-0.5,0-0.7,0.4-0.7,1.1c0,1.9,0,3.9,0,5.8c0,1.9,0,3.9,0,5.8C78.7,109.5,78.6,109.7,78.7,109.8z"/>
			<path class="st5" d="M85.8,109.8c0.1,0.4,0.3,0.6,0.7,0.6c0.4,0,0.6-0.2,0.7-0.6c0-0.2,0-0.4,0-0.6c0-3.8,0-7.7,0-11.5
				c0-0.7-0.2-1.1-0.7-1.1c-0.5,0-0.7,0.4-0.7,1.1c0,1.9,0,3.9,0,5.8c0,1.9,0,3.9,0,5.8C85.8,109.5,85.7,109.7,85.8,109.8z"/>
			<path class="st5" d="M89.1,109.8c0.1,0.4,0.3,0.6,0.7,0.6c0.4,0,0.6-0.2,0.7-0.6c0-0.2,0-0.4,0-0.6c0-3.8,0-7.7,0-11.5
				c0-0.7-0.2-1.1-0.7-1.1c-0.5,0-0.7,0.4-0.7,1.1c0,1.9,0,3.9,0,5.8c0,1.9,0,3.9,0,5.8C89.1,109.5,89.1,109.7,89.1,109.8z"/>
			<path class="st5" d="M82.8,117.7c-0.6,0-0.7-0.1-0.7-0.7c-0.1-1.2-1.1-2.2-2.3-2.3c-1.4-0.1-2.5,0.9-2.7,2.3
				c-0.1,1.1,0.7,2.4,1.9,2.6c0.4,0.1,0.9,0.1,1.3,0c0.4-0.1,0.6,0,0.8,0.3c1.7,2.2,4.8,2.3,6.7,0.3c0.1-0.1,0.1-0.1,0.2-0.2
				c0.2-0.5,0.6-0.5,1.1-0.4c1.2,0.3,2.4-0.3,2.8-1.4c0.1-0.1,0.1-0.3,0.1-0.6c-0.6,0-1,0-1.5,0C88,117.7,85.4,117.7,82.8,117.7z"/>
			<path class="st5" d="M93.6,112.1c0.7,0,1.4,0,2.2,0c0.3,0,0.4-0.1,0.4-0.4c0-2.3,0-4.5,0-6.8c0-0.9-0.4-1.7-1.2-2.3
				c-0.5-0.4-1.2-0.7-1.9-1.1c0,0.3,0,0.5,0,0.6c0,3.1,0,6.2,0,9.3C93.1,112,93.1,112.1,93.6,112.1z"/>
			<path d="M99.5,104.4c-0.1-2.2-1.3-3.9-3.2-5c-0.9-0.5-1.8-1-2.7-1.4c-0.4-0.2-0.5-0.4-0.5-0.8c0-1,0-2,0-3c0-0.5-0.1-0.6-0.6-0.6
				c-5.2,0-10.4,0-15.6,0c-0.5,0-0.7,0.1-0.7,0.7c0,3.8,0,7.7,0,11.5c0,0,0,0,0,0c0,3.8,0,7.5,0,11.3c0,1.6,0.6,2.8,2.1,3.4
				c0.5,0.2,1.1,0.2,1.6,0.2c0.4,0,0.6,0.1,0.9,0.3c2.1,2.2,5.5,2.2,7.6,0c0.2-0.2,0.4-0.3,0.8-0.3c2,0.3,3.9-1.3,3.8-3.5
				c0-0.3,0-0.7,0-1c0-0.4,0.1-0.6,0.5-0.6c0.8,0,1.6,0,2.4,0c2.1,0,3.6-1.4,3.6-3.5C99.6,109.5,99.7,106.9,99.5,104.4z M89.1,103.5
				c0-1.9,0-3.9,0-5.8c0-0.7,0.2-1.1,0.7-1.1c0.5,0,0.7,0.3,0.7,1.1c0,3.8,0,7.7,0,11.5c0,0.2,0,0.4,0,0.6c-0.1,0.4-0.3,0.6-0.7,0.6
				c-0.4,0-0.6-0.2-0.7-0.6c0-0.2,0-0.3,0-0.5C89.1,107.4,89.1,105.5,89.1,103.5z M85.8,103.5c0-1.9,0-3.9,0-5.8
				c0-0.7,0.2-1.1,0.7-1.1c0.5,0,0.7,0.3,0.7,1.1c0,3.8,0,7.7,0,11.5c0,0.2,0,0.4,0,0.6c-0.1,0.4-0.3,0.6-0.7,0.6
				c-0.4,0-0.6-0.2-0.7-0.6c0-0.2,0-0.3,0-0.5C85.8,107.4,85.8,105.5,85.8,103.5z M82.1,103.5c0-1.9,0-3.9,0-5.8
				c0-0.7,0.2-1.1,0.7-1.1c0.5,0,0.7,0.3,0.7,1.1c0,3.8,0,7.7,0,11.5c0,0.2,0,0.4,0,0.6c-0.1,0.4-0.3,0.6-0.7,0.6
				c-0.4,0-0.6-0.2-0.7-0.6c0-0.2,0-0.3,0-0.5C82.1,107.4,82.1,105.5,82.1,103.5z M78.7,103.5c0-1.9,0-3.9,0-5.8
				c0-0.7,0.2-1.1,0.7-1.1c0.5,0,0.7,0.3,0.7,1.1c0,3.8,0,7.7,0,11.5c0,0.2,0,0.4,0,0.6c-0.1,0.4-0.3,0.6-0.7,0.6
				c-0.4,0-0.6-0.2-0.7-0.6c0-0.2,0-0.3,0-0.5C78.7,107.4,78.7,105.5,78.7,103.5z M92,118.3c-0.5,1.1-1.6,1.7-2.8,1.4
				c-0.5-0.1-0.8-0.1-1.1,0.4c0,0.1-0.1,0.1-0.2,0.2c-1.9,2-5,1.8-6.7-0.3c-0.2-0.3-0.4-0.4-0.8-0.3c-0.4,0.1-0.9,0.1-1.3,0
				c-1.1-0.2-2-1.5-1.9-2.6c0.2-1.4,1.3-2.3,2.7-2.3c1.2,0,2.2,1.1,2.3,2.3c0,0.6,0.1,0.7,0.7,0.7c2.6,0,5.2,0,7.8,0
				c0.5,0,0.9,0,1.5,0C92,117.9,92,118.1,92,118.3z M98.7,112.1c0,1.4-1.1,2.5-2.6,2.5c-0.6,0-1.3,0-1.9,0c-1.2,0-1.2,0-1.2-1.2
				c0-0.3,0.1-0.4,0.4-0.4c0.8,0,1.6,0,2.4,0c0.8,0,1.1-0.3,1.1-1.1c0-2.3,0-4.5,0-6.8c0-1.6-0.8-2.8-2.2-3.6
				c-0.5-0.3-1-0.5-1.5-0.8c-0.1-0.1-0.3-0.3-0.3-0.4c0-0.5,0-1,0-1.6c1,0.5,1.8,0.9,2.7,1.4c1.8,1,2.9,2.6,2.9,4.7
				C98.8,107.3,98.7,109.7,98.7,112.1z M93.1,111.5c0-3.1,0-6.2,0-9.3c0-0.2,0-0.3,0-0.6c0.7,0.4,1.3,0.7,1.9,1.1
				c0.8,0.6,1.2,1.3,1.2,2.3c0,2.3,0,4.5,0,6.8c0,0.3-0.1,0.4-0.4,0.4c-0.7,0-1.4,0-2.2,0C93.1,112.1,93.1,112,93.1,111.5z"/>
			<path d="M95.7,100.1c-0.8-0.5-1.7-0.9-2.7-1.4c0,0.6,0,1.1,0,1.6c0,0.1,0.2,0.3,0.3,0.4c0.5,0.3,1,0.5,1.5,0.8
				c1.4,0.8,2.2,2,2.2,3.6c0,2.3,0,4.5,0,6.8c0,0.8-0.3,1.1-1.1,1.1c-0.8,0-1.6,0-2.4,0c-0.3,0-0.4,0.1-0.4,0.4
				c-0.1,1.2-0.1,1.2,1.2,1.2c0.6,0,1.3,0,1.9,0c1.4,0,2.6-1.1,2.6-2.5c0-2.4,0.1-4.9,0-7.3C98.6,102.7,97.6,101.2,95.7,100.1z"/>
		</g>
		<g>
			<path class="st5" d="M181.8,54.1c0-0.2-0.1-0.2-0.3-0.2c-0.1,0-0.2,0.1-0.3,0.2c0,0.1,0,0.2,0,0.3c0,1.6,0,3.2,0,4.8
				c0,0.3,0.1,0.5,0.3,0.5c0.2,0,0.3-0.2,0.3-0.5c0-0.8,0-1.6,0-2.4c0-0.8,0-1.6,0-2.5C181.8,54.2,181.8,54.2,181.8,54.1z"/>
			<path class="st5" d="M183.3,54.1c0-0.2-0.1-0.2-0.3-0.2c-0.1,0-0.2,0.1-0.3,0.2c0,0.1,0,0.2,0,0.3c0,1.6,0,3.2,0,4.8
				c0,0.3,0.1,0.5,0.3,0.5c0.2,0,0.3-0.2,0.3-0.5c0-0.8,0-1.6,0-2.4c0-0.8,0-1.6,0-2.5C183.3,54.2,183.3,54.2,183.3,54.1z"/>
			<path class="st5" d="M180.3,54.1c0-0.2-0.1-0.2-0.3-0.2c-0.1,0-0.2,0.1-0.3,0.2c0,0.1,0,0.2,0,0.3c0,1.6,0,3.2,0,4.8
				c0,0.3,0.1,0.5,0.3,0.5c0.2,0,0.3-0.2,0.3-0.5c0-0.8,0-1.6,0-2.4c0-0.8,0-1.6,0-2.5C180.3,54.2,180.3,54.2,180.3,54.1z"/>
			<path class="st5" d="M178.9,54.1c0-0.2-0.1-0.2-0.3-0.2c-0.1,0-0.2,0.1-0.3,0.2c0,0.1,0,0.2,0,0.3c0,1.6,0,3.2,0,4.8
				c0,0.3,0.1,0.5,0.3,0.5c0.2,0,0.3-0.2,0.3-0.5c0-0.8,0-1.6,0-2.4c0-0.8,0-1.6,0-2.5C178.9,54.2,178.9,54.2,178.9,54.1z"/>
			<path class="st5" d="M181.5,50.8c0.2,0,0.3,0,0.3,0.3c0,0.5,0.5,0.9,1,0.9c0.6,0,1-0.4,1.1-1c0.1-0.5-0.3-1-0.8-1.1
				c-0.2,0-0.4,0-0.6,0c-0.2,0-0.3,0-0.4-0.1c-0.7-0.9-2-1-2.8-0.1c0,0-0.1,0.1-0.1,0.1c-0.1,0.2-0.2,0.2-0.5,0.2
				c-0.5-0.1-1,0.1-1.2,0.6c0,0.1,0,0.1-0.1,0.2c0.2,0,0.4,0,0.6,0C179.4,50.8,180.4,50.8,181.5,50.8z"/>
			<path class="st5" d="M177,53.1c-0.3,0-0.6,0-0.9,0c-0.1,0-0.2,0-0.2,0.2c0,0.9,0,1.9,0,2.8c0,0.4,0.2,0.7,0.5,1
				c0.2,0.2,0.5,0.3,0.8,0.5c0-0.1,0-0.2,0-0.3c0-1.3,0-2.6,0-3.9C177.2,53.2,177.2,53.1,177,53.1z"/>
			<path d="M174.5,56.4c0.1,0.9,0.6,1.6,1.4,2.1c0.4,0.2,0.8,0.4,1.2,0.6c0.2,0.1,0.2,0.2,0.2,0.3c0,0.4,0,0.8,0,1.2
				c0,0.2,0,0.3,0.3,0.3c2.2,0,4.4,0,6.6,0c0.2,0,0.3-0.1,0.3-0.3c0-1.6,0-3.2,0-4.8c0,0,0,0,0,0c0-1.6,0-3.2,0-4.7
				c0-0.7-0.3-1.2-0.9-1.4c-0.2-0.1-0.5-0.1-0.7-0.1c-0.1,0-0.3,0-0.4-0.1c-0.9-0.9-2.3-0.9-3.2,0c-0.1,0.1-0.2,0.1-0.3,0.1
				c-0.8-0.1-1.6,0.5-1.6,1.5c0,0.1,0,0.3,0,0.4c0,0.2,0,0.2-0.2,0.2c-0.3,0-0.7,0-1,0c-0.9,0-1.5,0.6-1.5,1.5
				C174.5,54.2,174.4,55.3,174.5,56.4z M178.9,56.7c0,0.8,0,1.6,0,2.4c0,0.3-0.1,0.5-0.3,0.5c-0.2,0-0.3-0.1-0.3-0.5
				c0-1.6,0-3.2,0-4.8c0-0.1,0-0.2,0-0.3c0-0.1,0.1-0.2,0.3-0.2c0.2,0,0.3,0.1,0.3,0.2c0,0.1,0,0.1,0,0.2
				C178.9,55.1,178.9,55.9,178.9,56.7z M180.3,56.7c0,0.8,0,1.6,0,2.4c0,0.3-0.1,0.5-0.3,0.5c-0.2,0-0.3-0.1-0.3-0.5
				c0-1.6,0-3.2,0-4.8c0-0.1,0-0.2,0-0.3c0-0.1,0.1-0.2,0.3-0.2c0.2,0,0.3,0.1,0.3,0.2c0,0.1,0,0.1,0,0.2
				C180.3,55.1,180.3,55.9,180.3,56.7z M181.8,56.7c0,0.8,0,1.6,0,2.4c0,0.3-0.1,0.5-0.3,0.5c-0.2,0-0.3-0.1-0.3-0.5
				c0-1.6,0-3.2,0-4.8c0-0.1,0-0.2,0-0.3c0-0.1,0.1-0.2,0.3-0.2c0.2,0,0.3,0.1,0.3,0.2c0,0.1,0,0.1,0,0.2
				C181.8,55.1,181.8,55.9,181.8,56.7z M183.3,56.7c0,0.8,0,1.6,0,2.4c0,0.3-0.1,0.5-0.3,0.5c-0.2,0-0.3-0.1-0.3-0.5
				c0-1.6,0-3.2,0-4.8c0-0.1,0-0.2,0-0.3c0-0.1,0.1-0.2,0.3-0.2c0.2,0,0.3,0.1,0.3,0.2c0,0.1,0,0.1,0,0.2
				C183.3,55.1,183.3,55.9,183.3,56.7z M177.7,50.5c0.2-0.5,0.7-0.7,1.2-0.6c0.2,0.1,0.4,0,0.5-0.2c0,0,0.1-0.1,0.1-0.1
				c0.8-0.8,2.1-0.8,2.8,0.1c0.1,0.1,0.2,0.2,0.4,0.1c0.2,0,0.4,0,0.6,0c0.5,0.1,0.9,0.6,0.8,1.1c-0.1,0.6-0.5,1-1.1,1
				c-0.5,0-0.9-0.5-1-0.9c0-0.2-0.1-0.3-0.3-0.3c-1.1,0-2.2,0-3.3,0c-0.2,0-0.4,0-0.6,0C177.6,50.7,177.7,50.6,177.7,50.5z
				 M174.8,53.1c0-0.6,0.5-1,1.1-1.1c0.3,0,0.5,0,0.8,0c0.5,0,0.5,0,0.5,0.5c0,0.1-0.1,0.2-0.2,0.2c-0.3,0-0.7,0-1,0
				c-0.3,0-0.5,0.1-0.5,0.5c0,0.9,0,1.9,0,2.8c0,0.7,0.3,1.2,0.9,1.5c0.2,0.1,0.4,0.2,0.6,0.3c0.1,0,0.1,0.1,0.1,0.2
				c0,0.2,0,0.4,0,0.7c-0.4-0.2-0.8-0.4-1.1-0.6c-0.8-0.4-1.2-1.1-1.2-2C174.8,55.2,174.8,54.1,174.8,53.1z M177.2,53.4
				c0,1.3,0,2.6,0,3.9c0,0.1,0,0.1,0,0.3c-0.3-0.2-0.6-0.3-0.8-0.5c-0.3-0.2-0.5-0.6-0.5-1c0-0.9,0-1.9,0-2.8c0-0.1,0-0.2,0.2-0.2
				c0.3,0,0.6,0,0.9,0C177.2,53.1,177.2,53.2,177.2,53.4z"/>
			<path d="M176.1,58.2c0.4,0.2,0.7,0.4,1.1,0.6c0-0.3,0-0.5,0-0.7c0-0.1-0.1-0.1-0.1-0.2c-0.2-0.1-0.4-0.2-0.6-0.3
				c-0.6-0.3-0.9-0.8-0.9-1.5c0-0.9,0-1.9,0-2.8c0-0.3,0.1-0.5,0.5-0.5c0.3,0,0.7,0,1,0c0.1,0,0.2,0,0.2-0.2c0-0.5,0-0.5-0.5-0.5
				c-0.3,0-0.5,0-0.8,0c-0.6,0-1.1,0.4-1.1,1.1c0,1,0,2.1,0,3.1C174.9,57.1,175.3,57.7,176.1,58.2z"/>
		</g>
		<g>
			<path class="st5" d="M263.3,109.6c4.7,0,8.5-3.8,8.5-8.5c0-4.7-3.8-8.5-8.5-8.5c-4.7,0-8.5,3.8-8.5,8.5
				C254.8,105.8,258.6,109.6,263.3,109.6z M259.8,94.3v-0.6h0.6V94c0.9-0.3,1.8-0.5,2.8-0.5c0.9,0,1.8,0.2,2.6,0.5v-0.2h0.6v0.5
				c2.6,1.2,4.4,3.9,4.4,6.9c0,3.1-1.8,5.7-4.4,6.9v0.6h-0.6v-0.3c-0.8,0.3-1.7,0.5-2.6,0.5c-1,0-2-0.2-2.8-0.5v0.4h-0.6v-0.7
				c-2.5-1.3-4.2-3.8-4.2-6.8C255.6,98.1,257.3,95.5,259.8,94.3z"/>
			<path d="M253.2,101.1c0,5.6,4.5,10.1,10.1,10.1c5.6,0,10.1-4.5,10.1-10.1c0-5.6-4.5-10.1-10.1-10.1
				C257.7,91,253.2,95.5,253.2,101.1z M263.3,92.6c4.7,0,8.5,3.8,8.5,8.5c0,4.7-3.8,8.5-8.5,8.5c-4.7,0-8.5-3.8-8.5-8.5
				C254.8,96.4,258.6,92.6,263.3,92.6z"/>
			<path d="M263.3,108.8c0.9,0,1.8-0.2,2.6-0.5V93.9c-0.8-0.3-1.7-0.5-2.6-0.5c-1,0-2,0.2-2.8,0.5v14.3
				C261.3,108.6,262.3,108.8,263.3,108.8z M263.2,95.8c0.8,0,1.5,0.7,1.5,1.5c0,0.8-0.7,1.5-1.5,1.5c-0.8,0-1.5-0.7-1.5-1.5
				C261.6,96.5,262.3,95.8,263.2,95.8z"/>
			<path d="M259.8,107.9V94.3c-2.5,1.3-4.2,3.8-4.2,6.8C255.6,104.1,257.3,106.7,259.8,107.9z"/>
			<path d="M271,101.1c0-3.1-1.8-5.7-4.4-6.9V108C269.1,106.8,271,104.2,271,101.1z"/>
			<path d="M271,89.1c-1.2,0-2.3,0-3.4,0c-0.2,0.6-0.4,1.2-0.5,1.8c1.1,0.4,2.2,0.9,3.2,1.8C270.6,91.5,270.8,90.3,271,89.1z"/>
			<path d="M259.5,90.9c-0.2-0.6-0.4-1.2-0.5-1.8c-1.1,0-2.2,0-3.3,0c0.2,1.2,0.5,2.4,0.7,3.6C257.4,91.9,258.4,91.3,259.5,90.9z"/>
		</g>
		<g>
			<g>
				<path class="st6" d="M199.9,97.3c-2.1,0-4.2,0-6.3,0c-2.1,0-4.2,0-6.3,0c2.1,0,4.2,0,6.3,0C195.6,97.3,197.8,97.3,199.9,97.3z"
					/>
				<path class="st6" d="M200.2,96.5c-2.2,0-4.4,0-6.7,0c-2.2,0-4.4,0-6.7,0c2.2,0,4.4,0,6.7,0C195.8,96.5,198,96.5,200.2,96.5z"/>
				<path class="st7" d="M199.1,128.9c0-0.1-0.1-0.2-0.2-0.1c-0.9,0.7-1.8,1.4-2.6,2.1c-1.5,1.2-3,2.4-4.5,3.6
					c-0.4,0.3-0.7,0.6-1.1,0.8c0,0-0.1,0.1-0.1,0.1c0.4,0.2,0.8,0.5,1.3,0.6c0.5,0.1,1,0,1.4-0.3c1.4-1.1,2.8-2.2,4.2-3.3
					c0.4-0.3,0.8-0.6,1.1-0.9c0.6-0.5,0.9-1.2,0.7-2C199.2,129.3,199.2,129.1,199.1,128.9z"/>
				<path class="st7" d="M198.3,135.6c-0.5,0.4-0.9,0.7-1.4,1.1c-0.1,0.1-0.1,0.1,0,0.2c0.2,0.1,0.3,0.3,0.5,0.4
					c0.3,0.2,0.5,0.2,0.8,0c0.1-0.1,0.2-0.2,0.3-0.3c0.2-0.1,0.3-0.3,0.3-0.7c0-0.1-0.1-0.4-0.2-0.6
					C198.5,135.4,198.5,135.4,198.3,135.6z"/>
				<path class="st7" d="M198.8,132.2c0-0.2-0.1-0.2-0.2-0.1c-0.8,0.7-1.7,1.3-2.5,2c-0.8,0.6-1.6,1.2-2.4,1.9c0,0-0.1,0.1-0.1,0.1
					c0.8,0.6,1.6,1,2.7,0.4c0.4-0.2,0.7-0.5,1-0.8c0.3-0.2,0.6-0.4,0.8-0.7c0.7-0.6,1-1.5,0.8-2.4
					C198.9,132.5,198.9,132.4,198.8,132.2z"/>
				<path class="st7" d="M201.8,122.4c0-0.5,0-0.9,0-1.4c0,0,0,0,0,0c0-0.5,0-0.9,0-1.4c0-0.2,0-0.2-0.1-0.2c-0.2,0-0.4,0-0.6,0
					c-0.1,0-0.1,0.1-0.1,0.2c0,0.9,0,1.9-0.1,2.8c0,0.2,0,0.2,0.1,0.2c0.2,0,0.5,0,0.7,0C201.8,122.7,201.8,122.6,201.8,122.4z"/>
				<path class="st7" d="M199.3,100.9c-3.8,0-7.6,0-11.4,0c-0.2,0-0.2,0-0.2,0.3c0,3.1,0.1,6.1,0.1,9.2c0,2.9,0.1,5.8,0.1,8.6
					c0,0.8,0,1.6,0,2.4c0,0.2,0,0.2,0.2,0.2c0.3-0.1,0.6,0,0.9,0.3c0.1,0.1,0.1,0,0.2,0c0.5-0.8,1.1-1.1,1.8-0.9
					c0.4,0.1,0.7,0.3,1,0.7c0.1,0.1,0.2,0.1,0.3,0.1c0.4-0.2,0.8-0.2,1.3,0.1c0.3,0.2,0.5,0,0.5-0.5c0-0.6,0-1.3,0-1.9
					c0-0.6,0.3-1.1,0.7-1.2c0.4-0.1,0.8,0.1,1,0.7c0.1,0.2,0.1,0.4,0.1,0.6c0,0.4,0,0.8,0,1.2c0,0.1,0,0.2,0,0.2
					c0.2-0.1,0.4-0.2,0.6-0.2c0.6-0.1,1.1,0.2,1.6,0.8c0.1,0.1,0.2,0.1,0.2,0.2c0.3,0.1,0.6,0.2,0.9,0.5c0,0,0.1,0.1,0.1,0.1
					c0-0.1,0-0.2,0-0.3c0-1.6,0.1-3.2,0.1-4.7c0.1-3.8,0.1-7.6,0.2-11.4c0-1.6,0.1-3.1,0.1-4.7C199.5,100.9,199.5,100.9,199.3,100.9
					z"/>
				<path class="st8" d="M188.2,121.4c-0.1,0-0.3,0-0.4,0.1c-0.4,0.4-0.5,1.3,0,1.7c0.2,0.2,0.2,0.3,0.2,0.6
					c-0.1,1.1,0.5,2.1,1.3,2.2c0.3,0,0.5,0,0.7-0.2c0.2-0.1,0.3-0.1,0.4,0.2c0.2,1,1,1.1,1.4,0.4c0.1-0.3,0.3-0.3,0.5,0
					c0.2,0.3,0.5,0.4,0.8,0.2c0.1-0.1,0.1-0.1,0.1-0.3c0-0.2,0-0.5,0-0.7c0-0.2,0.1-0.3,0.3-0.3c0.1,0,0.2,0.2,0.2,0.4
					c0,1,0.4,1.7,1,2c0.6,0.3,1.2-0.1,1.6-0.8c0.1-0.1,0.1-0.3,0.2-0.3c0.1,0,0.2,0,0.3,0c0.5,0.3,1-0.1,1.2-0.7
					c0-0.2,0-0.2-0.1-0.3c-0.2-0.1-0.4-0.2-0.5-0.4c0-0.1-0.1-0.3,0-0.4c0-0.1,0.1-0.2,0.2-0.2c0.1,0,0.1,0,0.2,0.1
					c0.2,0.3,0.4,0.3,0.6,0.2c0.6-0.3,0.9-1.2,0.8-2c-0.1-0.6-0.4-1.1-0.8-1.3"/>
				<path class="st7" d="M187.2,100.1c4.2,0,8.4,0,12.6,0c0.1,0,0.2-0.1,0.2-0.3c0-0.7,0-1.5,0-2.2c0-0.3,0-0.3-0.2-0.3
					c-2.1,0-4.2,0-6.3,0c-2.1,0-4.2,0-6.3,0c-0.2,0-0.2,0-0.2,0.3c0,0.7,0,1.5,0,2.2C187,100.1,187,100.1,187.2,100.1z"/>
				<path class="st7" d="M199.9,104.4c0,0.5,0,1,0,1.5c0,0.2,0.1,0.2,0.2,0.3c0.4,0.3,0.8,0.5,1.2,0.8c0.7,0.6,1.2,1.5,1.4,2.7
					c0.3,1.9,0.4,3.9,0.3,5.9c-0.1,1.1-0.2,2.1-0.6,3.1c0,0.1,0,0.2,0,0.3c0,0.1,0,0.2,0,0.4c0,0.6,0,1.1,0,1.7c0,0.1,0,0.2,0,0.3
					c0.1-0.1,0.1-0.1,0.1-0.2c0.5-0.6,0.9-1.5,1.1-2.4c0.4-1.7,0.5-3.5,0.4-5.3c0-1-0.1-2.1-0.2-3.1c-0.3-1.7-0.7-3.3-1.6-4.6
					c-0.4-0.6-0.9-0.9-1.4-1.2c-0.2-0.1-0.4-0.2-0.6-0.3C200,104.2,199.9,104.2,199.9,104.4z"/>
				<path class="st7" d="M203.1,127.9c-0.5-0.1-0.9,0-1.4,0.1c-0.1,0-0.1,0.2-0.1,0.3c0.1,0.4,0.4,0.7,0.7,0.9
					c0.2,0.1,0.5,0.2,0.7,0.2c0.3,0.1,0.6,0.2,0.8,0.5c0,0,0,0,0.1,0c0,0,0,0,0,0C204.1,129,203.8,128.1,203.1,127.9z"/>
				<path class="st6" d="M199.3,100.9c-3.8,0-7.6,0-11.4,0c-0.2,0-0.2,0-0.2,0.3c0,3.1,0.1,6.1,0.1,9.2c0,2.9,0.1,5.8,0.1,8.6
					c0,0.8,0,1.6,0,2.4c0,0.2,0,0.2,0.2,0.2c0.3-0.1,0.6,0,0.9,0.3c0.1,0.1,0.1,0,0.2,0c0.5-0.8,1.1-1.1,1.8-0.9
					c0.4,0.1,0.7,0.3,1,0.7c0.1,0.1,0.2,0.1,0.3,0.1c0.4-0.2,0.8-0.2,1.3,0.1c0.3,0.2,0.5,0,0.5-0.5c0-0.6,0-1.3,0-1.9
					c0-0.6,0.3-1.1,0.7-1.2c0.4-0.1,0.8,0.1,1,0.7c0.1,0.2,0.1,0.4,0.1,0.6c0,0.4,0,0.8,0,1.2c0,0.1,0,0.2,0,0.2
					c0.2-0.1,0.4-0.2,0.6-0.2c0.6-0.1,1.1,0.2,1.6,0.8c0.1,0.1,0.2,0.1,0.2,0.2c0.3,0.1,0.6,0.2,0.9,0.5c0,0,0.1,0.1,0.1,0.1
					c0-0.1,0-0.2,0-0.3c0-1.6,0.1-3.2,0.1-4.7c0.1-3.8,0.1-7.6,0.2-11.4c0-1.6,0.1-3.1,0.1-4.7C199.5,100.9,199.5,100.9,199.3,100.9
					z M198.4,114.4c0,0.3-0.1,0.5-0.3,0.5c-0.2,0-0.5,0-0.7,0c-0.1,0-0.2,0.1-0.3,0.2c-0.1,0.2-0.2,0.4-0.3,0.6
					c-1.1,1.9-2.5,2.6-4.2,2.1c-1.2-0.3-2.1-1.3-2.7-2.8c-0.1-0.1-0.1-0.2-0.2-0.2c-0.3,0-0.5,0-0.8,0c-0.2,0-0.3-0.1-0.3-0.5
					c0-1.4,0-2.7,0-4.1c0-0.3,0.1-0.4,0.3-0.5c0.2,0,0.5,0,0.7,0c0.1,0,0.2-0.1,0.3-0.2c0.2-0.5,0.4-0.9,0.7-1.3
					c0.9-1.1,1.9-1.6,3-1.5c1.5,0.1,2.6,1,3.4,2.9c0.1,0.1,0.1,0.2,0.2,0.2c0.3,0,0.5,0,0.8,0c0.2,0,0.3,0.1,0.3,0.5
					c0,0.7,0,1.4,0,2C198.4,113,198.4,113.7,198.4,114.4z"/>
				<path class="st6" d="M187.2,100.1c4.2,0,8.4,0,12.6,0c0.1,0,0.2-0.1,0.2-0.3c0-0.7,0-1.5,0-2.2c0-0.3,0-0.3-0.2-0.3
					c-2.1,0-4.2,0-6.3,0c-2.1,0-4.2,0-6.3,0c-0.2,0-0.2,0-0.2,0.3c0,0.7,0,1.5,0,2.2C187,100.1,187,100.1,187.2,100.1z"/>
				<path class="st9" d="M199.1,128.9c0-0.1-0.1-0.2-0.2-0.1c-0.9,0.7-1.8,1.4-2.6,2.1c-1.5,1.2-3,2.4-4.5,3.6
					c-0.4,0.3-0.7,0.6-1.1,0.8c0,0-0.1,0.1-0.1,0.1c0.4,0.2,0.8,0.5,1.3,0.6c0.5,0.1,1,0,1.4-0.3c1.4-1.1,2.8-2.2,4.2-3.3
					c0.4-0.3,0.8-0.6,1.1-0.9c0.6-0.5,0.9-1.2,0.7-2C199.2,129.3,199.2,129.1,199.1,128.9z"/>
				<path class="st6" d="M199.9,105.9c0,0.2,0.1,0.2,0.2,0.3c0.4,0.3,0.8,0.5,1.2,0.8c0.7,0.6,1.2,1.5,1.4,2.7
					c0.3,1.9,0.4,3.9,0.3,5.9c-0.1,1.1-0.2,2.1-0.6,3.1c0,0.1,0,0.2,0,0.3c0,0.1,0,0.2,0,0.4c0,0.6,0,1.1,0,1.7c0,0.1,0,0.2,0,0.3
					c0.1-0.1,0.1-0.1,0.1-0.2c0.5-0.6,0.9-1.5,1.1-2.4c0.4-1.7,0.5-3.5,0.4-5.3c0-1-0.1-2.1-0.2-3.1c-0.3-1.7-0.7-3.3-1.6-4.6
					c-0.4-0.6-0.9-0.9-1.4-1.2c-0.2-0.1-0.4-0.2-0.6-0.3c-0.1-0.1-0.2,0-0.2,0.2C199.9,104.9,199.9,105.4,199.9,105.9z"/>
				<path class="st9" d="M198.8,132.2c0-0.2-0.1-0.2-0.2-0.1c-0.8,0.7-1.7,1.3-2.5,2c-0.8,0.6-1.6,1.2-2.4,1.9c0,0-0.1,0.1-0.1,0.1
					c0.8,0.6,1.6,1,2.7,0.4c0.4-0.2,0.7-0.5,1-0.8c0.3-0.2,0.6-0.4,0.8-0.7c0.7-0.6,1-1.5,0.8-2.4
					C198.9,132.5,198.9,132.4,198.8,132.2z"/>
				<path class="st9" d="M198.3,135.6c-0.5,0.4-0.9,0.7-1.4,1.1c-0.1,0.1-0.1,0.1,0,0.2c0.2,0.1,0.3,0.3,0.5,0.4
					c0.3,0.2,0.5,0.2,0.8,0c0.1-0.1,0.2-0.2,0.3-0.3c0.2-0.1,0.3-0.3,0.3-0.7c0-0.1-0.1-0.4-0.2-0.6
					C198.5,135.4,198.5,135.4,198.3,135.6z"/>
				<path class="st6" d="M201.8,121c0-0.5,0-0.9,0-1.4c0-0.2,0-0.2-0.1-0.2c-0.2,0-0.4,0-0.6,0c-0.1,0-0.1,0.1-0.1,0.2
					c0,0.9,0,1.9-0.1,2.8c0,0.2,0,0.2,0.1,0.2c0.2,0,0.5,0,0.7,0c0.1,0,0.1-0.1,0.1-0.2C201.8,122,201.8,121.5,201.8,121
					C201.8,121,201.8,121,201.8,121z"/>
				<path class="st6" d="M202.3,129.1c0.2,0.1,0.5,0.2,0.7,0.2c0.3,0.1,0.6,0.2,0.8,0.5c0,0,0,0,0.1,0c0,0,0,0,0,0
					c0.1-0.9-0.1-1.8-0.8-2c-0.5-0.1-0.9,0-1.4,0.1c-0.1,0-0.1,0.2-0.1,0.3C201.8,128.7,202,129,202.3,129.1z"/>
				<path class="st6" d="M200.3,120.4c-0.2,0-0.3-0.1-0.5-0.1c0,0-0.1,0.1-0.1,0.1c0,0.5,0,1,0,1.5c0,0.1,0.1,0.1,0.1,0.2
					c0.1,0,0.3,0.1,0.4,0.1c0.1,0,0.2,0,0.2-0.2c0-0.2,0-0.5,0-0.7c0,0,0,0,0,0c0-0.2,0-0.4,0-0.7
					C200.4,120.4,200.3,120.4,200.3,120.4z"/>
				<path class="st6" d="M198.4,110.3c0-0.3-0.1-0.5-0.3-0.5c-0.3,0-0.5,0-0.8,0c-0.1,0-0.1,0-0.2-0.2c-0.8-1.9-1.9-2.8-3.4-2.9
					c-1.1-0.1-2.2,0.4-3,1.5c-0.3,0.4-0.5,0.8-0.7,1.3c-0.1,0.2-0.1,0.2-0.3,0.2c-0.2,0-0.5,0-0.7,0c-0.2,0-0.3,0.1-0.3,0.5
					c0,1.4,0,2.7,0,4.1c0,0.3,0.1,0.5,0.3,0.5c0.3,0,0.5,0,0.8,0c0.1,0,0.2,0,0.2,0.2c0.6,1.5,1.5,2.4,2.7,2.8
					c1.7,0.5,3.1-0.2,4.2-2.1c0.1-0.2,0.2-0.4,0.3-0.6c0.1-0.2,0.1-0.2,0.3-0.2c0.2,0,0.5,0,0.7,0c0.2,0,0.3-0.1,0.3-0.5
					c0-0.7,0-1.4,0-2.1C198.4,111.6,198.4,111,198.4,110.3z M197.9,113.9c0,0.2,0,0.2-0.2,0.2c-0.2,0-0.4,0-0.6,0
					c-0.2,0-0.3,0.1-0.4,0.3c-0.8,2.3-2.7,3.2-4.3,2.5c-0.9-0.4-1.7-1.3-2.1-2.6c-0.1-0.2-0.2-0.2-0.3-0.2c-0.2,0-0.4,0-0.7,0
					c-0.1,0-0.2-0.1-0.2-0.3c0-1,0-2,0-3c0-0.2,0.1-0.3,0.2-0.3c0.2,0,0.4,0,0.6,0c0.2,0,0.3-0.1,0.3-0.3c0-0.1,0.1-0.3,0.2-0.4
					c0.7-1.5,1.7-2.3,2.9-2.3c1.5-0.1,2.7,0.8,3.4,2.8c0.1,0.2,0.2,0.3,0.3,0.3c0.2,0,0.4,0,0.6,0c0.1,0,0.2,0.1,0.2,0.3
					c0,0.5,0,1,0,1.5C197.9,112.8,197.9,113.3,197.9,113.9z"/>
				<path class="st6" d="M198.4,112.3c0,0.7,0,1.4,0,2.1C198.4,113.7,198.4,113,198.4,112.3c0-0.7,0-1.4,0-2
					C198.4,111,198.4,111.6,198.4,112.3z"/>
				<path class="st6" d="M197.9,110.8c0-0.2,0-0.3-0.2-0.3c-0.2,0-0.4,0-0.6,0c-0.1,0-0.2-0.1-0.3-0.3c-0.8-2-1.9-2.8-3.4-2.8
					c-1.2,0.1-2.2,0.8-2.9,2.3c-0.1,0.1-0.1,0.3-0.2,0.4c-0.1,0.2-0.2,0.3-0.3,0.3c-0.2,0-0.4,0-0.6,0c-0.1,0-0.2,0.1-0.2,0.3
					c0,1,0,2,0,3c0,0.2,0,0.3,0.2,0.3c0.2,0,0.4,0,0.7,0c0.1,0,0.2,0.1,0.3,0.2c0.5,1.3,1.2,2.2,2.1,2.6c1.6,0.7,3.5-0.2,4.3-2.5
					c0.1-0.2,0.2-0.3,0.4-0.3c0.2,0,0.4,0,0.6,0c0.1,0,0.2-0.1,0.2-0.2c0-0.5,0-1,0-1.5C197.9,111.8,197.9,111.3,197.9,110.8z"/>
				<path class="st6" d="M197.9,112.3c0,0.5,0,1,0,1.5C197.9,113.3,197.9,112.8,197.9,112.3c0-0.5,0-1,0-1.5
					C197.9,111.3,197.9,111.8,197.9,112.3z"/>
			</g>
			<path d="M200,130.5c0,0,0.4-0.7,1.6-2.2c0.3-0.4,0.4-0.8,0.5-1.4c0.3-1.8-0.4-3.4-0.4-3.4l-1.2-0.2c0,0,1,3.3,0.4,4.1
				c-0.6,0.7-0.7,1-0.7,1L200,130.5z"/>
		</g>
		<g>
			<path d="M153.7,13.9c-0.2,1.1,0.9,2.2-0.3,2.7c-0.9,0.4-1.2-0.5-1.6-1.2c-0.3,0.5-0.1,0.7,0,1.1c0.2,0.4,0.7,1-0.2,1.3
				c-0.9,0.3-1.7,0.1-2-0.6c-0.1-0.3-0.1-0.6-0.1-0.8c0-1,0-1.9-0.1-2.9c-0.1-1.2-0.1-2.3,1-3.1c0.2-0.2,0.3-0.5,0.4-0.7
				c0.1-0.2,0.1-0.5,0.2-0.7c0.3-0.6,0.8-1.3,1.3-1.2c0.7,0.1,0.2,1,0.4,1.6c2.5-1,4.6,0.2,6.5,1.7c0.5,0.4,0.8,0.6,1.1-0.1
				c0.2-0.3,0.5-0.5,0.8-0.7c2.4-1.4,4.6-3.2,7.2-4.2c0.3-0.1,0.5-0.3,0.6-0.6c0.3-0.9,0.8-1.4,1.8-1.3c1,0.1,1.5,0.7,1.7,1.6
				c0.3,1.5,0.8,2.9,1.5,4.2c0.2,0.4,0.5,0.8,0.7,1.2c0.7,1,0.8,1.5-0.3,2c-0.8,0.4-0.7,0.8-0.3,1.4c0.3,0.4,0.5,0.9,0.7,1.3
				c0.6,1.1,0.2,2-0.9,2.5c-0.3,0.1-0.4,0-0.5-0.2c-0.1-0.3-0.2-0.6-0.3-0.9c-0.4,0-0.5,0.5-1,0.4c0.6-1.2-0.5-2.1-0.8-3.1
				c-0.2-0.7-1.1-0.4-1.6-0.1c-0.6,0.3-1,0.7-0.6,1.5c1.3,2.4,2.2,4.9,2.6,7.5c0.6,3.6,1.2,7.2,1,10.9c0,1-0.5,2.1-0.4,3.1
				c0.3,1.7-0.1,3-1.1,4.3c-0.6,0.8-0.3,1.9-1.1,2.6c-0.2,0.1-0.1,0.5,0.2,0.7c0.7,0.6,0.7,1.3,0.4,2.1c-0.3,0.9-0.8,1.8-0.1,2.8
				c0.2,0.3,0.1,1-0.1,1.4c-0.3,0.6,0,0.9,0.6,1c0.6,0.1,1,0.5,1.3,1c0.3,0.6,0.5,1.2,0.3,1.8c-0.2,0.6-0.9,0.2-1.4,0.2
				c-5.2,0-10.5,0-15.7,0c-1.5,0-1.7-0.4-1.1-1.8c0.2-0.6,0.6-1.1,1.2-1.2c0.9-0.1,1-0.5,0.8-1.3c-0.2-0.6-0.2-1.2,0.2-1.7
				c0.5-0.5,0.1-1.1-0.1-1.6c-0.3-1-0.9-2,0.3-2.9c0.1,0,0.1-0.2,0.1-0.3c-0.8-2.4-0.5-5-1-7.5c-0.5-2.2-0.5-4.2,0-6.4
				c0.4-1.8,0.3-3.8,0.8-5.6c0.1-0.2,0-0.4,0-0.6c-0.7-1.4-0.7-2.8,0.2-4.2c0.1-0.2,0.1-0.5,0-0.6C156,17.8,154.9,16,153.7,13.9z
				 M159.5,44.6c0.9,0,1.4,0,2,0c0.5,0,0.7-0.2,0.8-0.7c0.6-1.7,0.3-3.6,1-5.3c0.3-0.7,0.3-1.5,0.2-2.2c-0.2-1.1-0.2-2.2-0.2-3.3
				c0-2.3-1.3-3.7-2.9-5.1c-0.5-0.4-0.7-0.2-0.9,0.3c-0.3,0.9-0.6,1.8-0.9,2.7c-1.1,3.9-1.1,7.6,0.9,11.2
				C160,43.1,160.1,43.8,159.5,44.6z M169.7,36.6c-1.1,0.9-1.7,1.9-2,3.2c-0.4,1.6,0.2,3.3-0.5,4.8c0.5,0,0.5-0.3,0.5-0.5
				c0.2-1.1,0.7-2.2,1.4-3C170.2,39.6,170.2,38.2,169.7,36.6z M172.3,32.3c-0.1,0.3-0.1,0.4-0.2,0.6c-0.2,0.4-0.1,1.1-0.6,1.1
				c-0.6,0.1-0.8-0.6-1-1.1c-0.1-0.1-0.1-0.3-0.2-0.4c-0.5-1,0.1-1.8,0.4-2.6c0.7-2-0.4-3.9-0.1-5.9c0.1-0.6-1-1-1.4-1.6
				c-0.2-0.4-0.4-0.7-0.5-1.1c-0.3-0.8-0.6-1.5-1.1-2.1c-0.7-1-1.6-1.9-2.2-3.1c-0.3-0.6-0.9-1.1-1.8-1c0.8,0.3,1.4,0.7,1.7,1.4
				c0.3,0.5,0.5,1.1,0.9,1.5c1.1,1.1,1.6,2.7,2.5,4c0.8,1.4,1.9,2.6,1.7,4.3c0,0,0,0.1,0,0.1c0.6,3-0.2,4.9-2.6,6.6c0,0,0,0.1,0,0.2
				c0.4,0.1,0.6-0.5,1.1-0.3c0,0.5,0,1,0.1,1.5c0.1,0.4,0.1,0.9,0.6,1.4c-0.5-3.2-0.5-3.2,0.2-3.8c0.1,0.4,0.2,0.8,0.4,1.1
				c0.3,0.6,0.5,1.4,1.3,1.3c0.7-0.1,0.8-1,0.9-1.6C172.4,32.6,172.3,32.5,172.3,32.3z M164.9,42.8c1.3-1.7,1.9-8.2,1.2-9.3
				C165.2,36.3,164.6,39.4,164.9,42.8z M163.3,10c0.2,0.5,0.6,0.4,0.9,0.4c1.8-0.4,3.2,0.1,4.4,1.5c0.7,0.8,1.7,0.9,2.6,0.4
				c1.1-0.6,2.1-1.1,3.3-0.6c-1-0.7-1.9-0.6-2.8,0c-1.6,0.9-2.1,0.8-3.4-0.5c-0.9-0.9-1.9-1.3-3.1-1.2
				C164.5,9.9,163.9,10.2,163.3,10z M162.9,49.4c0.7,0.2,1.2,0.2,1.7,0.1c0.2,0,0.4,0.1,0.5-0.2c0.1-0.3,0-0.5-0.2-0.7
				c-0.5-0.5-1.2-0.7-1.9-0.5c-0.8,0.2-1,0.8-1,1.5c0,0.4,0.3,0.8-0.1,1.1c-0.4,0.4-0.4,0.7,0,1c0.4,0.3,0.9,0.6,1.7,0.1
				c-0.5-0.1-0.9-0.1-1.2-0.2c-0.3-0.1-0.7-0.4-0.3-0.6c0.5-0.3,0.3-0.6,0.2-1c-0.2-0.7,0-1.3,0.6-1.6c0.7-0.2,1.4-0.2,1.8,0.5
				C164.2,49.5,163.5,48.9,162.9,49.4z M166.6,24.4c0.5,1,0.2,1.9-0.2,2.8c-0.6,1.5-0.9,3.1-0.6,4.7c0-1.9,0.5-3.7,1.2-5.5
				C167.2,25.7,167.3,25,166.6,24.4z M162.8,13.9c0.2-0.7,0.3-1.4,0.5-2.1c-0.6,0.3-1.5,0.4-1.6,0.8c-0.2,0.6,0.7,0.9,1,1.3
				C162.7,13.9,162.8,13.9,162.8,13.9z M172.6,7.3c-1.5,0.5-3,2-3.7-0.6c0.1,0.7,0,1.5,0.7,1.7C170.7,8.6,171.6,8.3,172.6,7.3z
				 M150.4,16.9c0-0.2,0-0.5,0-0.7c0.1-0.9,0.6-1.4,1.4-1.7c0.7-0.2,0.5,0.7,0.9,0.9c0.1,0,0.1,0.2,0.3,0c-0.1-0.4-0.5-0.7-0.5-1.2
				c0-0.2-0.2-0.2-0.4-0.2C150.9,14.1,149.9,15.7,150.4,16.9z M163,25.5c-0.3,1.4,0.1,4.1,0.7,5.1C163.4,28.7,163.1,27.1,163,25.5z
				 M164,52.1c0.7-0.2,1.2-0.3,1.7-0.5c0.4-0.1,0.9-0.2,0.7-0.8c-0.2-0.6-0.7-0.4-1.3-0.4c0.4,0.3,0.9,0.1,0.9,0.5
				c0,0.5-0.6,0.2-0.8,0.4C164.9,51.5,164.4,51.4,164,52.1z M170.1,7.1c0.1,0.3,0.4,0.5,0.7,0.4c0.3-0.1,0.4-0.3,0.3-0.6
				c-0.2-0.7,0.5-0.6,0.8-1c-0.7,0.1-1.1-0.4-1.7-0.6c0.5,0.4,0.8,0.9,0.6,1.6C170.7,7.5,170.3,6.8,170.1,7.1z M151.3,10.9
				c-0.3,0.1-0.5,0.2-0.7,0.3c-0.3,0.1-0.4,0.4-0.4,0.7c0,0.1,0,0.3,0.2,0.3c0.3,0,0.5-0.3,0.6-0.5
				C151.2,11.5,151.4,11.3,151.3,10.9z"/>
			<path d="M163.7,65.4c-3.4,0-6.8,0-10.2,0c-0.7,0-1-0.2-0.9-1c0.1-1.3,0-2.5,0-3.8c0-0.6,0.2-0.8,0.8-0.8c7,0,14,0,21,0
				c0.6,0,0.7,0.2,0.7,0.7c0,1.3,0,2.7,0,4c0,0.7-0.3,0.8-0.9,0.8C170.7,65.4,167.2,65.4,163.7,65.4
				C163.7,65.4,163.7,65.4,163.7,65.4z"/>
			<path d="M163.8,55.6c2.8,0,5.6,0,8.3,0c1,0,1.2,0.3,1.1,1.2c-0.1,0.7-0.1,1.3,0,2c0,0.6-0.2,0.7-0.7,0.7c-5.8,0-11.6,0-17.4,0
				c-0.6,0-0.7-0.3-0.8-0.8c-0.1-3.1-0.1-3.1,2.9-3.1C159.5,55.6,161.7,55.6,163.8,55.6z"/>
		</g>
		<path d="M136.1,98.3h-22.4c-0.5,0-0.9-0.4-0.9-0.9v-4c0-0.5,0.4-0.9,0.9-0.9h22.4c0.5,0,0.9,0.4,0.9,0.9v4
			C137,97.8,136.6,98.3,136.1,98.3z"/>
		<path d="M136.1,104.5h-22.4c-0.5,0-0.9-0.4-0.9-0.9v-4c0-0.5,0.4-0.9,0.9-0.9h22.4c0.5,0,0.9,0.4,0.9,0.9v4
			C137,104.1,136.6,104.5,136.1,104.5z"/>
	</g>
	<g>
		<path d="M370.2,81.4c0.4,0.2,0.1,0.6-0.5,0.6c-1.2,0-2.3,0.1-3.1-0.1c-1.4-0.3-1.8-1-2.4-1.5c-0.3-0.2,0-0.5,0.5-0.6
			C368.2,79.7,368.7,80.5,370.2,81.4z"/>
		<path d="M372.6,78.1c0.4-0.2,0.1-0.6-0.5-0.6c-1.2,0-2.3-0.1-3.1,0.1c-1.4,0.3-1.8,1-2.4,1.6c-0.3,0.2,0,0.5,0.5,0.6
			C370.6,79.7,371.1,78.9,372.6,78.1z"/>
		<path d="M375.6,81.4c0.4,0.2,0.1,0.6-0.5,0.6c-1.2,0-2.3,0.1-3.1-0.1c-1.4-0.3-1.8-1-2.4-1.5c-0.3-0.2,0-0.5,0.5-0.6
			C373.7,79.7,374.2,80.5,375.6,81.4z"/>
		<path d="M378,78c0.4-0.2,0.1-0.6-0.5-0.6c-1.2,0-2.3-0.1-3.1,0.1c-1.4,0.3-1.8,1-2.4,1.6c-0.3,0.2,0,0.5,0.5,0.6
			C376.1,79.7,376.6,78.9,378,78z"/>
		<path d="M381.1,81.4c0.4,0.2,0.1,0.6-0.5,0.6c-1.2,0-2.3,0.1-3.1-0.1c-1.4-0.3-1.8-1-2.4-1.5c-0.3-0.2,0-0.5,0.5-0.6
			C379.1,79.7,379.6,80.5,381.1,81.4z"/>
		<path d="M383.5,78c0.4-0.2,0.1-0.6-0.5-0.6c-1.2,0-2.3-0.1-3.1,0.1c-1.4,0.3-1.8,1-2.4,1.6c-0.3,0.2,0,0.5,0.5,0.6
			C381.6,79.7,382,78.9,383.5,78z"/>
		<path d="M366.3,78.5c-0.6,0.6-1,1-2.7,1.2c-0.4,0-0.7,0.3-0.5,0.5c0.2,0.2,0.4,0.5,0.7,0.8c0.3,0.3-0.1,0.6-0.6,0.5
			c-0.5,0-1,0-1.6-0.1c-1.3-0.3-1.6-1-2.3-1.5c-0.1-0.1-0.3-0.1-0.5-0.1l1.1,0.2c-0.6,0-0.9-0.4-0.5-0.6l0,0
			c0.1-0.1,0.3-0.1,0.5-0.1l0.8,0.1c0.3,0,0.6-0.1,0.6-0.3c0.2-0.5,0.7-0.8,1.9-1.1c0.7-0.2,1.5,0,2.4,0
			C366.3,77.9,366.6,78.2,366.3,78.5z"/>
		<path d="M392.3,76.9c2.6-0.2,5.1-0.2,7.7-0.2c0.1,0,0.1,0.1,0,0.1c-2.4,0-4.9,0.1-7.4,0.3c-0.9,0.1-1.7,0.2-2.6,0.3
			c-0.1,0-0.2,0-0.3,0.1c-2.2,1.1-2.2,2.2-6.3,2.1c-0.5,0-0.8-0.3-0.5-0.6c0.6-0.6,1-1.3,2.4-1.6c0.9-0.2,2-0.1,3.2-0.1
			c0.1,0,0.1,0,0.2,0C389.9,77.2,391.1,77,392.3,76.9z"/>
		<path d="M389.3,79c1,0.1,2,0.6,3.3,0.9c0.1,0,0.2,0,0.3,0c1.1,0,2.1-0.1,3.2-0.1c1,0,2,0,2.9,0c1.2,0.1,2.3,0.2,3.5,0.2
			c0.2,0,0.2,0.1,0,0.1c-0.9,0.1-1.9,0-2.8,0c-1.2-0.1-2.4-0.1-3.7-0.1c-0.9,0-1.8,0.1-2.7,0.1c0,0,0,0-0.1,0c-3,0.3-4,1.3-7.6,0.1
			c-0.4-0.1-0.4-0.5,0.1-0.6C386.8,79.4,387.8,78.9,389.3,79z"/>
		<path d="M387.2,81.7c0.1,0,0.2,0.1,0.3,0.1c1.3,0.2,2.7,0.4,4,0.5c2.6,0.2,5.3-0.2,7.9-0.1c0.2,0,0.2,0.2,0,0.2
			c-2.6,0-5.3,0.3-7.9,0.2c-1.2,0-2.4-0.2-3.6-0.4c-0.5-0.1-1.1-0.1-1.6-0.2c0,0-0.1,0-0.1,0c-1.2,0-2.4,0.1-3.3-0.1
			c-1.4-0.3-1.8-1-2.4-1.5c-0.3-0.2,0-0.5,0.5-0.6C385.1,79.6,385.2,80.7,387.2,81.7z"/>
	</g>
	<path d="M25.8,78.6c2.5,0.9,4.3,1.1,4.3,1.1s2.5-0.4,0.3-0.5c-2.2-0.1-3.3-0.6-3.3-0.6L25.8,78.6z"/>
	<path d="M25.4,77.8c-1-0.6-2.2-1.2-3.5-1.7c-0.3-0.1-0.7,0-0.4,0.1c1.3,0.5,2.4,1,3.3,1.6c0.2,0.1,0.5,0.3,0.7,0.5
		c-1.4,0.3-3.5,0.2-5.6-0.7c-2.6-1.1,0.2-2-1.9-3.4c5,1,4.8,1,6.7,1.5c2,0.5,4.2,1.3,1.7,2.4c-0.1,0.1-0.3,0.1-0.5,0.2
		C25.7,78.1,25.6,78,25.4,77.8z"/>
	<g>
		<path d="M6.5,72.6c0.1-1.8,1.2-3.5,2.7-4.3c0.7-0.3,1.4-0.5,2.1-0.6c0.2,0,0.2,0,0.2,0.2c-0.1,2.4-1.7,4.6-3.7,5.5
			c-0.3,0.1-0.6,0.2-1,0.3c-0.1,0-0.2,0-0.2-0.1C6.6,73.3,6.5,72.9,6.5,72.6z"/>
		<path d="M6,73.9c-0.4,0-0.8,0-1.1-0.1c-1.9-0.5-3-1.8-3.2-3.9c0-0.2,0-0.3,0-0.5c0-0.1,0-0.2,0.2-0.2c1-0.2,1.9-0.2,2.7,0.1
			c0.7,0.3,1.2,0.8,1.6,1.4c0.1,0.2,0.1,0.4,0.1,0.6c-0.2,0.8-0.2,1.6-0.1,2.4c0,0,0,0.1,0,0.1C6.1,73.8,6.1,73.8,6,73.9z"/>
		<path d="M3,66.1c0.5-0.1,1,0,1.5,0.1c0.4,0.1,0.7,0.4,0.9,0.7c0.1,0.1,0.1,0.2,0,0.3c-0.3,0.4-0.5,0.8-0.7,1.3
			c-0.1,0.1-0.1,0.2-0.2,0.1c-0.5-0.2-1-0.2-1.6-0.2c-0.1,0-0.2,0-0.2-0.2c-0.2-0.6-0.2-1.3-0.1-2c0-0.1,0.1-0.2,0.2-0.2
			C2.9,66.1,2.9,66.1,3,66.1z"/>
		<path d="M9.9,65c0.6-0.1,0.6-0.2,0.7,0.4c0,0.6,0,1.1-0.2,1.7c0,0.1-0.1,0.2-0.2,0.3c-0.5,0.2-1,0.4-1.5,0.6
			c-0.1,0.1-0.2,0-0.2-0.1c-0.2-0.4-0.5-0.7-0.7-1.1c-0.1-0.1-0.1-0.2,0-0.3C8,66,8.4,65.6,8.9,65.4C9.3,65.2,9.7,65.1,9.9,65z"/>
		<path d="M6.5,70.3c-0.1-0.2-0.2-0.3-0.3-0.4c-0.3-0.3-0.7-0.6-1-0.9c-0.1-0.1-0.1-0.1-0.1-0.3c0.3-0.7,0.7-1.3,1.2-1.8
			c0.1-0.1,0.2-0.1,0.3-0.1c0.5,0.4,1,0.9,1.3,1.5c0,0.1,0,0.2-0.1,0.3C7.4,69,6.9,69.6,6.5,70.3C6.6,70.2,6.6,70.2,6.5,70.3z"/>
		<path d="M7.1,66.3C6.8,66,6.4,66.1,6,66.6c-0.1-0.1-0.1-0.1-0.1-0.2c-0.2-0.2-0.3-0.3-0.5-0.5c-0.1-0.1-0.1-0.1,0-0.3
			c0.3-0.6,0.6-1.1,1.1-1.5C6.5,64,6.6,63.9,6.8,64c0.5,0.3,0.8,0.8,1.1,1.3c0,0,0,0.1,0,0.2C7.6,65.8,7.4,66,7.1,66.3z"/>
		<path d="M3.8,64.6c0.1-0.3,0.1-0.6,0.2-1c0-0.1,0.1-0.2,0.2-0.2c0.5,0,1.1,0.1,1.5,0.4c0.2,0.1,0.2,0.1,0,0.4
			c-0.3,0.4-0.5,0.8-0.8,1.2c-0.1,0.1-0.1,0.2-0.3,0.1c-0.2,0-0.4-0.1-0.5-0.1c-0.1,0-0.2-0.1-0.2-0.2C3.9,65.1,3.8,64.8,3.8,64.6z"
			/>
		<path d="M9.4,63.8c0,0.3-0.1,0.5-0.1,0.8c0,0.1-0.1,0.2-0.2,0.2c-0.2,0.1-0.4,0.2-0.5,0.3c-0.1,0.1-0.2,0-0.2-0.1
			c-0.3-0.4-0.5-0.7-0.8-1.1c-0.1-0.1-0.1-0.1,0-0.2c0.5-0.5,1-0.8,1.6-0.9c0,0,0.1,0.1,0.2,0.1C9.3,63.1,9.3,63.5,9.4,63.8z"/>
		<path d="M6.6,63.4c-0.1,0-0.1,0-0.1,0.1c-0.2,0.2-0.3,0.1-0.5,0c-0.1-0.1-0.2-0.1-0.3-0.2c-0.1-0.1-0.2-0.1-0.1-0.3
			c0.3-0.4,0.5-0.8,0.8-1.2c0.1-0.1,0.2-0.1,0.3-0.1c0.3,0.3,0.6,0.6,0.8,1c0.1,0.1,0,0.2-0.1,0.2c-0.2,0.1-0.3,0.3-0.4,0.4
			c-0.1,0.1-0.2,0.2-0.3,0.1C6.8,63.4,6.7,63.4,6.6,63.4z"/>
		<path d="M5.4,74.8c1.9,2.7,3.8,3.3,3.8,3.3s5.3,0.3,2.8,0.1C9.6,78,7,74.7,7,74.7L5.4,74.8z"/>
	</g>
	<g>
		<path d="M12.2,82.8c-0.5,1-0.3,2.2,0.3,2.9c0.3,0.3,0.6,0.6,1,0.7c0.1,0,0.1,0,0.2-0.1c0.6-1.4,0.4-2.9-0.5-3.8
			c-0.1-0.1-0.3-0.2-0.4-0.4c-0.1,0-0.1,0-0.1,0C12.4,82.4,12.3,82.6,12.2,82.8z"/>
		<path d="M12.3,81.9c-0.2-0.1-0.4-0.1-0.7-0.2c-1.2-0.1-2.1,0.4-2.9,1.5c-0.1,0.1-0.1,0.2-0.1,0.3c0,0.1,0,0.1,0,0.1
			c0.5,0.3,1,0.5,1.5,0.5c0.5,0,0.9-0.2,1.3-0.5c0.1-0.1,0.2-0.2,0.2-0.3c0.1-0.5,0.3-0.9,0.6-1.3C12.3,82,12.3,82,12.3,81.9
			C12.3,82,12.3,82,12.3,81.9z"/>
		<path d="M8.5,85.7c0.3,0.1,0.6,0.2,0.9,0.2c0.2,0,0.5-0.1,0.7-0.2c0.1,0,0.1-0.1,0.1-0.2c0-0.3,0-0.6-0.1-0.9c0-0.1,0-0.1-0.1-0.1
			c-0.3,0-0.6-0.1-0.9-0.2c-0.1,0-0.1,0-0.2,0c-0.3,0.3-0.5,0.7-0.6,1.1c0,0.1,0,0.1,0.1,0.2C8.4,85.6,8.4,85.7,8.5,85.7z"/>
		<path d="M12,87.7c0.3,0.2,0.3,0.3,0.5-0.1c0.2-0.3,0.3-0.6,0.4-1c0-0.1,0-0.1-0.1-0.2c-0.2-0.2-0.5-0.4-0.7-0.7
			c-0.1-0.1-0.1-0.1-0.1,0c-0.2,0.2-0.5,0.3-0.7,0.5c-0.1,0-0.1,0.1-0.1,0.2c0,0.4,0.2,0.7,0.4,0.9C11.7,87.4,11.9,87.6,12,87.7z"/>
		<path d="M11.6,84.1c-0.1,0.1-0.2,0.1-0.3,0.2c-0.3,0.1-0.5,0.2-0.8,0.3c-0.1,0-0.1,0.1-0.1,0.1c0,0.4,0,0.9,0.2,1.3
			c0,0.1,0.1,0.1,0.2,0.1c0.4-0.1,0.8-0.3,1.1-0.6c0.1,0,0.1-0.1,0-0.2C11.7,84.9,11.6,84.5,11.6,84.1
			C11.6,84.1,11.6,84.1,11.6,84.1z"/>
		<path d="M10.8,86.4c-0.3,0.1-0.5,0-0.6-0.4c0,0-0.1,0-0.1,0.1c-0.1,0.1-0.3,0.1-0.4,0.2c-0.1,0-0.1,0.1-0.1,0.1
			c0,0.4,0.1,0.7,0.2,1.1c0,0.1,0.1,0.2,0.2,0.1c0.3-0.1,0.7-0.3,0.9-0.5c0,0,0-0.1,0-0.1C10.9,86.8,10.9,86.6,10.8,86.4z"/>
		<path d="M8.5,86.7c-0.1,0.2-0.1,0.4-0.2,0.6c0,0,0,0.1,0,0.1c0.3,0.1,0.6,0.2,0.9,0.1c0.1,0,0.1,0,0.1-0.2c0-0.3-0.1-0.6-0.1-0.8
			c0-0.1,0-0.1-0.1-0.1c-0.1,0-0.2,0-0.3-0.1c0,0-0.1,0-0.1,0C8.6,86.4,8.6,86.5,8.5,86.7z"/>
		<path d="M11.3,88.3c0.1-0.2,0.1-0.3,0.1-0.4c0,0,0-0.1,0-0.2c-0.1-0.1-0.2-0.2-0.2-0.3c0-0.1-0.1-0.1-0.1,0
			c-0.2,0.1-0.5,0.3-0.7,0.4c-0.1,0-0.1,0-0.1,0.1c0.1,0.4,0.3,0.6,0.6,0.9c0,0,0.1,0,0.1,0C11.1,88.6,11.2,88.4,11.3,88.3z"/>
		<path d="M9.7,87.9C9.7,87.9,9.7,87.9,9.7,87.9c-0.1-0.2-0.2-0.2-0.3-0.1c-0.1,0-0.1,0-0.2,0c-0.1,0-0.1,0-0.1,0.1
			c0,0.3,0.1,0.6,0.1,0.8c0,0.1,0.1,0.1,0.2,0.1c0.3-0.1,0.5-0.2,0.7-0.4c0.1,0,0.1-0.1,0-0.1C10,88.3,10,88.2,10,88.1
			c0-0.1,0-0.1-0.1-0.1C9.8,87.9,9.7,87.9,9.7,87.9z"/>
		<path d="M12.2,81.3c1.8-1.1,3-1.1,3-1.1s3,0.9,1.6,0.5S13,81.7,13,81.7L12.2,81.3z"/>
	</g>
	<path d="M39.7,79.4c-3.8,0.8-8.3,2.3-12.2,2.4c-7.7,0.3-16.3-4.3-24-1.4c1.4-3.4,19.3-0.4,20.6-0.4c4,0.2,6.8,0.2,10.8-0.9
		c7.2-2,19-1.1,30.4,0.1C57.9,79.8,43.9,78.5,39.7,79.4z"/>
</g>
<g>
</g>
<g>
</g>
<g>
</g>
<g>
</g>
<g>
</g>
<g>
</g>
</svg>
