<?xml version="1.0" encoding="UTF-8"?>
<svg id="Layer_1" data-name="Layer 1" xmlns="http://www.w3.org/2000/svg" viewBox="0 0 74.53 68.03">
  <defs>
    <style>
      .cls-1 {
        fill: #060300;
      }

      .cls-1, .cls-2, .cls-3, .cls-4 {
        stroke-width: 0px;
      }

      .cls-3 {
        fill: none;
      }

      .cls-4 {
        fill: #12120d;
      }
    </style>
  </defs>
  <path class="cls-4" d="M69.03,61.95c-.66-1.97-1.17-4.43-2.13-6.3-1.88-3.64-6.07-6.3-6.85-10.65-1.11,1.6,5.2,8.78,5.59,9.39,1.14,1.78,1.25,2.52,1.81,4.64,1.02,3.85,2.57,6.88,3.08,9,.66-.31-.78-3.93-1.5-6.08"/>
  <path class="cls-4" d="M48.55,30.37c-3.43-2.84-7.07-6.76-10.96-9.06-7.6-4.5-18.67-4.52-24.88-11.57-.42,4.21,19.64,10.06,21.06,10.72,4.15,1.93,5.15,3.16,8.55,6.4,6.16,5.87,15.3,15.4,18.59,18.68.95-1.33-8.63-12.06-12.36-15.17"/>
  <g>
    <path class="cls-4" d="M57.81,55.36c-.28,1.99.62,4.17,2.23,5.32.7.5,1.44.84,2.23,1.05.18.05.24,0,.27-.21.36-2.71-.97-5.53-3.1-6.92-.33-.21-.69-.36-1.03-.54-.12-.06-.19-.03-.23.1-.12.4-.24.8-.36,1.19"/>
    <path class="cls-4" d="M57.59,53.77c-.44-.03-.87-.1-1.3-.07-2.23.17-3.7,1.45-4.43,3.78-.06.18-.08.37-.12.55-.04.14.01.22.13.26,1.03.4,2.06.61,3.1.39.83-.18,1.51-.63,2.08-1.31.15-.19.23-.39.2-.68-.09-.94.04-1.83.33-2.67.01-.04.02-.07.03-.11,0-.01,0-.03-.02-.14"/>
    <path class="cls-4" d="M52.66,61.99c.58.18,1.15.24,1.73.16.46-.06.85-.26,1.17-.62.09-.11.11-.19.04-.35-.21-.52-.41-1.05-.59-1.58-.05-.16-.1-.22-.24-.2-.59.08-1.19.03-1.79-.11-.14-.03-.22,0-.29.13-.32.66-.48,1.39-.51,2.17,0,.17.05.26.2.29.1.02.2.06.3.1"/>
    <path class="cls-4" d="M60.22,64.5c.71.21.68.37.84-.3.15-.62.19-1.26.13-1.93-.02-.17-.08-.25-.22-.33-.54-.32-1.07-.66-1.6-1.01-.12-.08-.17-.07-.26.03-.34.38-.7.74-1.06,1.09-.1.09-.13.16-.08.32.22.69.65,1.18,1.2,1.54.4.27.83.48,1.04.6"/>
    <path class="cls-4" d="M57.46,57.94c-.16.15-.28.31-.44.41-.43.28-.87.56-1.32.81-.13.08-.18.14-.14.32.21.83.57,1.59,1.04,2.29.1.15.2.2.35.13.69-.31,1.27-.76,1.72-1.42.07-.11.09-.19-.01-.32-.5-.63-.89-1.33-1.15-2.11-.01-.03-.02-.06-.04-.12"/>
    <path class="cls-4" d="M57.35,62.48c-.49.32-.93.13-1.29-.49-.08.07-.13.12-.19.16-.21.16-.41.32-.63.46-.11.07-.15.13-.1.28.23.69.51,1.35.91,1.94.12.18.25.25.43.16.58-.27,1.05-.7,1.48-1.2.03-.04.04-.14.02-.18-.2-.37-.41-.73-.63-1.14"/>
    <path class="cls-4" d="M53.23,63.8c0,.37-.01.75,0,1.13,0,.08.1.23.16.24.61.1,1.21.08,1.76-.19.22-.11.2-.12.08-.39-.23-.5-.44-1.01-.64-1.53-.06-.17-.12-.21-.27-.2-.2.02-.41,0-.61.01-.08,0-.19.06-.22.14-.1.25-.18.52-.27.8"/>
    <path class="cls-4" d="M59.36,65.83c0-.31.02-.59,0-.87,0-.09-.08-.21-.15-.27-.17-.15-.37-.25-.55-.4-.12-.1-.18-.07-.27.02-.37.36-.75.7-1.13,1.04-.08.07-.14.12-.06.25.42.64.97,1.06,1.59,1.38.05.03.17-.05.2-.12.13-.34.25-.69.36-1.02"/>
    <path class="cls-4" d="M56.17,65.7c-.06-.04-.11-.05-.14-.08-.2-.25-.37-.18-.56-.04-.11.08-.24.13-.36.16-.17.04-.22.13-.14.32.23.5.45,1.01.68,1.51.09.19.21.21.36.13.44-.23.81-.56,1.14-.95.08-.1.08-.17-.02-.28-.15-.18-.3-.37-.42-.57-.09-.14-.16-.23-.32-.18-.08.02-.17,0-.23,0"/>
    <path class="cls-4" d="M57.81,55.36c-.28,1.99.62,4.17,2.23,5.32.7.5,1.44.84,2.23,1.05.18.05.24,0,.27-.21.36-2.71-.97-5.53-3.1-6.92-.33-.21-.69-.36-1.03-.54-.12-.06-.19-.03-.23.1-.12.4-.24.8-.36,1.19"/>
    <path class="cls-4" d="M57.59,53.77c-.44-.03-.87-.1-1.3-.07-2.23.17-3.7,1.45-4.43,3.78-.06.18-.08.37-.12.55-.04.14.01.22.13.26,1.03.4,2.06.61,3.1.39.83-.18,1.51-.63,2.08-1.31.15-.19.23-.39.2-.68-.09-.94.04-1.83.33-2.67.01-.04.02-.07.03-.11,0-.01,0-.03-.02-.14"/>
    <path class="cls-4" d="M52.66,61.99c.58.18,1.15.24,1.73.16.46-.06.85-.26,1.17-.62.09-.11.11-.19.04-.35-.21-.52-.41-1.05-.59-1.58-.05-.16-.1-.22-.24-.2-.59.08-1.19.03-1.79-.11-.14-.03-.22,0-.29.13-.32.66-.48,1.39-.51,2.17,0,.17.05.26.2.29.1.02.2.06.3.1"/>
    <path class="cls-4" d="M60.22,64.5c.71.21.68.37.84-.3.15-.62.19-1.26.13-1.93-.02-.17-.08-.25-.22-.33-.54-.32-1.07-.66-1.6-1.01-.12-.08-.17-.07-.26.03-.34.38-.7.74-1.06,1.09-.1.09-.13.16-.08.32.22.69.65,1.18,1.2,1.54.4.27.83.48,1.04.6"/>
    <path class="cls-4" d="M57.46,57.94c-.16.15-.28.31-.44.41-.43.28-.87.56-1.32.81-.13.08-.18.14-.14.32.21.83.57,1.59,1.04,2.29.1.15.2.2.35.13.69-.31,1.27-.76,1.72-1.42.07-.11.09-.19-.01-.32-.5-.63-.89-1.33-1.15-2.11-.01-.03-.02-.06-.04-.12"/>
    <path class="cls-4" d="M57.35,62.48c-.49.32-.93.13-1.29-.49-.08.07-.13.12-.19.16-.21.16-.41.32-.63.46-.11.07-.15.13-.1.28.23.69.51,1.35.91,1.94.12.18.25.25.43.16.58-.27,1.05-.7,1.48-1.2.03-.04.04-.14.02-.18-.2-.37-.41-.73-.63-1.14"/>
    <path class="cls-4" d="M53.23,63.8c0,.37-.01.75,0,1.13,0,.08.1.23.16.24.61.1,1.21.08,1.76-.19.22-.11.2-.12.08-.39-.23-.5-.44-1.01-.64-1.53-.06-.17-.12-.21-.27-.2-.2.02-.41,0-.61.01-.08,0-.19.06-.22.14-.1.25-.18.52-.27.8"/>
    <path class="cls-4" d="M59.36,65.83c0-.31.02-.59,0-.87,0-.09-.08-.21-.15-.27-.17-.15-.37-.25-.55-.4-.12-.1-.18-.07-.27.02-.37.36-.75.7-1.13,1.04-.08.07-.14.12-.06.25.42.64.97,1.06,1.59,1.38.05.03.17-.05.2-.12.13-.34.25-.69.36-1.02"/>
    <path class="cls-4" d="M56.17,65.7c-.06-.04-.11-.05-.14-.08-.2-.25-.37-.18-.56-.04-.11.08-.24.13-.36.16-.17.04-.22.13-.14.32.23.5.45,1.01.68,1.51.09.19.21.21.36.13.44-.23.81-.56,1.14-.95.08-.1.08-.17-.02-.28-.15-.18-.3-.37-.42-.57-.09-.14-.16-.23-.32-.18-.08.02-.17,0-.23,0"/>
    <path class="cls-4" d="M60.53,49.88s1.15,1.5.58,1.5-2.02,2.42-2.02,2.42l-.85-.28,2.29-3.63Z"/>
  </g>
  <g>
    <path class="cls-4" d="M19.07,20.95c-.28,1.99.62,4.17,2.23,5.32.7.5,1.44.84,2.23,1.05.18.05.24,0,.27-.21.36-2.71-.97-5.53-3.1-6.92-.33-.21-.69-.36-1.03-.54-.12-.06-.19-.03-.23.1-.12.4-.24.8-.36,1.19"/>
    <path class="cls-4" d="M18.85,19.36c-.44-.03-.87-.1-1.3-.07-2.23.17-3.7,1.45-4.43,3.78-.06.18-.08.37-.12.55-.04.14.01.22.13.26,1.03.4,2.06.61,3.1.39.83-.18,1.51-.63,2.08-1.31.15-.19.23-.39.2-.68-.09-.94.04-1.83.33-2.67.01-.04.02-.07.03-.11,0-.01,0-.03-.02-.14"/>
    <path class="cls-4" d="M13.92,27.59c.58.18,1.15.24,1.73.16.46-.06.85-.26,1.17-.62.09-.11.11-.19.04-.35-.21-.52-.41-1.05-.59-1.58-.05-.16-.1-.22-.24-.2-.59.08-1.19.03-1.79-.11-.14-.03-.22,0-.29.13-.32.66-.48,1.39-.51,2.17,0,.17.05.26.2.29.1.02.2.06.3.1"/>
    <path class="cls-4" d="M21.48,30.1c.71.21.68.37.84-.3.15-.62.19-1.26.13-1.93-.02-.17-.08-.25-.22-.33-.54-.32-1.07-.66-1.6-1.01-.12-.08-.17-.07-.26.03-.34.38-.7.74-1.06,1.09-.1.09-.13.16-.08.32.22.69.65,1.18,1.2,1.54.4.27.83.48,1.04.6"/>
    <path class="cls-4" d="M18.71,23.53c-.16.15-.28.31-.44.41-.43.28-.87.56-1.32.81-.13.08-.18.14-.14.32.21.83.57,1.59,1.04,2.29.1.15.2.2.35.13.69-.31,1.27-.76,1.72-1.42.07-.11.09-.19-.01-.32-.5-.63-.89-1.33-1.15-2.11-.01-.03-.02-.06-.04-.12"/>
    <path class="cls-4" d="M18.61,28.07c-.49.32-.93.13-1.29-.49-.08.07-.13.12-.19.16-.21.16-.41.32-.63.46-.11.07-.15.13-.1.28.23.69.51,1.35.91,1.94.12.18.25.25.43.16.58-.27,1.05-.7,1.48-1.2.03-.04.04-.14.02-.18-.2-.37-.41-.73-.63-1.14"/>
    <path class="cls-4" d="M14.48,29.39c0,.37-.01.75,0,1.13,0,.08.1.23.16.24.61.1,1.21.08,1.76-.19.22-.11.2-.12.08-.39-.23-.5-.44-1.01-.64-1.53-.06-.17-.12-.21-.27-.2-.2.02-.41,0-.61.01-.08,0-.19.06-.22.14-.1.25-.18.52-.27.8"/>
    <path class="cls-4" d="M20.62,31.42c0-.31.02-.59,0-.87,0-.09-.08-.21-.15-.27-.17-.15-.37-.25-.55-.4-.12-.1-.18-.07-.27.02-.37.36-.75.7-1.13,1.04-.08.07-.14.12-.06.25.42.64.97,1.06,1.59,1.38.05.03.17-.05.2-.12.13-.34.25-.69.36-1.02"/>
    <path class="cls-4" d="M17.43,31.29c-.06-.04-.11-.05-.14-.08-.2-.25-.37-.18-.56-.04-.11.08-.24.13-.36.16-.17.04-.22.13-.14.32.23.5.45,1.01.68,1.51.09.19.21.21.36.13.44-.23.81-.56,1.14-.95.08-.1.08-.17-.02-.28-.15-.18-.3-.37-.42-.57-.09-.14-.16-.23-.32-.18-.08.02-.17,0-.23,0"/>
    <path class="cls-4" d="M19.07,20.95c-.28,1.99.62,4.17,2.23,5.32.7.5,1.44.84,2.23,1.05.18.05.24,0,.27-.21.36-2.71-.97-5.53-3.1-6.92-.33-.21-.69-.36-1.03-.54-.12-.06-.19-.03-.23.1-.12.4-.24.8-.36,1.19"/>
    <path class="cls-4" d="M18.85,19.36c-.44-.03-.87-.1-1.3-.07-2.23.17-3.7,1.45-4.43,3.78-.06.18-.08.37-.12.55-.04.14.01.22.13.26,1.03.4,2.06.61,3.1.39.83-.18,1.51-.63,2.08-1.31.15-.19.23-.39.2-.68-.09-.94.04-1.83.33-2.67.01-.04.02-.07.03-.11,0-.01,0-.03-.02-.14"/>
    <path class="cls-4" d="M13.92,27.59c.58.18,1.15.24,1.73.16.46-.06.85-.26,1.17-.62.09-.11.11-.19.04-.35-.21-.52-.41-1.05-.59-1.58-.05-.16-.1-.22-.24-.2-.59.08-1.19.03-1.79-.11-.14-.03-.22,0-.29.13-.32.66-.48,1.39-.51,2.17,0,.17.05.26.2.29.1.02.2.06.3.1"/>
    <path class="cls-4" d="M21.48,30.1c.71.21.68.37.84-.3.15-.62.19-1.26.13-1.93-.02-.17-.08-.25-.22-.33-.54-.32-1.07-.66-1.6-1.01-.12-.08-.17-.07-.26.03-.34.38-.7.74-1.06,1.09-.1.09-.13.16-.08.32.22.69.65,1.18,1.2,1.54.4.27.83.48,1.04.6"/>
    <path class="cls-4" d="M18.71,23.53c-.16.15-.28.31-.44.41-.43.28-.87.56-1.32.81-.13.08-.18.14-.14.32.21.83.57,1.59,1.04,2.29.1.15.2.2.35.13.69-.31,1.27-.76,1.72-1.42.07-.11.09-.19-.01-.32-.5-.63-.89-1.33-1.15-2.11-.01-.03-.02-.06-.04-.12"/>
    <path class="cls-4" d="M18.61,28.07c-.49.32-.93.13-1.29-.49-.08.07-.13.12-.19.16-.21.16-.41.32-.63.46-.11.07-.15.13-.1.28.23.69.51,1.35.91,1.94.12.18.25.25.43.16.58-.27,1.05-.7,1.48-1.2.03-.04.04-.14.02-.18-.2-.37-.41-.73-.63-1.14"/>
    <path class="cls-4" d="M14.48,29.39c0,.37-.01.75,0,1.13,0,.08.1.23.16.24.61.1,1.21.08,1.76-.19.22-.11.2-.12.08-.39-.23-.5-.44-1.01-.64-1.53-.06-.17-.12-.21-.27-.2-.2.02-.41,0-.61.01-.08,0-.19.06-.22.14-.1.25-.18.52-.27.8"/>
    <path class="cls-4" d="M20.62,31.42c0-.31.02-.59,0-.87,0-.09-.08-.21-.15-.27-.17-.15-.37-.25-.55-.4-.12-.1-.18-.07-.27.02-.37.36-.75.7-1.13,1.04-.08.07-.14.12-.06.25.42.64.97,1.06,1.59,1.38.05.03.17-.05.2-.12.13-.34.25-.69.36-1.02"/>
    <path class="cls-4" d="M17.43,31.29c-.06-.04-.11-.05-.14-.08-.2-.25-.37-.18-.56-.04-.11.08-.24.13-.36.16-.17.04-.22.13-.14.32.23.5.45,1.01.68,1.51.09.19.21.21.36.13.44-.23.81-.56,1.14-.95.08-.1.08-.17-.02-.28-.15-.18-.3-.37-.42-.57-.09-.14-.16-.23-.32-.18-.08.02-.17,0-.23,0"/>
    <path class="cls-4" d="M21.79,15.47s1.15,1.5.58,1.5-2.02,2.42-2.02,2.42l-.85-.28,2.29-3.63Z"/>
  </g>
  <path class="cls-2" d="M23.79,14.97c.23-.31.33-.68.47-1.03.11-.29.14-.6.13-.91-.07-2.56-2.14-5.7-2.35-5.68,1.72,2.13,2.06,5.43,1.97,5.43-.26.01-.68.06-.94.06-.27,0-.5-.07-.71-.3-.16-.17-.44-.26-.67-.38-.08-.04-.18-.06-.17-.16.04-.21-.13-.3-.3-.41-.35-.23-.69-.48-1.04-.72-.14-.1-.09-.17.01-.21.24-.1.16-.19-.01-.33-.3-.24-.57-.5-.85-.75-.06-.05-.15-.11-.13-.19.03-.08.13-.04.2-.05.04,0,.07,0,.11-.02.07-.02.17,0,.19-.08.02-.08-.07-.12-.12-.16-.68-.48-1.09-1.11-1.38-1.82-.06-.14,0-.19.12-.22.24-.07.25-.18.09-.38-.28-.33-.41-.72-.5-1.11-.02-.09-.02-.19-.07-.28-.12-.23-.09-.37.22-.39.17-.01.18-.13.11-.27-.14-.29-.26-.59-.33-.89-.04-.18-.12-.34.11-.45.09-.04.05-.15,0-.23-.32-.59-.39-1.23-.65-1.84-.02-.06-.04-.13.03-.16.09-.05.17.02.23.07.34.29.67.59,1,.88.13.11.24.23.37.35.14.13.28.2.44.06.09-.08.18-.05.27.03.21.2.46.37.6.62.09.16.18.17.3.06.13-.12.23-.16.4.04.19.23.42.42.6.66.14.18.29.06.38-.02.14-.13.21-.08.33.05.28.3.6.57.76.94.06.14.18.09.29.06.16-.04.29-.17.46-.14.19.04.19.25.29.38.41.49.76,1,.93,1.58.06.22.18.26.39.18.2-.08.39-.18.57-.28.15-.08.24-.05.26.14.04.4.14.8.09,1.19-.02.2.1.21.26.2.14,0,.29-.13.39-.03.1.1.01.26.01.39,0,.34-.1.66-.23.96-.05.12-.09.24.05.36.15.13.13.27.02.36-.5.47-.74,1.07-1.02,1.66-.16.33-.45.61-.87.73-.17.05-.18.16-.18.29,0,.43-.05.85-.15,1.27-.1.41-.32.76-.48,1.14-.04.08-.09.21-.23.16-.11-.04-.12-.17-.12-.28,0-.05.02-.1.03-.15Z"/>
  <path class="cls-2" d="M60.01,46.07c-.22-.28-.53-.46-.82-.67-.23-.17-.51-.27-.79-.33-2.34-.52-5.71.67-5.75.87,2.37-1.1,5.44-.66,5.42-.57-.05.24-.12.64-.19.88-.07.25-.19.44-.45.58-.2.11-.35.34-.52.53-.06.06-.1.15-.19.12-.18-.08-.31.05-.45.18-.3.27-.61.52-.91.79-.13.11-.17.04-.19-.06-.03-.25-.14-.19-.3-.07-.29.22-.59.41-.89.62-.06.04-.14.12-.21.07-.06-.04,0-.13,0-.19,0-.04.01-.07.01-.11,0-.07.04-.15-.02-.19-.07-.04-.13.03-.18.08-.61.52-1.29.75-2,.86-.14.02-.17-.04-.17-.16,0-.23-.1-.27-.32-.17-.37.18-.76.22-1.13.21-.09,0-.18-.02-.27,0-.24.06-.35,0-.3-.29.03-.16-.07-.2-.21-.17-.3.06-.6.1-.89.1-.17,0-.34.03-.38-.21-.01-.09-.12-.08-.21-.06-.62.16-1.22.08-1.83.18-.06,0-.12,0-.14-.06-.02-.09.06-.15.12-.19.35-.24.7-.48,1.05-.72.13-.09.27-.17.41-.26.16-.1.25-.21.16-.39-.05-.1,0-.18.1-.24.23-.15.46-.34.72-.41.17-.05.2-.12.13-.26-.07-.15-.08-.25.14-.36.25-.12.49-.29.75-.4.2-.08.12-.25.07-.36-.08-.16-.02-.21.13-.29.34-.19.67-.42,1.05-.48.14-.02.13-.14.13-.25,0-.15-.08-.31,0-.46.08-.17.27-.12.41-.19.54-.26,1.1-.47,1.67-.49.21,0,.28-.11.26-.32-.02-.2-.07-.4-.11-.59-.03-.15.01-.23.19-.2.37.05.76.05,1.1.19.18.07.21-.04.25-.2.03-.13-.04-.3.07-.37.12-.07.24.05.36.08.31.08.57.24.82.43.09.07.2.13.33.04.15-.11.28-.06.34.06.3.57.79.92,1.25,1.32.26.22.44.55.44.97,0,.17.1.2.22.23.39.1.76.24,1.11.43.35.18.61.47.91.71.07.05.17.13.08.25-.07.09-.19.07-.28.05-.05-.01-.08-.04-.13-.06Z"/>
  <path class="cls-2" d="M45.88,30.55c-.36,0-.69.14-1.03.23-.28.08-.52.23-.75.42-1.86,1.51-3.01,4.9-2.88,5.05.6-2.54,2.86-4.67,2.91-4.61.16.19.43.49.58.69.15.21.23.42.18.72-.04.22.05.49.09.73.01.08.06.18-.02.22-.18.09-.15.27-.14.46.02.4.03.8.05,1.21,0,.17-.07.16-.16.11-.21-.13-.23-.01-.24.2,0,.36-.04.72-.07,1.08,0,.08,0,.18-.07.21-.07.03-.1-.08-.15-.12-.03-.02-.05-.05-.07-.08-.05-.04-.09-.13-.16-.1-.07.03-.05.12-.05.19.03.8-.21,1.48-.56,2.1-.07.12-.14.11-.23.03-.18-.14-.28-.09-.33.15-.09.4-.3.73-.54,1.02-.06.07-.13.13-.17.21-.11.22-.22.28-.41.05-.1-.12-.2-.07-.26.06-.13.27-.29.53-.47.76-.11.13-.19.29-.4.17-.08-.05-.14.05-.18.13-.26.58-.69,1-1,1.54-.03.05-.07.1-.13.07-.09-.04-.08-.14-.07-.22.03-.42.06-.85.09-1.27.01-.16.04-.32.05-.48.02-.18-.01-.33-.2-.37-.11-.02-.14-.11-.13-.23.02-.28.02-.57.12-.82.07-.16.02-.23-.12-.26-.16-.04-.25-.09-.19-.33.06-.27.07-.57.15-.84.06-.21-.12-.25-.23-.28-.17-.04-.17-.11-.15-.28.06-.39.08-.79.27-1.12.07-.12-.03-.19-.12-.26-.12-.1-.29-.13-.36-.28-.08-.17.08-.29.11-.44.13-.59.31-1.15.65-1.61.12-.17.09-.29-.09-.4-.17-.11-.35-.19-.53-.28-.14-.07-.17-.15-.04-.27.27-.26.51-.56.83-.75.16-.1.1-.19,0-.31-.08-.1-.26-.15-.25-.28.01-.14.18-.16.28-.23.25-.2.54-.3.85-.37.12-.03.23-.07.24-.24.01-.19.13-.25.26-.23.63.12,1.21-.04,1.81-.16.33-.07.71,0,1.03.26.13.1.22.05.32-.03.32-.24.66-.45,1.02-.61.36-.16.75-.19,1.12-.28.08-.02.21-.05.25.09.03.11-.06.19-.14.25-.04.03-.08.04-.13.06Z"/>
  <g>
    <path class="cls-2" d="M45.44,6.82c.19.05.05,7.35-1.06,9.89-.14.31-2.56,5.29-3.52,5.59s.57.27.64.2c.33-.32,2.05-3.12,2.33-3.5.28-.38.52-.77.72-1.19.06-.13.12-.24.3-.23.44.02.83-.16,1.13-.44.26-.25,1.78-1.5,1.13-1.72.02-.54.9-1.42,1.24-1.57.14-.06.16-1.02.09-1.19-.07-.15.35-1.32.45-1.42.26-.26.5-.54.65-.87.06-.13.22-.26.17-.39-.05-.13-.24-.06-.37-.09-.15-.04-.26-.09-.15-.28.22-.37.32-.8.46-1.2.07-.19,0-.25-.17-.21-.22.04-.43.08-.65.09-.24.02-.32-.07-.28-.3.12-.63.03-1.24-.12-1.85-.04-.16.06-.36-.1-.46-.14-.09-.32,0-.48-.01-.11,0-.25,0-.24-.16.03-.42-.14-.79-.26-1.17-.05-.17-.09-.23-.28-.16-.12.05-.32.12-.36-.1-.05-.29-.18-.56-.25-.84-.06-.25-.17-.24-.34-.17-.16.07-.24.03-.24-.15-.01-.29-.16-.54-.26-.8-.05-.11-.12-.17-.23-.12-.21.09-.31-.02-.37-.2-.06-.15-.11-.31-.17-.46-.17-.4-.34-.79-.51-1.18-.03-.07-.07-.16-.17-.15-.08.01-.09.08-.1.15-.04.68-.27,1.33-.25,2.01,0,.1-.01.22-.11.23-.26.03-.27.22-.31.4-.07.32-.1.65-.11.98,0,.16-.07.27-.23.22-.29-.08-.38.04-.38.31,0,.1-.04.2-.07.29-.1.41-.15.83-.05,1.25.06.25,0,.35-.25.34-.13,0-.2.02-.21.18-.06.78.03,1.53.43,2.22.03.06.09.13.04.2-.05.07-.14.02-.21.02-.04,0-.07-.02-.11-.02-.07-.01-.15-.08-.2-.01-.06.07,0,.16.03.23.14.34.28.68.44,1.01.09.19.12.31-.14.33-.11,0-.2.06-.11.2.21.34.13,2.58.34,2.92.1.16.21.3.08.5-.06.09.03.14.08.21.08.1-.08,1.14-.29,1.4-.37.47.02,1.07.05,1.18.09.29.7.32,1.2.33,1.67-2.02,1.72-10.24,1.72-10.24Z"/>
    <path class="cls-2" d="M55.52,10.8c.05.08,0,.16-.06.22-.25.34-.51.68-.76,1.02-.1.13-.2.25-.31.38-.12.14-.17.28-.03.42.08.08.06.17-.01.26-.17.22-.32.47-.55.62-.14.1-.14.18-.04.29.12.12.16.21-.02.38-.2.2-.37.44-.58.62-.16.14-.03.28.04.36.13.13.08.19-.03.32-.26.29-.5.62-.83.8-.13.07-.08.18-.04.28.05.15.18.27.16.43-.03.18-.22.2-.33.31-.43.43-.89.8-1.42,1.01-.2.08-.23.19-.14.39.09.18.19.35.29.52.08.13.06.22-.11.25-.37.07-.73.2-1.1.18-.19,0-.19.11-.17.27.01.13.14.27.05.37-.09.11-.24.03-.36.04-.32.03-.62-.04-.91-.15-.11-.04-.23-.06-.33.07-.11.15-.24.14-.34.05-.47-.44-1.56-.48-2.13-.7-.32-.12-.59-.38-.73-.77-.05-.15-.3-.38-.32-.5,2.35-.34,7.1-3.8,5.52-2.79s-5.45,2.52-5.46,2.44c-.03-.25-.1-.65-.11-.9-.01-.26.04-.48.24-.7.15-.17.22-.44.32-.67.03-.08.05-.18.14-.17.2.02.27-.15.37-.31.2-.35.93-.83,1.13-1.18.08-.15.15-.1.2,0,.11.22.19.14.31-.04.2-.3.43-.58.64-.87.05-.06.09-.16.17-.14.07.02.04.12.06.19,0,.03.01.07.02.1.02.06,0,.16.08.17.07.01.11-.07.15-.13.41-.69.97-1.13,1.61-1.46.13-.07.17-.02.21.1.08.22.18.23.36.06.3-.29.64-.45,1-.57.09-.03.18-.04.25-.09.21-.13.34-.11.37.18.02.16.13.16.25.09.26-.16.53-.29.81-.38.16-.05.31-.14.42.07.04.08.14.04.22-.01.53-.35,1.13-.47,1.67-.76.05-.03.11-.05.15.01Z"/>
    <path class="cls-2" d="M32.77,11.57c.06-.07.14-.04.21-.02.37.1.74.21,1.11.32.14.04.28.09.42.14.16.05.29.05.37-.11.04-.09.12-.11.23-.07.24.08.5.12.7.26.13.09.2.06.26-.06.06-.14.13-.2.33-.11.23.11.49.17.72.29.17.09.25-.06.29-.15.07-.15.13-.13.28-.08.33.13.68.22.94.45.1.09.18,0,.25-.05.11-.09.17-.24.31-.27.16-.04.24.12.37.18.5.23.96.5,1.31.88.13.14.24.14.38,0,.13-.13.24-.28.35-.42.09-.11.17-.12.25.01.18.29.4.56.51.88.05.16.15.12.28.06.11-.05.18-.2.3-.16.12.04.1.19.15.3.12.26.16.54.17.82,0,.11.02.21.17.26.16.05.2.16.15.27-.22.54.09,1.48.08,2.03,0,.31-.13.63-.42.87-.11.09-.39.25-.48.31-1.04-1.89-3.44-3.88-3.98-3.66,2.14,1.02,3.88,3.82,3.81,3.86-.2.1-.52.29-.73.38-.21.09-.42.12-.67.02-.19-.08-.44-.05-.67-.06-.08,0-.17.02-.19-.06-.05-.18-.21-.18-.38-.21-.36-.06-1-.52-1.36-.58-.15-.02-.13-.1-.07-.17.15-.16.05-.2-.13-.25-.32-.08-.63-.18-.95-.27-.07-.02-.16-.03-.17-.1,0-.07.09-.08.14-.11.03-.02.06-.03.08-.05.05-.04.13-.06.12-.13-.01-.07-.1-.07-.16-.08-.71-.13-1.27-.46-1.75-.9-.1-.09-.07-.14.01-.21.16-.14.13-.23-.07-.32-.34-.16-.59-.4-.8-.67-.05-.06-.09-.14-.15-.19-.18-.14-.2-.25.03-.37.13-.07.1-.16,0-.24-.22-.17-.42-.36-.59-.56-.1-.12-.22-.22-.07-.38.06-.06-.01-.13-.08-.18-.47-.34-.76-.81-1.18-1.18-.04-.04-.08-.08-.04-.13Z"/>
  </g>
  <g>
    <path class="cls-4" d="M66.2,46.77c1.32.63,2.23,2,2.22,3.35,0,.59-.14,1.13-.35,1.65-.05.12-.11.14-.25.07-1.79-.87-2.9-2.74-2.79-4.47.02-.27.09-.53.13-.79.01-.09.06-.12.16-.09.29.09.59.18.88.27"/>
    <path class="cls-4" d="M65.34,46.01c.18-.25.33-.53.53-.75,1.09-1.17,2.51-1.48,4.24-.96.13.04.26.1.39.15.1.03.13.09.1.18-.22.73-.55,1.39-1.14,1.87-.48.39-1.05.59-1.71.63-.18.01-.33-.03-.5-.16-.53-.43-1.12-.71-1.76-.88-.03,0-.05-.01-.08-.02,0,0-.02-.01-.08-.06"/>
    <path class="cls-4" d="M72.47,46.55c-.15.39-.37.73-.67,1.02-.24.23-.54.37-.89.4-.11,0-.16-.02-.23-.12-.22-.32-.45-.64-.69-.95-.07-.09-.09-.14,0-.21.31-.29.54-.65.73-1.04.05-.09.1-.12.21-.11.54.08,1.05.29,1.54.58.11.06.14.13.09.23-.03.06-.05.13-.07.2"/>
    <path class="cls-4" d="M70.63,51.74c-.19.48-.08.52-.56.35-.44-.16-.85-.39-1.22-.69-.09-.07-.11-.14-.1-.25.05-.43.08-.86.1-1.29,0-.1.03-.12.13-.13.38-.04.75-.09,1.13-.15.1-.02.15,0,.22.08.31.4.42.83.4,1.28-.02.33-.08.65-.1.82"/>
    <path class="cls-4" d="M67.91,47.6c.16-.03.31-.03.44-.08.36-.13.72-.26,1.08-.41.11-.05.16-.05.25.05.41.45.7.95.92,1.49.05.12.04.19-.07.25-.49.26-1.02.4-1.62.39-.1,0-.16-.03-.19-.13-.16-.53-.41-1.02-.76-1.48-.01-.02-.03-.04-.05-.07"/>
    <path class="cls-4" d="M70.69,49.34c.41-.15.49-.46.27-.91.07-.01.13-.02.18-.04.19-.05.38-.1.56-.17.09-.03.14-.03.21.05.31.4.59.82.76,1.28.05.14.04.24-.09.3-.42.22-.89.31-1.38.34-.04,0-.1-.03-.12-.06-.13-.26-.26-.51-.4-.8"/>
    <path class="cls-4" d="M73.31,47.58c.22.15.46.29.68.45.05.03.09.15.07.19-.21.38-.49.7-.9.9-.16.08-.16.06-.27-.11-.2-.33-.42-.65-.64-.96-.07-.1-.07-.15,0-.23.1-.1.18-.23.28-.34.04-.04.12-.08.18-.07.2.04.39.11.6.17"/>
    <path class="cls-4" d="M71.81,51.79c-.19-.12-.37-.22-.53-.34-.05-.04-.09-.13-.1-.19-.01-.15.01-.31,0-.46,0-.1.04-.13.13-.14.38-.06.75-.14,1.13-.22.08-.02.13-.03.17.07.2.49.21.96.13,1.43,0,.04-.11.07-.16.06-.26-.06-.52-.14-.77-.21"/>
    <path class="cls-4" d="M73.15,49.97s.02-.08.01-.11c-.06-.21.05-.28.22-.33.09-.03.18-.08.25-.14.1-.08.18-.07.25.05.2.33.41.65.61.98.07.12.03.2-.08.25-.33.15-.7.23-1.08.26-.1,0-.14-.02-.16-.12-.04-.15-.09-.31-.16-.46-.05-.11-.07-.18.03-.25.05-.03.07-.09.1-.13"/>
    <path class="cls-4" d="M66.2,46.77c1.32.63,2.23,2,2.22,3.35,0,.59-.14,1.13-.35,1.65-.05.12-.11.14-.25.07-1.79-.87-2.9-2.74-2.79-4.47.02-.27.09-.53.13-.79.01-.09.06-.12.16-.09.29.09.59.18.88.27"/>
    <path class="cls-4" d="M65.34,46.01c.18-.25.33-.53.53-.75,1.09-1.17,2.51-1.48,4.24-.96.13.04.26.1.39.15.1.03.13.09.1.18-.22.73-.55,1.39-1.14,1.87-.48.39-1.05.59-1.71.63-.18.01-.33-.03-.5-.16-.53-.43-1.12-.71-1.76-.88-.03,0-.05-.01-.08-.02,0,0-.02-.01-.08-.06"/>
    <path class="cls-4" d="M72.47,46.55c-.15.39-.37.73-.67,1.02-.24.23-.54.37-.89.4-.11,0-.16-.02-.23-.12-.22-.32-.45-.64-.69-.95-.07-.09-.09-.14,0-.21.31-.29.54-.65.73-1.04.05-.09.1-.12.21-.11.54.08,1.05.29,1.54.58.11.06.14.13.09.23-.03.06-.05.13-.07.2"/>
    <path class="cls-4" d="M70.63,51.74c-.19.48-.08.52-.56.35-.44-.16-.85-.39-1.22-.69-.09-.07-.11-.14-.1-.25.05-.43.08-.86.1-1.29,0-.1.03-.12.13-.13.38-.04.75-.09,1.13-.15.1-.02.15,0,.22.08.31.4.42.83.4,1.28-.02.33-.08.65-.1.82"/>
    <path class="cls-4" d="M67.91,47.6c.16-.03.31-.03.44-.08.36-.13.72-.26,1.08-.41.11-.05.16-.05.25.05.41.45.7.95.92,1.49.05.12.04.19-.07.25-.49.26-1.02.4-1.62.39-.1,0-.16-.03-.19-.13-.16-.53-.41-1.02-.76-1.48-.01-.02-.03-.04-.05-.07"/>
    <path class="cls-4" d="M70.69,49.34c.41-.15.49-.46.27-.91.07-.01.13-.02.18-.04.19-.05.38-.1.56-.17.09-.03.14-.03.21.05.31.4.59.82.76,1.28.05.14.04.24-.09.3-.42.22-.89.31-1.38.34-.04,0-.1-.03-.12-.06-.13-.26-.26-.51-.4-.8"/>
    <path class="cls-4" d="M73.31,47.58c.22.15.46.29.68.45.05.03.09.15.07.19-.21.38-.49.7-.9.9-.16.08-.16.06-.27-.11-.2-.33-.42-.65-.64-.96-.07-.1-.07-.15,0-.23.1-.1.18-.23.28-.34.04-.04.12-.08.18-.07.2.04.39.11.6.17"/>
    <path class="cls-4" d="M71.81,51.79c-.19-.12-.37-.22-.53-.34-.05-.04-.09-.13-.1-.19-.01-.15.01-.31,0-.46,0-.1.04-.13.13-.14.38-.06.75-.14,1.13-.22.08-.02.13-.03.17.07.2.49.21.96.13,1.43,0,.04-.11.07-.16.06-.26-.06-.52-.14-.77-.21"/>
    <path class="cls-4" d="M73.15,49.97s.02-.08.01-.11c-.06-.21.05-.28.22-.33.09-.03.18-.08.25-.14.1-.08.18-.07.25.05.2.33.41.65.61.98.07.12.03.2-.08.25-.33.15-.7.23-1.08.26-.1,0-.14-.02-.16-.12-.04-.15-.09-.31-.16-.46-.05-.11-.07-.18.03-.25.05-.03.07-.09.1-.13"/>
    <path class="cls-4" d="M64.3,46.65c-2.35-.85-3.03.2-3.03.2l-.36-1.31s2.71.01,3.5-.01-.11,1.13-.11,1.13Z"/>
  </g>
  <g>
    <path class="cls-4" d="M11.13,14.62c-1.76.96-2.98,2.98-2.95,4.96.01.86.19,1.66.48,2.41.07.18.15.2.33.09,2.39-1.32,3.86-4.08,3.7-6.62-.03-.39-.12-.77-.18-1.15-.02-.13-.09-.17-.22-.12-.39.14-.78.28-1.18.42"/>
    <path class="cls-4" d="M12.27,13.49c-.24-.37-.44-.76-.72-1.08-1.47-1.68-3.37-2.11-5.68-1.31-.17.06-.34.16-.52.23-.13.05-.17.14-.13.26.29,1.07.74,2.02,1.53,2.72.64.56,1.41.84,2.29.89.24.01.45-.05.66-.25.7-.64,1.5-1.06,2.35-1.33.04-.01.07-.02.11-.04.01,0,.02-.02.1-.09"/>
    <path class="cls-4" d="M2.73,14.44c.2.57.5,1.07.9,1.48.32.33.72.53,1.2.56.14.01.22-.03.31-.18.29-.48.6-.95.92-1.42.09-.14.11-.21.01-.31-.42-.43-.73-.94-.98-1.5-.06-.13-.13-.18-.28-.15-.72.14-1.4.45-2.05.89-.14.1-.18.19-.12.34.04.09.07.2.1.29"/>
    <path class="cls-4" d="M5.23,22.01c.25.7.11.76.75.49.59-.25,1.13-.6,1.63-1.04.13-.11.15-.21.13-.37-.07-.62-.11-1.25-.14-1.89,0-.15-.04-.18-.18-.19-.51-.05-1.01-.12-1.51-.2-.13-.02-.21,0-.3.13-.42.59-.56,1.23-.52,1.88.03.48.11.95.14,1.19"/>
    <path class="cls-4" d="M8.84,15.88c-.22-.04-.42-.04-.59-.11-.49-.18-.97-.36-1.44-.57-.14-.06-.22-.07-.34.08-.54.66-.93,1.4-1.22,2.2-.06.17-.04.28.1.36.66.37,1.37.57,2.17.53.13,0,.21-.04.25-.2.2-.78.54-1.51,1.01-2.19.02-.03.04-.05.07-.1"/>
    <path class="cls-4" d="M5.14,18.5c-.55-.21-.65-.67-.37-1.33-.1-.02-.17-.03-.25-.05-.25-.07-.5-.14-.74-.23-.12-.05-.19-.04-.28.08-.42.59-.78,1.21-1.02,1.89-.07.2-.05.35.12.44.56.3,1.19.43,1.84.47.05,0,.14-.05.16-.09.18-.38.34-.76.53-1.19"/>
    <path class="cls-4" d="M1.62,15.97c-.3.22-.61.44-.9.68-.06.05-.12.22-.09.27.29.55.66,1.02,1.21,1.3.22.11.22.09.36-.17.27-.48.55-.96.85-1.42.1-.15.1-.23,0-.34-.14-.15-.24-.33-.38-.49-.06-.06-.16-.12-.24-.1-.26.07-.52.17-.8.26"/>
    <path class="cls-4" d="M1.85,19.47c0-.07-.03-.12-.01-.16.08-.31-.07-.41-.3-.47-.13-.04-.24-.11-.34-.2-.13-.11-.23-.1-.34.08-.27.48-.54.96-.81,1.45-.1.18-.04.3.11.37.45.22.93.31,1.44.35.13,0,.18-.04.22-.18.05-.23.12-.46.21-.68.06-.16.09-.27-.04-.36-.06-.05-.1-.14-.13-.19"/>
    <path class="cls-4" d="M11.13,14.62c-1.76.96-2.98,2.98-2.95,4.96.01.86.19,1.66.48,2.41.07.18.15.2.33.09,2.39-1.32,3.86-4.08,3.7-6.62-.03-.39-.12-.77-.18-1.15-.02-.13-.09-.17-.22-.12-.39.14-.78.28-1.18.42"/>
    <path class="cls-4" d="M12.27,13.49c-.24-.37-.44-.76-.72-1.08-1.47-1.68-3.37-2.11-5.68-1.31-.17.06-.34.16-.52.23-.13.05-.17.14-.13.26.29,1.07.74,2.02,1.53,2.72.64.56,1.41.84,2.29.89.24.01.45-.05.66-.25.7-.64,1.5-1.06,2.35-1.33.04-.01.07-.02.11-.04.01,0,.02-.02.1-.09"/>
    <path class="cls-4" d="M2.73,14.44c.2.57.5,1.07.9,1.48.32.33.72.53,1.2.56.14.01.22-.03.31-.18.29-.48.6-.95.92-1.42.09-.14.11-.21.01-.31-.42-.43-.73-.94-.98-1.5-.06-.13-.13-.18-.28-.15-.72.14-1.4.45-2.05.89-.14.1-.18.19-.12.34.04.09.07.2.1.29"/>
    <path class="cls-4" d="M5.23,22.01c.25.7.11.76.75.49.59-.25,1.13-.6,1.63-1.04.13-.11.15-.21.13-.37-.07-.62-.11-1.25-.14-1.89,0-.15-.04-.18-.18-.19-.51-.05-1.01-.12-1.51-.2-.13-.02-.21,0-.3.13-.42.59-.56,1.23-.52,1.88.03.48.11.95.14,1.19"/>
    <path class="cls-4" d="M8.84,15.88c-.22-.04-.42-.04-.59-.11-.49-.18-.97-.36-1.44-.57-.14-.06-.22-.07-.34.08-.54.66-.93,1.4-1.22,2.2-.06.17-.04.28.1.36.66.37,1.37.57,2.17.53.13,0,.21-.04.25-.2.2-.78.54-1.51,1.01-2.19.02-.03.04-.05.07-.1"/>
    <path class="cls-4" d="M5.14,18.5c-.55-.21-.65-.67-.37-1.33-.1-.02-.17-.03-.25-.05-.25-.07-.5-.14-.74-.23-.12-.05-.19-.04-.28.08-.42.59-.78,1.21-1.02,1.89-.07.2-.05.35.12.44.56.3,1.19.43,1.84.47.05,0,.14-.05.16-.09.18-.38.34-.76.53-1.19"/>
    <path class="cls-4" d="M1.62,15.97c-.3.22-.61.44-.9.68-.06.05-.12.22-.09.27.29.55.66,1.02,1.21,1.3.22.11.22.09.36-.17.27-.48.55-.96.85-1.42.1-.15.1-.23,0-.34-.14-.15-.24-.33-.38-.49-.06-.06-.16-.12-.24-.1-.26.07-.52.17-.8.26"/>
    <path class="cls-4" d="M1.85,19.47c0-.07-.03-.12-.01-.16.08-.31-.07-.41-.3-.47-.13-.04-.24-.11-.34-.2-.13-.11-.23-.1-.34.08-.27.48-.54.96-.81,1.45-.1.18-.04.3.11.37.45.22.93.31,1.44.35.13,0,.18-.04.22-.18.05-.23.12-.46.21-.68.06-.16.09-.27-.04-.36-.06-.05-.1-.14-.13-.19"/>
    <path class="cls-4" d="M17.15,13.54s-.52,1.81-.85,1.36-3.15-.18-3.15-.18l-.28-.85,4.28-.33Z"/>
  </g>
  <g>
    <g>
      <path class="cls-3" d="M26.13,64.91l.04-.11c-.06.28.04.6.05.89-.74.05-1.12-.22-.93-.99.28-.02.6.09.84.21Z"/>
      <path class="cls-3" d="M30.05,42.81c-.44.86-2.31,1.96-2.54,3.62-.23,1.66-.14,1.44-.16,2.55-.02,1.69.31,3.39.45,5.08.16,2.06-.14,3.82-.61,5.78-.22.92-.65,1.48-1.01,2.31-.25.57.01.85-.03,1.38-1.65.1-.78-1.57-.36-2.52.6-1.36.87-2.62.96-4.14.12-1.94.32-4.06-.13-5.94-1.28-5.46,2.41-8.96,3.43-8.14Z"/>
      <g>
        <path class="cls-3" d="M30.05,42.81c-.44.86-2.31,1.96-2.54,3.62-.23,1.66-.14,1.44-.16,2.55-.02,1.69.31,3.39.45,5.08.16,2.06-.14,3.82-.61,5.78-.22.92-.65,1.48-1.01,2.31-.25.57.01.85-.03,1.38-1.65.1-.78-1.57-.36-2.52.6-1.36.87-2.62.96-4.14.12-1.94.32-4.06-.13-5.94-1.28-5.46,2.41-8.96,3.43-8.14Z"/>
        <path class="cls-3" d="M26.17,64.8s.03-.09.05-.14l-.05.14Z"/>
        <path class="cls-3" d="M26.13,64.91l.04-.11c-.06.28.04.6.05.89-.74.05-1.12-.22-.93-.99.28-.02.6.09.84.21Z"/>
        <path class="cls-1" d="M25.83,47.48c-.05.16,0,.34-.02.49-.3,4.13.53,8.91-.43,12.4-.02.06-.12.35-.16.48-.21.63-.69,1.18-.73,2.41-.01.35.09.79.1,1.14.02.77-.39,1.38.75,1.8,1.12.42,7.43,1.15,8.56.91,1.14-.24.87-1.11,1-1.62.05-.18.18-.46.25-.65.27-1,.16-1.97-.09-2.95.05-.22-.06-.47-.06-.5,0-.06.02-.14.02-.2-.16-3.67,1.59-8.04,2.16-12.01.02-.16.07-.32.09-.48.5-4.32-1.92-5.32-2.37-6.47-.2-.51-.04-1.27-.03-1.81,0-.03-.06-.1-.06-.11,0-.02.04-.05.05-.49,0-.04.01-.08.01-.12.04-2.19.12-4.38.07-6.56.12-.03.41-.42.09-.52.06-.22-.02-.33-.03-.45,0-.08.25-.33.46-.18.01-.47.04-.97-.24-1.36-.62-.02-3.41-.43-3.61-.38-.32.07-.53.97-.56,1.28.24-.09.44.18.41.27-.03.11-.11.28-.15.39-.01.03-.31.04.05.58-.38,1.67-.74,3.36-1.09,5.04-.1.49-.14,1.03-.23,1.52,0,.02-.06.17-.12.48-.12.59-.18,1.48-.5,1.94-.46.65-3.5,1.98-3.6,5.76ZM30.57,39.56c.24-.72.27-1.48.36-2.24.03-.31.51-1.94.61-2.47.12-.61.07-1.27.26-1.85.13.03.32.08.44.17.09,1.37-.42,2.7-.68,4.19-.21,1.15-.07,3.16-.9,4.01-.86-.01-.26-1.3-.09-1.81ZM25.29,64.71c.28-.02.6.09.84.21l.04-.11s.03-.09.05-.14l-.05.14c-.06.28.04.6.05.89-.74.05-1.12-.22-.93-.99ZM30.05,42.81c-.44.86-2.31,1.96-2.54,3.62-.23,1.66-.14,1.44-.16,2.55-.02,1.69.31,3.39.45,5.08.16,2.06-.14,3.82-.61,5.78-.22.92-.65,1.48-1.01,2.31-.25.57.01.85-.03,1.38-1.65.1-.78-1.57-.36-2.52.6-1.36.87-2.62.96-4.14.12-1.94.32-4.06-.13-5.94-1.28-5.46,2.41-8.96,3.43-8.14Z"/>
      </g>
    </g>
    <path class="cls-4" d="M34.2,30.12l-1.33.04s1.84-6.49,3.68-6.29l.61.46s-3.78,2.7-2.96,5.79Z"/>
  </g>
</svg>