<?xml version="1.0" encoding="utf-8"?>
<!-- Generator: Adobe Illustrator 28.1.0, SVG Export Plug-In . SVG Version: 6.00 Build 0)  -->
<svg version="1.1" id="Lager_2" xmlns="http://www.w3.org/2000/svg" xmlns:xlink="http://www.w3.org/1999/xlink" x="0px" y="0px"
	 viewBox="0 0 278.9 23.2" style="enable-background:new 0 0 278.9 23.2;" xml:space="preserve">
<style type="text/css">
	.st0{opacity:0.5;}
	.st1{fill:#FAF9F5;}
	.st2{fill:#D2C199;}
	.st3{fill:#F2EEE4;}
	.st4{fill:#D5C7A1;}
	.st5{fill:#ECE5D4;}
	.st6{fill:#E2D7BE;}
</style>
<g id="buT9MK_00000136381797769186056830000009934392691635864743_" class="st0">
	<g>
		<path class="st1" d="M279.1,23.3c-0.1,0.1,0.1,0.2-0.1,0.2c-0.3,0-0.6,0-1,0c-92.4,0-184.9,0-277.3,0c-0.9,0-1.1-0.2-1.1-1.1
			c0-7.2,0-14.4,0-21.6c0-0.3-0.4-0.9,0.5-0.8c-0.5,0.6,0,0.9,0.3,1.3C1.7,2.7,3.1,4,4,5.7C3.6,6.1,3.1,6.5,2.7,6.9
			c-0.2,0-0.5,0-0.7,0C1.9,6,1.4,5.3,0.6,5.3c-1.1,0-0.7,1-0.7,1.6c0,1.7,0,3.4,0,5.1c0,2.1,0,4.2,0,6.3c0,0.5,0,1,0,1.5
			c0,0.9,0,1.7,0,2.6c0,0.3-0.1,0.7,0.4,0.7c2.5,0.3,5.1,0.2,7.6,0.1c0.2,0,0.5-0.1,0.5-0.4c0-0.3-0.1-0.5-0.3-0.6
			c-0.7-0.5-1.3-0.5-2-0.1c-0.8,0.4-1.6,0.4-2.3-0.3c-0.4-0.4-0.9-0.7-0.6-1.4c0.3-0.7,0.9-0.5,1.5-0.4c1.4,0.4,2.9,0.4,4.4,0.4
			c0.9,0,1.5-0.4,1.7-1.3c0.3-1.4,0.1-2.8,0.2-4.1c0.2,0.1,0.5,0.2,0.5,0.5c-0.1,1,0.6,1,1.3,1c-0.1,0.4-0.2,0.7-0.4,1.1
			c-0.6,1.7-0.5,3.3,0.1,5c0.4,1.1,1.4,0.7,2.1,0.5c0.6-0.1,0.1-0.7,0-1.1c-0.7-2.1-0.4-4,0.4-6c0.8-1.2,2-2,3.1-2.8
			c0.5-0.1,1.1-0.2,1.6-0.3c0.8,0,1.6,0.2,2.4,0.4c0.9,0.4,2,0.6,2.7,1.4c-0.4,0.4-1,0.1-1.5,0.3c-0.6,0-1.1-0.1-1.7,0
			c-3.7,0.2-5.6,2.2-5.2,5.6c0.2,1.7,0.7,2.5,1.9,2.7c1,0.4,2.1,0.2,3.2,0.1c0.9,0,1.9,0,2.8,0.1c0.7,0,1.5,0,2.2-0.1
			c0.8-0.3,1.9,0.4,2.3-0.9c0.5-0.8,0.5-1.7,0.5-2.6c0.2-2.2-0.6-4.1-1.8-5.9c-0.3-0.4-0.6-0.7-0.1-1.1c0.7-0.6,0.8-1.5,1.2-2.3
			c0.5,0.1,0.9,0.2,1.4,0.2c0.1,0,0.2,0,0.2,0c0.7,3.8,3,6.7,6,9c0,0.4-0.2,0.6-0.5,0.7c-0.5-0.3-1-0.7-1.5-0.9
			c-0.5-0.2-1.1-0.2-1.5,0.3c-0.4,0.4-0.3,0.9-0.1,1.4c0.2,0.3,0.4,0.6,0.3,1c-0.4,1,0.3,0.8,0.8,0.8c0.3,0,0.6,0,0.8-0.1
			c0.2,0,0.4,0,0.6,0c1.1,0,2.4,0.4,2.2-1.5c0-0.1,0.3-0.3,0.4-0.4c0.3,0.3,0.3,0.7,0.3,1c0.1,1,0.6,1.3,1.5,1.2
			c0.4-0.1,0.7,0,1.1-0.1c0.3,0,0.5-0.2,0.6-0.5c0.5-1.9-0.4-3.9-2.2-4.8c-1.6-0.8-3-1.8-4-3.3c-2.6-3.6-3-7.7-2.7-11.9
			C32.2,1.8,32.5,0.9,32,0c5.7,0,11.4,0,17,0c0,0.1,0,0.2,0,0.2c-2.3,0.1-4.6-0.2-6.9,0.2c-0.8,0.1-1,0.4-1,1.2c0,1.5,0,2.9,0,4.4
			c0,0.6-0.1,1.3-0.9,1.3c-0.8,0-0.8-0.7-0.8-1.3c0-1.4,0.1-2.8,0.2-4.1c0.1-0.7,0.1-1.4-1-1.4c-1,0-0.9,0.6-0.9,1.3
			c0,2.1,0.1,4.2,0.2,6.3c0.1,0.6-0.2,1-0.9,1c-0.6,0-1.1-0.2-1.2-0.8c-0.1-0.3,0-0.6,0-0.8c0-1.9,0-3.9,0-5.8
			c0-0.7-0.2-1.2-0.9-1.3c-0.9,0-0.7,0.6-0.8,1.2c0,0.5,0,1-0.1,1.5c-0.3,3.8,0,7.4,2.3,10.6c1.3,1.7,3,2.9,5.2,3.3
			c0.1,0.1,0.1,0.3,0.2,0.4c1.3,0.8,1.7,1.9,1.5,3.4c-0.1,0.5-0.2,1-0.2,1.5c-0.1,0.7,0.1,1.4,1.1,0.9c1,0.1,1.9,0.2,2.9-0.1
			c0.6-0.1,1.3,0.2,1.9-0.3c0.2,0,0.5,0,0.7,0c0.4,0.5,0.9,0.2,1.4,0.3c0.8,0,1.5,0,2.3,0c0.6,0,0.9-0.2,1.2-0.8
			c0.7-1.9,0.8-1.9,2.9-1.9c0.4,0,0.9,0,1.3,0c1.4,0,1.5,0.1,1.2,1.5c-0.1,0.4-0.5,1,0.3,1.1c0.6,0.1,1.1,0,1.3-0.8
			c0.4-1.5,0.9-1.8,2.5-1.8c0.5,0,1,0,1.4,0c1.7,0,1.8,0.1,1.4,1.7c-0.2,0.9,0.2,1,0.9,1c0.7,0,0.9-0.3,0.9-0.9
			c0.2-1.5,0.7-1.9,2.2-1.9c1.6,0,3.1,0,4.7,0c1.7,0,2,0.5,1.6,2.1c-1.9-0.9-4-0.4-6-0.5c-0.4,0-0.7,0.3-0.9,0.5
			c-0.4,0.4-0.2,0.6,0.3,0.6c2.2,0,4.4,0,6.6,0c0.6,0,1.1,0,1.7,0c0.1,0,0.1,0.1,0.2,0.1c2.9-0.3,5.8-0.1,8.7-0.2c0.6,0,1.1,0,1.7,0
			c2,0,4,0,6,0c0.7,0.4,1.4,0.1,2.1,0c1.9,0.4,3.7,0.3,5.6,0.2c0.8,0,1.5,0,2.3,0.1c0.6,0,0.7-0.1,0.7-0.8c-0.4-3.5-1-6.9-1.8-10.4
			c0.9-0.7,1.9-0.9,3-0.7c0.9,3.1,1.7,6.2,2.6,9.3c0.8,2.8,0.8,2.8,3.7,2.4c3,0.2,5.9,0.1,8.9,0.1c1.8,0,3.6,0.1,5.4,0.1
			c4.5,0,8.9,0,13.4-0.1c1,0,2.1,0,3.1,0c2.5,0,4.9-0.1,7.4-0.1c2.7,0.1,2.2,0.4,3.1-2.1c0.1-0.2,0.1-0.4,0.1-0.6
			c1.1-2.5,1.9-5.1,2.7-7.8c0.2,0.2,0.3,0.4,0.3,0.6c-0.1,2.9,0.5,5.7,0.5,8.6c0,1,0.4,1.2,1.3,1.2c1,0,1.1-0.4,1.2-1.3
			c0.1-5.1-0.4-10.3-0.3-15.4c0-1.1,0.5-1.4,1.4-1.4c0.7,0,1.4,0.2,2,0.1c2.6-0.4,5.2,0,7.8-0.2c0.5,0,1,0.1,1.3,0.5
			c-0.5,0.2-1,0.4-1.6,0.5c-2.6,0.4-5.2,0.2-7.8,0.7c-1.1-0.2-1.3,0.4-1.4,1.3c-0.1,0.8,0.2,1.6,0.2,2.5c0,3.8,0,7.6,0.2,11.4
			c0,1,0.4,1.2,1.3,1.2c2.6,0,5.3,0,7.9,0c1.1,0,2.2,0,3.3,0.1c0.7,0.3,1.3,0.3,2-0.1c0.6,0,1.1,0,1.7,0c3.1,0.1,3.1,0.1,3.1-2.9
			c0-0.1,0-0.2,0-0.4c0.1-5.8-0.3-11.5,0.5-17.3c0.3-2.4,0.2-2.4-2.6-2.2c-0.1-0.1-0.2-0.2-0.3-0.2c3.7,0,7.4,0,11,0
			c0,0.1,0,0.2,0,0.3c0.2,1.3-1.1,1.9-1.5,3.2c-0.2-0.5-0.3-0.8-0.4-1.1c-0.1-0.3-0.2-0.6-0.6-0.6c-0.3,0-0.6,0.2-0.7,0.4
			c-0.5,1.5-1.7,2.6-2.4,4c-0.5,0.6-0.8,1.2-1,2c-0.4,1.3-0.1,2.5,0.9,3.4c0.9,0.8,1.9,0.7,3,0.2c0.5-0.2,1-0.2,1.5,0.1
			c0.1,0.3,0.2,0.7,0.3,1c0.1,0.2,0.1,0.4,0.4,0.4c0.2,0,0.3-0.2,0.3-0.4c0.4-2.1,0.9-4.3,0.6-6.4c-0.2-1.3,0-2.5,0.7-3.6
			c0.4,0,0.7,0.3,1,0.5c-0.5,2-0.4,3.8,0.6,5.6c0.4,0.7,0.5,1.4,0.2,2.2c-1.2,3.1-1.9,6.4-2.4,9.6c-0.4,2.4-0.2,2.6,2.3,2.5
			c0.1,0,0.2,0,0.2,0c0.6,0,0.7-0.3,0.8-0.8c0.3-2.3,0.6-4.5,1-6.8c0.3-1.5,0.7-2.9,1.3-4.3c0.5-1,1.3-0.8,2-0.6
			c0.9,0.2,0.2,0.9,0.1,1.3c-0.1,0.5-0.2,1-0.3,1.5c-0.7,2.9-1,5.8-1.3,8.8c0,0.5,0,0.9,0.7,0.9c0.6,0,1,0,1-0.8
			c0-0.8,0.1-1.6,0.2-2.4c0.3-2.5,0.4-4.9,0.9-7.4c0.4-2,1.9-2.8,3.8-2.1c0.6,0.2,0.7,0.5,0.7,1.1c-0.2,3.4-0.4,6.8-0.7,10.1
			c-0.1,1,0.3,1.3,1.3,1.3c5.3,0,10.6-0.1,16,0c1.2,0,1.4-0.4,1.3-1.4c-0.2-3.3-1.3-6.4-1.9-9.6c-0.2-0.8-0.4-1.5-0.1-2.3
			c1-1,1.9-2.1,1.9-3.6c0.6-2.1,0.4-4.1-0.9-5.9c0-0.1,0-0.1,0-0.2c2.5,0,5,0,7.4,0c-0.8,0.4-1.7,0.2-2.4,0.8
			c-0.6,0.4-1.4,0.8-0.5,1.7c0.6,0.5,0.1,1.1-0.1,1.6c-0.1,0.3-0.9,0.6-0.1,1c1.1,1.1,2.5,1.2,3.6,0.3c1.5-1.9,2.3-3.6,0-5.4
			c1.4,0,2.7,0,4.1,0c-0.3,0.4-0.9,0.5-1.3,0.8c-0.9,0.6-1.1,1.7-0.4,2.6c0,0.5,0,0.9,0,1.4c0,2.3-0.1,2.5-2.2,3.3
			c-2.2,0.9-4.5,1.5-6.6,2.6c-1.2,0.6-1.3,0.8-0.2,1.7c1.3,1.1,2.6,2.2,3.9,3.4c0.7,0.6,0.9,1.3,0.5,2.1c-0.5,1.1-1.1,2.2-1.6,3.3
			c-1.1,2.2-1.1,1.9,1.3,2c0.9,0,1.3-0.3,1.6-1.1c0.6-1.7,1.6-3.3,2.5-4.9c0.3-0.5,0.5-0.6,0.8-0.1c0.6,0.9,1.4,1.1,2.4,0.8
			c0.1,1.8-0.5,2.8-2.3,3.6c-1,0.4-2.1,0.8-3.1,1.9c3-0.1,5.6,0.1,8.3-0.1c0.4,0,0.9,0.1,1.3,0.1c3,0,5.9-0.1,8.8-0.1
			c3.4,0,6.8,0.1,10.3,0.1c0.4,0,0.8,0.1,1.2-0.2c2.1-1.6,4.6-2.2,7.2-2.6c0.3,0,0.6,0,1,0c0.2,0.3,0.5,0.5,0.7,0.8
			c1.1,1.5,2.5,2.2,4.5,2C274.6,23.1,276.8,23.3,279.1,23.3z M186,23.3c0.3,0,0.6,0,1,0c1.4,0,2-0.8,1.5-2.1
			c-0.3-0.9-0.8-1.7-1.8-1.8c-1.1-0.2-1.9,0.4-2.6,1.2c-0.6,0.6-0.8,1.4-0.4,2.2c0.4,0.7,1,0.6,1.7,0.6
			C185.5,23.3,185.7,23.3,186,23.3z M183.8,15.9c0,0.6,0,1.3,0.8,1.1c0.8-0.1,1.9,0,2-1.3c0.1-0.8-0.6-1.7-1.3-1.7
			C184.4,14,183.8,14.8,183.8,15.9z M30.3,17.9c0,0.5,0,1.1,0.7,1.1c0.7,0,1.2-0.4,1.2-1.1c0-0.7-0.6-1-1.2-1
			C30.2,16.9,30.4,17.4,30.3,17.9z"/>
		<path class="st2" d="M177.3,23c-0.6,0.4-1.3,0.4-2,0.1c0.1-5.5,0.2-11.1,0.3-16.6c0-0.3,0-0.6-0.2-0.8c-0.7-0.5-1.5-0.1-2.2-0.2
			c-0.3-0.4-0.8-0.5-1.3-0.5c-2.6,0.1-5.2-0.2-7.8,0.2c-0.7,0.1-1.3-0.1-2-0.1c-0.9,0-1.4,0.4-1.4,1.4c-0.1,5.1,0.4,10.3,0.3,15.4
			c0,0.9-0.1,1.3-1.2,1.3c-0.9,0-1.3-0.2-1.3-1.2c0.1-2.9-0.5-5.7-0.5-8.6c0-0.2-0.1-0.4-0.3-0.6c-0.8,2.6-1.6,5.3-2.7,7.8
			c-0.5-0.5-0.2-1.1-0.3-1.7c0-0.4-0.3-0.6-0.6-0.7c-0.3-0.1-0.6,0.1-0.5,0.3c0.1,1.2-1,1.5-1.5,2.2c-3.3-0.1-6.6-0.1-9.9-0.2
			c-3.9,0-7.8,0-11.7-0.1c0-0.2,0-0.3,0-0.5c4.2-0.1,8.5-0.2,12.7-0.2c2.5,0.1,5-0.1,7.5,0.2c0.6,0.1,1.1-0.1,1.6-0.4
			c0.4-0.2,0.6-0.6,0.5-1.1c-0.1-0.5-0.5-0.4-0.9-0.4c-2.3,0-4.7,0-7,0c-5.5-0.2-11,0-16.5-0.2c-4.6-0.2-9.3-0.1-13.9-0.1
			c-2.7,0-2.6-0.2-1.5,2.3c0,0,0,0.1,0,0.1c0,0.9,0.6,1.7,0.7,2.6c0,0.1,0,0.2,0,0.4c-2.9,0.4-2.9,0.4-3.7-2.4
			c-0.9-3.1-1.7-6.2-2.6-9.3c-0.7-2.9-1.1-5.9-1.4-8.9c-0.1-0.8-0.2-1.7,0.2-2.6c0.8,0,1.6,0,2.4,0c0.1,0.1,0.1,0.2,0.2,0.2
			c0,1.1,0.2,2.1,0.2,3.2c0.2,3.8,1,7.4,2.3,10.9c0.4,1.2,1.2,1.7,2.5,1.5c1.2,0,1.4-0.3,1.2-1.7c-0.8-4.6-1.3-9.2-1.7-13.9
			c0-0.1,0-0.1,0-0.2c0.5,0,1,0,1.4,0c0.1,0.1,0.1,0.2,0.2,0.2c-0.1,1.8,0,3.5,0.3,5.3c0.2,1.6,0.3,3.2,0.9,4.7
			c0,0.4,0.1,0.8,0.1,1.2c-0.1,0.3-0.1,0.5,0.2,0.7c0.2,0.8,0.3,1.6,0.5,2.4c0.3,1.2,0.7,1.4,1.9,1.2c0.4,0.1,0.7,0.2,1.1,0.2
			c1,0.1,1.4-0.4,1.2-1.3c-0.8-4.7-1.1-9.5-1.4-14.3c0.4,0,0.8,0,1.2,0c0.5,0,0.8,0.2,0.7,0.7c-0.1,2.9,0.4,5.7,0.7,8.6
			c0.2,1.8,0.4,3.7,0.7,5.5c0.1,0.8,0.6,1.2,1.5,0.8c1.3,0.2,2.7,0.2,4,0.2c1.5,0,1.7-0.2,1.7-1.7c0-4.7,0-9.3,0-14
			c0.1-0.1,0.2-0.2,0.2-0.2c0.5,0,1,0,1.4,0c0.1,0.1,0.1,0.2,0.2,0.3c0,4.7,0,9.3,0,14c0,1.4,0.3,1.7,1.7,1.7c1.4,0,2.9,0,4.3,0
			c1.2,0.2,1.7-0.4,1.7-1.5c0-0.9,0.1-1.9,0.3-2.8c0.5-3.8,0.8-7.6,0.7-11.4c0-0.1,0-0.2,0-0.2c0.6,0,1.1,0,1.7,0
			c0.2,0.3,0.3,0.7,0.2,1.1c-0.1,2.3-0.1,4.6-0.3,6.8c-0.1,2.2-0.3,4.3-0.6,6.4c-0.2,1.4-0.2,1.5,1.3,1.5c0.6,0,1.2,0,1.7,0
			c0.2,0,0.5,0,0.7,0c2.5,0.1,2.8-0.3,2.9-2.7c0-0.2,0-0.4,0-0.6c0.3-0.2,0.2-0.5,0.2-0.7c0-0.3,0-0.6,0.1-0.8
			c0.9-3.6,1.1-7.2,1.4-10.8l0,0c1.2-0.2,1.5,0.4,1.5,1.5c0.1,3.7-0.5,7.4-0.6,11.1c-0.5,0.8-1.1,1.7-0.3,2.6
			c0.8,0.9,1.7,0.3,2.5,0.1c1.2-0.3,1.3-1.4,1.4-2.5c-1.1,1.3-1.1,1.3-2,1.1c0.6-0.5,0.6-0.5,0-1.2c-0.1-0.2-0.2-0.3-0.1-0.5
			c0.2-0.3,0.5-0.2,0.7-0.2c1.7,0.1,1.8,0,2.1-1.7c0.2-1.3,0.2-2.6,0.7-3.8c0.3,0.3,0.2,0.7,0.3,1c0.1,0.6-0.5,1.6,0.6,1.5
			c1.1-0.1,0.5-1.2,0.5-1.9c0-0.1-0.1-0.1-0.1-0.2c-0.2-1.7-0.4-3.4-0.4-5.1c0-0.5,0.1-0.9,0.7-0.7c1.1,0.3,1-0.3,1-1
			c0.2,0,0.5,0,0.7,0c0.2,1.7,0.9,2.5,2.2,2.6c4.3,0.3,8.6,0.2,12.9,0.2c0.8,0,1.5,0,2.3,0c2.8,0,2.8,0,2.8-2.8
			c2.7-0.2,2.9-0.2,2.6,2.2c-0.7,5.7-0.4,11.5-0.5,17.3c0,0.1,0,0.2,0,0.4c0,3.1,0,3.1-3.1,2.9c0-5.5,0-11.1,0-16.6
			c0-0.5,0.1-1.2-0.6-1.2c-0.7,0-0.8,0.6-0.8,1.2c-0.1,5.2-0.2,10.5-0.2,15.7C177.3,22.5,177.3,22.8,177.3,23z M122.1,16.7
			c-1.9,0-3.7,0-5.6,0c1.5,0.9,3.3-0.5,4.8,0.6C121.5,17.4,122,17.2,122.1,16.7z M131.2,17.6c0.4,0,0.9-0.1,0.9-0.6
			c0-0.5-0.5-0.7-0.9-0.8c-0.4,0-0.7,0.4-0.7,0.8C130.5,17.6,130.8,17.6,131.2,17.6z M123.8,16.9c0,0.1,0,0.1,0,0.2
			c1.6,0,3.2,0,4.8,0c0-0.1,0-0.1,0-0.2C127,16.9,125.4,16.9,123.8,16.9z M158.6,7.9c0,0,0.1,0,0.1,0c0-1.4,0-2.9,0-4.3
			c0,0-0.1,0-0.1,0C158.6,5.1,158.6,6.5,158.6,7.9z M160.8,3.4c0,0,0,0.1,0,0.1c1.3,0,2.7,0,4,0c0,0,0-0.1,0-0.1
			C163.4,3.4,162.1,3.4,160.8,3.4z M118.5,17.4c0,0,0,0.1,0,0.1c0.5,0,1,0,1.6,0c0,0,0-0.1,0-0.1C119.6,17.4,119,17.4,118.5,17.4z"
			/>
		<path class="st2" d="M266.1,20.4c-2.6,0.4-5.1,1.1-7.2,2.6c-0.3,0.2-0.8,0.2-1.2,0.2c-3.4,0-6.8-0.1-10.3-0.1
			c-2.9,0-5.9,0.1-8.8,0.1c-0.4,0-0.9-0.1-1.3-0.1c0-0.6-0.2-1.2-0.4-1.8c-0.4-1.1-1-2.1-1.1-3.2c0.9,0.6,1.2,1.7,1.8,2.6
			c0.2,0.3,0.4,0.7,0.8,0.7c0.4,0,0.4-0.5,0.5-0.8c0.2-0.4,0.2-0.9,0.6-1.3c0.7-0.7-0.1-1.3-0.4-1.2c-1.3,0.4-1.4-0.8-2-1.3
			c-0.6-0.4-1.1-0.7-1.9-0.6c0-0.5,0.5-0.8,0.8-1.1c1-1,0.9-1.2-0.5-1.5c-1.2-0.8-2.4-1.4-2.4-3.1c0-0.5-0.4-0.4-0.7-0.3
			c-1.5,0.5-2.9,1-4.4,1.6c-0.4,0.2-0.6,0.4-0.1,0.7c1.5,0.9,2.7,2.3,3.9,3.6c1.1,0.9,2.2,0.2,3.4,0.2c-0.1,0.6,0.1,1.1,0.2,1.7
			c-0.4,0-0.8,0-1.2,0c-1,0.3-1.8,0.1-2.4-0.8c-0.3-0.5-0.6-0.4-0.8,0.1c-0.9,1.6-1.9,3.1-2.5,4.9c-0.3,0.9-0.7,1.1-1.6,1.1
			c-2.4-0.1-2.4,0.2-1.3-2c0.5-1.1,1.1-2.2,1.6-3.3c0.4-0.8,0.2-1.5-0.5-2.1c-1.3-1.1-2.6-2.2-3.9-3.4c-1.1-0.9-1-1.1,0.2-1.7
			c2.1-1.1,4.4-1.7,6.6-2.6c2.2-0.9,2.3-1,2.2-3.3c0-0.5,0-0.9,0-1.4c0.1-1.7,0.2-1.7,1.7-1.1c0.9,0.4,1.9,0.7,2.7,1.2
			c1.5,0.9,2.9,0.8,4.4,0.1c1.7-0.8,3.3-1.8,5.3-1.8c0.1,1.3-0.2,2.5-0.3,3.7c-0.2,1.3,0.2,2.1,1.4,2.5c2.1,0.9,4.3,1.7,6.4,2.5
			c0.2,0.3,0.4,0.3,0.7,0.3c0.7,0.4,1.4,0.7,2.2,0.9c0.1,0.2,0.2,0.4,0.2,0.7c-2.3,1.1-4.8,1.9-6.9,3.4c-1,0.7-1.1,1.3-0.8,2.3
			c0.6,1.4,1.4,2.7,2.1,4c0.4,0.8,0.9,0.9,1.6,0.4c0.2-0.2,0.5-0.3,0.7-0.5c0.7-0.6,1.4-0.8,2.1,0.1c0.5,0.6,0.8,0.2,1.1-0.1
			c1.5-1.3,3.2-2.2,5.1-2.8c1.1-0.3,2.2-0.5,3.4-0.7c0.4,0,0.9-0.2,1-0.7c0.1-0.6-0.1-1.2-0.6-1.6c-0.3-0.3-0.7-0.2-1.1,0
			c-3.1,1.8-6.6,1.9-10.1,1.9c-0.7,0-1.1-0.4-1.4-1c-0.2-0.5,0-1,0.5-1.4c0.5-0.4,1-0.3,1.5,0c0.4,0.2,0.7,0.5,1.2,0.4
			c1.6-0.5,3.4-0.7,4.9-1.3c0.3-0.1,0.7-0.1,0.8-0.6c-1.5-0.4-2.7-1.6-4.1-2.1c-0.1-0.6-0.3-1.2-0.5-1.8c-0.8-1.7-0.7-3.4,0.8-4.7
			c0.3-0.3,0.5-0.6,0-0.9c-1.7-1-3.2-2.3-4.9-3.6c0.1,1.3,0.7,2.5-0.2,3.6c-0.1-0.2-0.1-0.4-0.2-0.6c-0.4-1.4-0.7-1.5-1.8-0.4
			c-0.2,0.2-0.5,0.3-0.7,0.3c-0.5,0-0.9,0.1-0.9,0.7c0,0.6,0.4,0.9,1,1c0.6,0,1.3,0,1.9,0c0,0.1,0,0.2,0,0.2c-1.2,0.7-2.4,0.8-3.6,0
			c-1.4-0.9-1.8-2.2-1.6-3.8c0.8-0.5,1.2-1.5,2.1-1.7c3.7,0,7.3,0,11,0c0.4,0,0.9-0.2,1.2,0.2c-0.5,0.2-0.9,0.3-1.4,0.5
			c-0.3,0.1-0.8,0.2-0.8,0.6c0,0.5,0.4,0.6,0.8,0.8c1.4,0.7,4.2-0.7,4.5-2.4c0.1,0,0.2,0,0.2,0c0.8,0.6,1.8,0,2.8,0.4
			c-0.8,0.9-2,1-2.6,1.9c2.3,1,6.3-0.1,8.3-2c0.1,0,0.1,0,0.2,0c0.3,0,0.7,0,0.8,0.2c0.2,0.2-0.1,0.5-0.3,0.7c-0.5,0.5-1,1-1.4,1.5
			c-1.2-0.6-2.2,0.1-3.1,0.7c-1.2,0-2.4,0-3.6,0c-0.2,0-0.8-0.1-0.4,0.4c0.1,0.3,0.5,0.5,0.5,0.9c-0.6,0-1.2,0.1-1.8,0
			c-1.3-0.3-2.2,0.3-3,1.2c-0.2,0.3-0.5,0.5-0.7,0.8c-1.1,1.3-1,2.4,0.2,3.7c0.5,1,1.5,1.1,2.4,1.2c0.4,0.4,0.9,0.2,1.4,0.2
			c5,0,10,0,15,0c0,2.4,0,4.8,0,7.1c-0.5,0-0.5,0.4-0.6,0.7c-0.2,0.5-0.5,0.9-1.1,0.9c0-1.2-0.1-2.4-0.8-3.5
			c-1.5-2.4-3.9-2.7-6.4-2.8c-2.1-0.1-2.4,0.3-1.9,2.3c0.1,0.4,0.2,0.9,0.3,1.3c0.9,2.9,3.3,5,6,4.7c1.7,0.6,3.1-0.1,4.6-0.7
			c0,0.5,0,1,0,1.4c-2.3,0-4.5-0.2-6.8,0c-2,0.1-3.4-0.5-4.5-2c-0.2-0.3-0.5-0.5-0.7-0.8c-0.4-1.2-1-1.4-2-1
			c-0.2,0.1-0.5,0.2-0.5,0.4c0,0.4,0.4,0.3,0.7,0.3C265.5,20.2,265.9,20.1,266.1,20.4z M242.1,18.3c0.1,2.4,0.1,2.4,2.4,3.3
			c0.4,0.1,0.7,0.3,1.1,0.4c0.8,0.2,1.5,0.8,2.6,0.7c-0.6-1.1-1.2-2.1-1.7-3.1c-0.4-0.8-0.9-1.2-1.9-0.9c-0.9,0.3-1.7,0-1.8-1.1
			c0.1-0.5-0.1-1.4,0.7-1.4c2,0.1,2.8-1.4,3.9-2.6c0.8-0.1,1.3-0.6,1.8-1c0.4-0.3,0.5-0.7-0.2-0.9c-1.1-0.3-2.1-0.8-3.1-1.1
			c-0.6-0.2-1.2-0.1-1.5,0.4c-0.5,1.2-1.4,2.4-1.6,3.8c-0.3,0.5-0.7,1.1-0.9,1.6C241.6,17,241.3,17.7,242.1,18.3z M237.1,6.7
			c-0.2-0.1-0.5-0.2-0.7-0.3c-0.7-0.5-1.1-0.2-1.2,0.5c-0.2,1,0.1,1.8,1.1,2.2c0.3,0.1,0.6,0.4,0.9,0.5c0.7,0.3,1,1.5,1.9,1.3
			c0.8-0.2,1.4-0.8,2.1-1.3c0.1,0,0.1-0.1,0.2-0.1c0.7-0.5,1.8-0.8,1-2.1c-0.1-0.1,0-0.3,0-0.5c0.1-1.3,0.1-1.3-1.2-1
			c0-0.4,0.1-0.7,0.4-1c0.2-0.2,0.6-0.4,0.4-0.7c-0.2-0.4-0.7-0.2-1.1-0.1c-0.4,0.1-0.7,0.3-1,0.6c-1.1,1-1.8,1-2.8-0.1
			c-0.3-0.3-0.5-0.8-1-0.3c-0.6,0.5-0.2,0.9,0.2,1.3C236.6,5.9,237.1,6.1,237.1,6.7z"/>
		<path class="st2" d="M77.2,22.4c0.4-1.6,0.1-2.1-1.6-2.1c-1.6,0-3.1,0-4.7,0c-1.5,0-2,0.4-2.2,1.9c-0.1,0.6-0.3,0.9-0.9,0.9
			c-0.7,0-1.1-0.1-0.9-1c0.4-1.6,0.3-1.6-1.4-1.7c-0.5,0-1,0-1.4,0c-1.6,0-2.1,0.4-2.5,1.8c-0.2,0.8-0.7,0.9-1.3,0.8
			c-0.8-0.1-0.4-0.7-0.3-1.1c0.2-1.4,0.1-1.5-1.2-1.5c-0.4,0-0.9,0-1.3,0c-2.1,0-2.1,0-2.9,1.9c-0.2,0.6-0.6,0.8-1.2,0.8
			c-0.8,0-1.5,0-2.3,0c0-1.3,0.6-2.4,0.5-3.7c0-0.4,0.1-1-0.3-1.2c-0.4-0.2-0.7,0.2-1,0.4c-0.7,0.5-1.5,0.9-2.2,1.4
			c-0.4-1,0.4-1.3,1-1.7c0.7-0.4,1.5-0.7,2.2-1.1c0.5-0.3,0.8-0.9,0.4-1.4c-0.5-0.7-0.9-0.1-1.3,0.3c-0.4,0.4-0.8,1-1.5,0.4
			c2.3-2.1,3.7-4.7,4-7.8c0.2-2.4,0.4-4.8,0.3-7.2c0-0.8,0.1-1.1,1-1.2c1.2-0.1,1.6,0.3,1.4,1.5c-0.1,0.5,0,1,0,1.5
			c0,2.4,1.3,3.2,3.7,2.2c-2-1.3-3.4-2.9-2.5-5.4c0.6,0,1.1,0,1.7,0c0.4,0.4,0.4,1,0.7,1.5c0.2,1.4,1.3,2.1,2.5,2.6
			c0.2,0.3,0.5,0.5,0.8,0.6c0.3,0.1,0.6,0.5,1,0.1c0.3-0.3,0.2-0.7,0.1-1c-0.4-0.8-1-1.3-1.9-1.5c-0.3-0.5-0.5-1-1-1.4
			c0-0.2,0-0.5,0-0.7c1.3,0,2.7,0,4,0C65,0.9,64.6,1.8,65.2,2c0.7,0.3,1.1-0.7,1.6-1.1c0.2-0.2,0.4-0.4,0.5-0.6c6.3,0,12.7,0,19,0
			c1.3,0.6,2.4,1.5,3.6,2.3c0.7,0.5,1.3,0.6,2,0.3c2-0.9,3.9-1.9,5.9-2.8c0.7,0,1.4,0,2.2,0c0.1,0.6-0.2,1-0.7,1.4
			C98,2.2,96.7,3,95.3,3.6c-0.8,0.4-1.7,0.9-2.4,1.8c2.8-0.1,5.3,0.6,7.8,0.1c1.2-0.2,1.7,0.2,1.9,1.3c0.4,1.8,0.9,3.6,1.7,5.3
			c0.8,3.4,1.4,6.9,1.8,10.4c0.1,0.6-0.1,0.8-0.7,0.8c-0.8,0-1.5,0-2.3-0.1c-0.7-2.3-0.9-2.5-3.3-2.5c-0.9,0-1.8,0-2.7,0
			c0-0.8-0.9-0.6-1.4-1c0.8-0.4,1.5-0.2,2.2,0c0.9,0.3,1.7,0.6,2.7,0.5c0.4,0,0.7,0,0.8-0.5c0.1-0.5-0.2-0.7-0.6-0.9
			c-0.1,0-0.2-0.1-0.4-0.1c-3.2,0-6.3-0.3-9.4,0.1c-2.7,0.4-5.4,0.6-8.2,0.6c-1,0-1.9,0-2.9,0c-0.9-0.1-0.8,0.4-0.6,0.9
			c-0.4,0.4-0.3,0.9-0.4,1.4c0,0.4-0.1,0.8-0.1,1.2c-0.6,0-1.1,0-1.7,0C77.2,22.8,77.2,22.6,77.2,22.4z M96.6,8.4
			c-0.6-0.1-1,0.1-0.9,0.9c0.4,1.8,0.5,3.6,1.1,5.3c-0.4,0.3-1,0.2-1.4,0.3c-0.2-0.1-0.3-0.2-0.5-0.3c0-1.2-0.2-2.4-0.8-3.6
			c-0.1-1.9-0.8-2.6-2.7-2.6c-0.6,0-1.3,0-1.9,0c-1.4-0.1-1.6,0.1-1.3,1.5c0.4,1.7,0.5,3.4,0.6,5.1c-1,0.4-1.7,0.2-1.9-0.9
			c-0.1-0.7,0.2-1.5-0.2-2.2c-0.1-0.6-0.1-1.3-0.3-1.9c-0.2-0.8-0.3-1.9-1.3-1.9C83.5,8.1,81.8,8,80,8.3c-0.9,0.2-1.2,0.6-1.1,1.5
			c0,1.8,0,3.7,0,5.5c-0.5,0.3-1,0.3-1.5,0c0-1.6,0-3.2,0-4.8c0-0.5,0.2-1-0.1-1.4c0-0.7-0.3-0.9-0.9-0.9c-1.5,0.1-2.9-0.1-4.4,0.2
			c-1.1,0.2-1.7,0.8-1.9,1.8c-0.2,1.3-0.4,2.6-0.6,3.9c-0.2,1.3-0.6,1.5-1.9,1c0.3-2,0.6-4,0.9-5.9c0.1-0.7-0.3-0.9-0.9-0.8
			c-0.7,0.2-1.4,0.2-2.1,0C64.6,8,64.2,8.3,63.8,9c-0.4,0.8-0.3,1.7-0.8,2.4c-0.6-0.8,0-1.9-0.8-2.7c-2.5-1.1-4.7-0.4-5.3,1.6
			c-0.6,2-1.4,3.9-1.7,6c-0.2,1.3,0.1,1.7,1.4,1.7c2.2,0.1,4.5,0.1,6.7,0.1c8.9,0,17.7,0.3,26.6-0.2c3.5,0,6.9,0,10.4,0
			c2.4,0,2.9-0.9,2-3.1c-0.1-0.2-0.2-0.3-0.3-0.5c-0.1-1.8-1.1-3.3-1.7-4.9c-0.3-0.9-1.1-1.2-2-1.3C97.7,8.3,97.2,8.4,96.6,8.4z
			 M74.5,5.4c4.5,0,8.9,0,13.4,0c0.2,0,0.5,0.1,0.7-0.1c0.2-0.3-0.2-0.5-0.3-0.7c-1.4-1.2-2.8-2.4-4.6-3c-0.5-0.3-1.1-0.5-1.7-0.5
			c-2,0-3.9-0.2-5.8-0.4c-1.3-0.2-2.7-0.2-3.7,0.8c-0.7,0.7-1.5,0.9-2.4,1c-1.2,0.1-2.1,0.5-2.9,1.4c-0.3,0.3-0.6,0.6-0.5,1.1
			c0.2,0.5,0.6,0.4,1,0.4C70,5.5,72.2,5.5,74.5,5.4z M57.9,19c0,0,0-0.1,0-0.1c-1.7,0-3.5,0-5.2,0c0,0,0,0.1,0,0.1
			C54.5,19,56.2,19,57.9,19z M74.6,6c0,0,0,0.1,0,0.1c1.6,0,3.3,0,4.9,0c0,0,0-0.1,0-0.1C77.9,6,76.2,6,74.6,6z"/>
		<path class="st1" d="M205.4,0c4.2,0,8.5,0,12.7,0c0,0.1,0,0.1,0,0.2c0.4,0.5,0.8,1,1.4,1.3c0.2,1.1,0.9,2.2,0.8,3.4
			c-0.2,2.3-1.5,3.6-3.8,3.6c-2.7,0-5.4,0-8,0c-3.2,0-6.5-0.1-9.7,0.2c-1.7,0.2-3-0.7-3.5-2.1c-0.5-1.6,0.1-2.9,1.2-4
			c1.2-1.2,2.8-1.4,4.4-1c0.9,0.2,1.7,1.2,2.7,0.9c1-0.3,1.1-1.6,1.8-2.3C205.4,0.2,205.4,0.1,205.4,0z"/>
		<path class="st2" d="M2,6.9c0.2,0,0.5,0,0.7,0C5,9,6.9,11.4,7.6,14.5c0.2,0.9,0.3,1.8,0.8,2.7c0.5-1.1,0.5-2-0.1-3
			C7.9,10.9,6.4,8.1,4,5.7C3.1,4,1.7,2.7,0.4,1.3C0.1,0.9-0.4,0.6,0.1,0C0.7,0,1.4,0,2,0c1.7,1.8,3.3,3.7,4.8,5.7
			c1.1,2,2.6,3.8,3.2,6c0.3,1.1,0.6,2.2,0.9,3.2c-0.1,1.4,0.2,2.8-0.2,4.1c-0.2,0.9-0.8,1.3-1.7,1.3c-1.5,0-2.9,0.1-4.4-0.4
			c-0.5-0.2-1.2-0.3-1.5,0.4c-0.3,0.6,0.2,1,0.6,1.4c0.7,0.6,1.5,0.7,2.3,0.3c0.7-0.4,1.4-0.3,2,0.1c0.2,0.1,0.3,0.3,0.3,0.6
			c0,0.3-0.3,0.4-0.5,0.4c-2.5,0.1-5.1,0.2-7.6-0.1c-0.5,0-0.4-0.4-0.4-0.7c0-0.9,0-1.7,0-2.6c0.4,0,0.9,0,1.3,0
			c0.7,0,0.9-0.4,0.8-1c-0.1-0.6-0.5-0.7-1.1-0.6c-0.3,0.1-0.7,0.2-1.1,0.1c0-2.1,0-4.2,0-6.3c0.7,0.7,0.8,1.8,1.6,2.4
			c0.7,2.1,2.4,3,4.4,3.5c0.3,0.3,0.6,0.5,1,0.5c0.3,0,0.7-0.1,0.5-0.5C6.9,16.9,6.3,16,6,15c-0.1-0.3-0.5-0.3-0.8-0.3
			c-0.2-0.2-0.4-0.3-0.6-0.5c-0.3-0.3-0.9-0.5-0.8-1.1c0.2-0.6,0.7,0,1.1-0.1c0.2,0,0.5,0.1,0.6-0.2c0.1-0.2-0.1-0.4-0.2-0.5
			c-0.5-0.4-1-0.8-1.6-1.2c-0.3-0.4-0.6-0.7-1-1.1C3.1,9.8,3.6,10.2,4,9.9C3.6,8.7,2.2,8.2,2,6.9z"/>
		<path class="st1" d="M116.4,11.4c0-0.4-0.1-0.8-0.1-1.2c0.8-0.4,0.5-1.2,0.5-1.8c-0.4-2.8-0.6-5.6-0.7-8.4c4.9,0,9.8,0,14.6,0
			c-0.1,0.1-0.2,0.2-0.2,0.2c-1.1-0.2-1.6,0.2-1.5,1.4c0.1,1.3,0,2.7,0,4c0,1.5-0.6,2.1-2.1,2.2c-0.4,0-0.8,0-1.2,0
			c-1.3,0-1.7,0.4-1.5,1.7c0.3,2.1,0.5,4.1,0.5,6.2c-0.9,0.4-1.3,0-1.5-0.8c-0.3-1.8-0.5-3.7-0.7-5.5c-0.4-2.8-0.9-5.7-0.7-8.6
			c0-0.5-0.2-0.7-0.7-0.7c-0.4,0-0.8,0-1.2,0c-0.6,0.2-1.6-0.5-1.7,0.7c-0.1,1.3-0.1,2.5,0,3.8c0.3,3.6,0.7,7.3,0.7,10.9
			c-1.2,0.3-1.6,0-1.9-1.2c-0.2-0.8-0.3-1.6-0.5-2.4C116.9,11.8,116.8,11.6,116.4,11.4z"/>
		<path class="st2" d="M24.6,14.5c-0.7-0.8-1.8-1-2.7-1.4c0.7-0.7,1.4-0.1,2.1,0.2c0.3,0.2,0.6,0.2,0.8-0.1c0.2-0.4,0.1-0.7-0.3-0.9
			c-0.2-0.1-0.5-0.1-0.8-0.1c-2.3-0.4-3.6,0.1-3.4-3.6c0-0.6-0.1-1.2-0.6-1.8c-0.9,2.1-0.6,4.1-0.2,6.1c-0.5,0.1-1.1,0.2-1.6,0.3
			c-0.3-0.4-0.9-0.3-1.2-0.8c0.2-0.3,0.6-0.4,0.9-0.5c0.7-0.3,1-0.9,0.9-1.6C18.4,6.9,18.2,3.4,18.1,0c0.8,0,1.6,0,2.4,0
			c0.3,0.4,0.2,0.9,0.2,1.4c0,2.2,0,4.3,0,6.5c0,0.6-0.2,1.3,0.2,1.9c0.4,1.5,0.6,1.7,2.9,1.6c1.5,0,2.1-0.6,2.2-2
			c0-2.2,0-4.5,0-6.7c0-2.5,0.1-2.6,2.6-2.4c-0.3,3.4-0.1,6.8-0.2,10.2c-0.4,0.8-0.6,1.6-1.2,2.3c-0.4,0.4-0.1,0.7,0.1,1.1
			c1.2,1.8,2,3.7,1.8,5.9c-0.4-0.6-0.7-0.7-1,0c-0.2,0.5-0.3,1-0.5,1.5c-0.4,1.2,0.1,1.3,1,1c-0.4,1.3-1.6,0.6-2.3,0.9
			c-0.1-0.5,0.2-0.8,0.4-1.2c0.9-2,0.3-5-1.4-6.6C25.2,15,25,14.7,24.6,14.5z"/>
		<path class="st3" d="M104.3,12.1c-0.8-1.7-1.3-3.5-1.7-5.3c-0.2-1.1-0.8-1.5-1.9-1.3c-2.5,0.4-5-0.2-7.8-0.1
			c0.8-1,1.6-1.4,2.4-1.8C96.7,3,98,2.2,99.3,1.4C99.8,1,100,0.6,100,0c0.9,0,1.8,0,2.6,0c-0.7,1.1-1.6,2.2-1.9,3.5
			c-0.1,0.3-0.3,0.7,0.1,0.9c0.4,0.2,0.7,0.1,1-0.2c1-0.9,1.8-2,2.4-3.2c0.2-0.4,0.1-0.7-0.1-1c0.7,0,1.4,0,2.2,0
			c-0.5,0.8-0.3,1.7-0.2,2.6c0.3,3,0.7,5.9,1.4,8.9C106.3,11.3,105.2,11.5,104.3,12.1z"/>
		<path class="st2" d="M6.6,0c0.6,0,1.1,0,1.7,0c0.1,0.4,0.3,0.8,0.4,1.2c0.2,0.9,0.7,1.6,1.6,1.9c0.7,0.3,1.4,0.4,1.7-0.4
			C12.1,2.2,12,1.5,11,1.3c-0.8-0.1-0.8-0.6-0.2-1.1c2.1,0,4.2,0,6.2,0c0.5,1.4,0.1,2.8-1.4,4.1c-0.4,0.4-0.8,0.7-0.7,1.3
			c0.5,2.5,0.1,4.9,0.3,7.4c-0.1,0.2-0.3,0.3-0.5,0.3c-0.6-0.1-1.3-0.2-1.9-0.3c-0.5-0.1-0.6-0.4-0.2-0.6c0.8-0.4,0.7-1,0.7-1.6
			c0-1.3-0.4-2.6-0.8-3.8c-0.2-0.5-0.5-0.9-1.1-0.8C10.1,6.3,9,5.6,7.8,5C7.6,4.5,7.3,4.1,7.1,3.6C6.5,2.5,6,1.3,6.6,0z"/>
		<path class="st4" d="M32,0c0.4,0.9,0.2,1.8,0.1,2.7c-0.3,4.3,0.1,8.4,2.7,11.9c1.1,1.4,2.4,2.5,4,3.3c1.8,0.9,2.7,3,2.2,4.8
			c-0.1,0.3-0.3,0.5-0.6,0.5c-0.4,0-0.7,0-1.1,0.1c-0.9,0.1-1.5-0.1-1.5-1.2c0-0.3,0-0.7-0.3-1c-0.2-0.8-0.8-1.1-1.5-1.4
			c-3-2.3-5.3-5.2-6-9c0-0.7,0.3-1.3,0.4-2c0.2-1.3,1-2.5,0.5-3.8c-0.6-1.6-0.2-3.4-0.6-5C30.9,0,31.5,0,32,0z"/>
		<path class="st5" d="M279.1,11.9c-5,0-10,0-15,0c-0.5,0-1,0.2-1.4-0.2c0.2-0.5,1-0.7,1-1.4c0.6-0.6,1.6-0.9,1.4-2.1
			c0.9-0.4,1.8-0.4,2.7,0c0,1.5,0.5,2.1,1.5,2.1c0.9,0,1.4-0.7,1.4-2.2c0,0,0-0.1,0-0.1c-0.1-0.9,0.5-1,1.2-1c2.4,0,4.8,0,7.2,0
			C279.1,8.6,279.1,10.2,279.1,11.9z M275.1,10c0.9,0.1,1.6-0.1,1.6-1.1c0-0.9-0.8-1.1-1.6-1c-0.6,0-1.5-0.2-1.5,0.9
			C273.6,9.6,274.1,10.1,275.1,10z"/>
		<path class="st3" d="M57,0c-0.8,2.5,0.6,4.1,2.5,5.4c-2.4,1-3.7,0.2-3.7-2.2c0-0.5-0.1-1,0-1.5c0.2-1.1-0.3-1.5-1.4-1.5
			c-0.9,0-1.1,0.4-1,1.2c0.1,2.4,0,4.8-0.3,7.2c-0.3,3.1-1.7,5.7-4,7.8c-1.3,0.6-2.3,1.5-3.6,2c-0.5,0.2-1,0.7-1.1,1.3
			c-0.3,1.2-0.4,2.3,0,3.5c-1,0.5-1.2-0.2-1.1-0.9c0-0.5,0.1-1,0.2-1.5c0.2-1.4-0.2-2.6-1.5-3.4c-0.1-0.1-0.1-0.3-0.2-0.4
			c2,0.2,3.7-0.7,5.3-1.7c0.1-0.1,0.2-0.2,0.2-0.2l0,0c0.4,0,0.6-0.3,0.9-0.5c2.1-1.9,2.9-4.4,3.4-7.1c0.6-0.1,0.9-0.5,0.9-1.1
			c0-1.3,0.1-2.7-0.1-4c-0.1-0.7,0.3-1.7-0.9-2c-0.5,0-1,0-1.4,0c-0.3,0-0.6,0-1,0c0-0.1,0-0.2,0-0.2C51.7,0,54.4,0,57,0z"/>
		<path class="st1" d="M267.8,8.1c-0.9-0.3-1.8-0.3-2.7,0c-2-1.3-3.2-0.9-3.3,1.1c-0.1-0.1-0.3-0.1-0.4-0.2
			c-0.2-0.2-0.3-0.6-0.7-0.4c-0.4,0.2-0.3,0.6-0.2,0.9c0.1,0.3,0.3,0.6-0.1,0.8c-1.2-1.3-1.3-2.4-0.2-3.7c0.2-0.3,0.4-0.5,0.7-0.8
			c0.8-0.9,1.7-1.5,3-1.2c0.6,0.1,1.2,0,1.8,0c4.5,0,9,0,13.5,0c0,0.7,0,1.4,0,2.1c-2.4,0-4.8,0-7.2,0c-0.7,0-1.3,0.1-1.2,1
			c-0.3-0.1-0.7-0.2-1-0.3C268.9,7.2,268.3,7.3,267.8,8.1z"/>
		<path class="st1" d="M174.9,3.1c-4.3,0-8.6,0.1-12.9-0.2c-1.4-0.1-2-0.8-2.2-2.6c0-0.1,0-0.2,0-0.3c5.2,0,10.4,0,15.6,0
			C174.9,1,174.3,1.9,174.9,3.1z"/>
		<path class="st3" d="M249.1,0.2c-1,0.3-1.4,1.2-2.1,1.7c-0.3,0-0.3-0.7-0.8-0.2c-1.9,0.1-3.6,1-5.3,1.8c-1.5,0.7-2.9,0.8-4.4-0.1
			c-0.9-0.5-1.8-0.8-2.7-1.2c-1.6-0.6-1.7-0.6-1.7,1.1c-0.7-0.8-0.5-1.9,0.4-2.6c0.4-0.3,1-0.4,1.3-0.8c0.6,0,1.1,0,1.7,0
			c0.1,0.2,0.3,0.2,0.5,0.2c2.2,0.9,4.5,1,6.7,0c0-0.1,0-0.1,0-0.2c0.2,0,0.3,0,0.5,0c0.1,0.1,0.2,0.1,0.2,0c1.9,0,3.8,0,5.8,0
			C249.1,0.1,249.1,0.2,249.1,0.2z"/>
		<path class="st3" d="M15.3,13c-0.2-2.5,0.2-4.9-0.3-7.4c-0.1-0.6,0.3-0.9,0.7-1.3c1.5-1.3,2-2.7,1.4-4.1c0-0.1,0-0.2,0-0.2
			c0.3,0,0.6,0,1,0c0.1,3.4,0.3,6.8,0.4,10.2c0,0.7-0.2,1.3-0.9,1.6c-0.3,0.1-0.7,0.2-0.9,0.5C16.2,12.6,15.9,13.2,15.3,13z"/>
		<path class="st5" d="M28.6,0.3c-2.5-0.2-2.6-0.1-2.6,2.4c0,2.2,0,4.5,0,6.7c0,1.4-0.7,2-2.2,2c-0.1-0.4-0.2-0.8-0.2-1.2
			c1.3-1,1.3-1.7,0-2.8c-1.1-2-0.6-4.2-0.7-6.4c0.3-0.4,0.8-0.5,1-1c1.6,0,3.2,0,4.8,0C28.7,0.1,28.6,0.2,28.6,0.3z"/>
		<path class="st3" d="M113.9,15.9c-1.3,0.2-2-0.3-2.5-1.5c-1.3-3.5-2.1-7.2-2.3-10.9c-0.1-1.1-0.2-2.1-0.2-3.2
			c0.1-0.1,0.2-0.2,0.3-0.2c0.3,0,0.6,0,1,0c-0.2,2.2,0.4,4.4,0.5,6.5c0.1,1.2,0.2,2.5,0.7,3.7c0.1,0.3,0.2,0.7,0.7,0.6
			c0.4-0.1,0.4-0.5,0.5-0.8c0.1-0.8-0.2-1.6,0.2-2.4c0.2,0.2,0.2,0.4,0.2,0.6C113.1,10.8,113.2,13.4,113.9,15.9z"/>
		<path class="st5" d="M159.8,0c0,0.1,0,0.2,0,0.3c-0.2,0-0.5,0-0.7,0c-0.8,0-1.6,0-2.4,0c-0.2,0-0.5,0-0.7,0
			C155,0.5,154,0.1,153.3,1c0.1,1.1,0.4,2.1,0,3.2c-0.2,0.7,0.4,0.9,0.9,1c0.5,0.1,0.8,0.2,0.8,0.8c-0.4,0.2-0.8,0.1-1.3,0.2
			c-0.7,0.1-0.9,0.5-0.2,0.9c-0.1,0.3-0.2,0.6-0.3,0.9c-0.5,0.1-0.5,0.4-0.5,0.7c-0.6,1.2-0.8,2.5-0.7,3.8c0,0.2,0.1,0.5-0.2,0.6
			c-0.3,0.1-0.4-0.2-0.5-0.4c0-3.7,0.6-7.4,0.6-11.1c0-1.2-0.3-1.7-1.5-1.5c0-0.1,0-0.1,0-0.2C153.5,0,156.6,0,159.8,0z"/>
		<path class="st1" d="M112.7,7.6c-0.5,0.8-0.1,1.6-0.2,2.4c0,0.4,0,0.7-0.5,0.8c-0.5,0.1-0.6-0.3-0.7-0.6c-0.5-1.2-0.6-2.5-0.7-3.7
			c-0.1-2.2-0.7-4.3-0.5-6.5c1.1,0,2.2,0,3.4,0c0,0.1,0,0.1,0,0.2c-0.9-0.1-1.2,0.3-1.2,1.2C112.2,3.5,112.2,5.6,112.7,7.6z"/>
		<path class="st4" d="M279.1,4.8c-4.5,0-9,0-13.5,0c0-0.4-0.4-0.6-0.5-0.9c0.5-0.4,1.1-0.2,1.6-0.2c0.8-0.1,1.7,0.2,2.4-0.2
			c0.9-0.6,1.9-1.3,3.1-0.7c0,0.1,0,0.2,0,0.2c0.1,0.2,0.3,0.4,0.5,0.5c1.7,0.4,3.5,0.4,5.2,0c0.5-0.2,0.6-0.7,1-1
			C279.1,3.2,279.1,4,279.1,4.8z"/>
		<path class="st3" d="M150.4,0c0,0.1,0,0.1,0,0.2c0,0,0,0,0,0c-0.6,0-1.3,0-1.9,0c-1.2,0-2.5,0-3.7,0c-0.3,0-0.8-0.1-0.8,0.4
			c-0.1,0.8-0.5,1.7,0,2.5c0.7,1.1,0.4,2.3,0.1,3.3c-0.8,2.5-0.9,5-0.8,7.6c-0.1,0.6,0.2,1.2,0.2,1.9c-1.4,0-1.5-0.1-1.3-1.5
			c0.3-2.1,0.4-4.3,0.6-6.4c0.1-2.3,0.2-4.6,0.3-6.8c0-0.4,0-0.8-0.2-1.1C145.3,0,147.8,0,150.4,0z"/>
		<path class="st2" d="M229.6,0c2.3,1.8,1.5,3.5,0,5.4c-0.4-0.5-0.2-1.1-0.2-1.6c0-0.6,0-1.3-0.8-1.4c-0.7-0.1-0.7,0.6-0.9,1.1
			c-0.3,0.9-0.7,1.6-1.8,1.6c-0.8-0.4,0-0.7,0.1-1c0.2-0.5,0.7-1,0.1-1.6c-0.9-0.9-0.1-1.3,0.5-1.7c0.7-0.5,1.7-0.3,2.4-0.8
			C229.3,0,229.5,0,229.6,0z"/>
		<path class="st3" d="M97.8,0c-2,0.9-4,1.9-5.9,2.8c-0.7,0.3-1.3,0.2-2-0.3c-1.2-0.8-2.3-1.8-3.6-2.3c0-0.1,0-0.2,0-0.2
			C90.1,0,94,0,97.8,0z M91.1,0.3c-0.8-0.1-1.3,0.2-1.4,0.9c0,0.5,0.4,1,0.9,0.9c0.7-0.1,1.2-0.8,1.3-1.4C92,0,91.3,0.4,91.1,0.3z"
			/>
		<path class="st3" d="M174.9,3.1c-0.6-1.1,0-2.1,0.5-3.1c1.4,0,2.9,0,4.3,0c0.1,0.1,0.2,0.2,0.3,0.2c-0.1,2.8-0.1,2.8-2.8,2.8
			C176.4,3.1,175.6,3.1,174.9,3.1z"/>
		<path class="st1" d="M6.6,0C6,1.3,6.5,2.5,7.1,3.6C7.3,4.1,7.6,4.5,7.8,5c0,0.8-0.5,0.8-1,0.8C5.3,3.7,3.7,1.9,2,0
			C3.5,0,5.1,0,6.6,0z"/>
		<path class="st6" d="M272.4,2.9c0-0.1,0-0.2,0-0.2c0.5-0.5,1-1,1.4-1.5c0.2-0.2,0.4-0.5,0.3-0.7c-0.1-0.2-0.5-0.1-0.8-0.2
			c0-0.1,0-0.1,0-0.2c0.4,0,0.8,0,1.2,0c1.5,0.5,3,0.1,4.6,0.2c0,0.5,0,1,0,1.4C276.9,2.2,274.8,3.6,272.4,2.9z"/>
		<path class="st6" d="M273.1,0.3c-2,1.9-6,3-8.3,2c0.7-0.9,1.9-1,2.6-1.9c-0.9-0.4-1.9,0.2-2.8-0.4c1,0,2.1,0,3.1,0
			c0.3,0.4,0.7,0.2,1.1,0.2C270.3,0.3,271.7,0.3,273.1,0.3z"/>
		<path class="st2" d="M30.3,0c0.4,1.6,0,3.4,0.6,5c0.5,1.3-0.3,2.5-0.5,3.8c-0.1,0.7-0.4,1.3-0.4,2c-0.1,0-0.2,0-0.2,0
			c-0.4-3.1-0.6-6.2-0.5-9.3c0-0.5,0-1,0.5-1.4C30,0,30.2,0,30.3,0z"/>
		<path class="st3" d="M29.9,0c-0.5,0.3-0.5,0.9-0.5,1.4c-0.1,3.1,0.1,6.2,0.5,9.3c-0.5-0.1-0.9-0.2-1.4-0.2
			c0.1-3.4-0.1-6.8,0.2-10.2c0-0.1,0-0.2,0-0.3C29.1,0,29.5,0,29.9,0z"/>
		<path class="st3" d="M116.1,0c0.1,2.8,0.3,5.6,0.7,8.4c0.1,0.6,0.3,1.4-0.5,1.8c-0.6-1.5-0.7-3.1-0.9-4.7
			c-0.3-1.7-0.3-3.5-0.3-5.3c0.1-0.1,0.2-0.2,0.3-0.2C115.6,0,115.8,0,116.1,0z"/>
		<path class="st1" d="M23.9,0c-0.2,0.5-0.7,0.6-1,1c-0.9,0.1-1.1,0.8-1.2,1.5c-0.4,2-0.2,4-0.2,6c0,0.5,0.1,1-0.5,1.3
			c-0.4-0.6-0.2-1.3-0.2-1.9c0-2.2,0-4.3,0-6.5c0-0.5,0-0.9-0.2-1.4C21.6,0,22.7,0,23.9,0z"/>
		<path class="st4" d="M104.1,0c0.2,0.3,0.3,0.6,0.1,1c-0.5,1.3-1.4,2.3-2.4,3.2c-0.3,0.3-0.6,0.4-1,0.2c-0.4-0.2-0.2-0.6-0.1-0.9
			c0.4-1.3,1.2-2.4,1.9-3.5C103.1,0,103.6,0,104.1,0z"/>
		<path class="st1" d="M264.5,0c-0.3,1.7-3,3.1-4.5,2.4c-0.4-0.2-0.8-0.4-0.8-0.8c0-0.4,0.5-0.5,0.8-0.6c0.4-0.2,0.9-0.3,1.4-0.5
			c0.2-0.2,0.5-0.3,0.7-0.5C262.9,0,263.7,0,264.5,0z"/>
		<path class="st3" d="M10.9,0.2c-0.7,0.5-0.7,1,0.2,1.1c1,0.2,1.1,0.9,0.9,1.4c-0.3,0.8-1,0.6-1.7,0.4c-0.9-0.3-1.4-1-1.6-1.9
			C8.5,0.8,8.4,0.4,8.3,0c0.9,0,1.8,0,2.6,0C10.9,0.1,10.9,0.2,10.9,0.2z"/>
		<path class="st5" d="M279.1,21.9c-1.5,0.6-2.9,1.3-4.6,0.7c0.2-0.5,0.7-0.5,1.2-0.7c0.7-0.2,1.3-0.6,1.7-1.3
			c0.6,0,0.8-0.5,1.1-0.9c0.1-0.3,0.1-0.7,0.6-0.7C279.1,20,279.1,20.9,279.1,21.9z"/>
		<path class="st3" d="M192.9,3.3c-0.3-0.2-0.6-0.5-1-0.5c0-1,0.9-1.6,1.1-2.6c-0.8,0-1.5,0-2.2,0c0-0.1,0-0.2,0-0.3
			c1.6,0,3.2,0,4.8,0c0,0.1,0,0.1,0,0.2c-0.5,0.1-0.8,0.4-1.1,0.8C193.9,1.8,193.4,2.6,192.9,3.3z"/>
		<path class="st2" d="M272.4,2.9c2.4,0.7,4.5-0.7,6.7-1.2c0,0.2,0,0.5,0,0.7c-0.4,0.3-0.5,0.8-1,1c-1.7,0-3.5,0-5.2,0
			C272.7,3.3,272.5,3.1,272.4,2.9z"/>
		<path class="st6" d="M86.3,0c0,0.1,0,0.2,0,0.2c-6.3,0-12.7,0-19,0c0-0.1,0-0.2,0-0.2C73.6,0,80,0,86.3,0z"/>
		<path class="st3" d="M67.3,0c0,0.1,0,0.2,0,0.2c-0.2,0.2-0.3,0.5-0.5,0.6c-0.5,0.4-0.9,1.4-1.6,1.1c-0.6-0.2-0.1-1.1-0.3-1.7
			c0-0.1,0-0.2,0-0.3C65.7,0,66.5,0,67.3,0z"/>
		<path class="st5" d="M262.1,0c-0.2,0.2-0.5,0.3-0.7,0.5c-0.3-0.4-0.8-0.2-1.2-0.2c-3.7,0-7.3,0-11,0c0-0.1,0-0.1,0-0.2
			C253.4,0,257.7,0,262.1,0z"/>
		<path class="st1" d="M59.3,1.5C59.1,1,59.1,0.4,58.7,0c0.7,0,1.4,0,2.2,0c0,0.1,0,0.2,0,0.3c0,0.2,0,0.5,0,0.7
			C60.4,1.3,59.9,1.5,59.3,1.5z"/>
		<path class="st6" d="M195.5,0.2c0-0.1,0-0.1,0-0.2c3.3,0,6.6,0,9.8,0c0,0.1,0,0.2,0,0.2C202.1,0.3,198.8,0.2,195.5,0.2z"/>
		<path class="st3" d="M141,0c0,0.1,0,0.2,0,0.2c-0.4,0-0.8,0-1.2,0c-2.5,0-5,0-7.5,0c-0.1-0.1-0.1-0.2-0.2-0.3
			C135.1,0,138.1,0,141,0z"/>
		<path class="st5" d="M235.9,0.3c-0.2,0-0.4,0-0.5-0.2c2.4,0,4.8,0,7.2,0c0,0.1,0,0.1,0,0.2C240.4,0.2,238.1,0.3,235.9,0.3z"/>
		<path class="st6" d="M10.9,0.2c0-0.1,0-0.1,0-0.2c2.1,0,4.2,0,6.2,0c0,0.1,0,0.2,0,0.2C15.1,0.3,13,0.3,10.9,0.2z"/>
		<path class="st3" d="M273.1,0.3c-1.4,0-2.8,0-4.2,0c-0.4,0-0.8,0.1-1.1-0.2c1.8,0,3.7,0,5.5,0c0,0.1,0,0.1,0,0.2
			C273.3,0.2,273.2,0.3,273.1,0.3z"/>
		<path class="st3" d="M279.1,0.3c-1.5-0.1-3.1,0.3-4.6-0.2c1.4,0,2.8,0,4.2,0C278.9,0,279.2-0.1,279.1,0.3z"/>
		<path class="st6" d="M60.9,0.3c0-0.1,0-0.2,0-0.3c1.4,0,2.7,0,4.1,0c0,0.1,0,0.2,0,0.3C63.6,0.3,62.2,0.3,60.9,0.3z"/>
		<path class="st5" d="M218.1,0.2c0-0.1,0-0.1,0-0.2c1.2,0,2.4,0,3.6,0c0,0.1,0,0.1,0,0.2c-0.3,0-0.6,0-1,0
			C219.9,0.3,219,0.2,218.1,0.2z"/>
		<path class="st1" d="M115.3,0c-0.1,0.1-0.2,0.2-0.3,0.2c-0.1-0.1-0.1-0.2-0.2-0.2C115,0,115.2,0,115.3,0z"/>
		<path class="st1" d="M109.1,0c-0.1,0.1-0.2,0.2-0.3,0.2c-0.1-0.1-0.1-0.2-0.2-0.2C108.8,0,108.9,0,109.1,0z"/>
		<path class="st5" d="M243.3,0c-0.1,0.1-0.2,0.1-0.2,0C243.2,0,243.2,0,243.3,0z"/>
		<path class="st2" d="M220.8,0.3c0.3,0,0.6,0,1,0c1.3,1.8,1.5,3.8,0.9,5.9c-0.1-0.1-0.1-0.1-0.1-0.2c-0.3-0.5-0.1-1.3-1-1.2
			c-0.9,0.1-0.7,0.9-0.7,1.5c0,0.6,0,1.2-0.5,1.5c-1.5,1-1,2.2-0.6,3.4c0.9-0.2,0.2-1.4,1.1-1.5c-0.3,0.8-0.1,1.5,0.1,2.3
			c0.6,3.2,1.7,6.3,1.9,9.6c0.1,1-0.2,1.4-1.3,1.4c-5.3-0.1-10.6-0.1-16,0c-1,0-1.3-0.3-1.3-1.3c0.2-3.4,0.4-6.8,0.7-10.1
			c0-0.6-0.1-0.9-0.7-1.1c-2-0.7-3.4,0.1-3.8,2.1c-0.5,2.4-0.6,4.9-0.9,7.4c-0.1,0.8-0.2,1.6-0.2,2.4c0,0.8-0.4,0.8-1,0.8
			c-0.7,0-0.8-0.4-0.7-0.9c0.3-2.9,0.6-5.9,1.3-8.8c0.1-0.5,0.2-1,0.3-1.5c0.1-0.5,0.8-1.1-0.1-1.3c-0.7-0.2-1.6-0.4-2,0.6
			c-0.6,1.4-1,2.8-1.3,4.3c-0.4,2.2-0.7,4.5-1,6.8c-0.1,0.5-0.2,0.8-0.8,0.8c-0.1,0-0.2,0-0.2,0c-2.4,0.1-2.6-0.1-2.3-2.5
			c0.5-3.3,1.2-6.5,2.4-9.6c0.3-0.8,0.2-1.5-0.2-2.2c-1-1.8-1.1-3.7-0.6-5.6c0.5-0.8,1-1.5,1.6-2.3c0.3-0.4,0.6-0.8,1.1-0.8
			c3.3,0,6.6,0,9.9,0c-0.7,0.7-0.8,1.9-1.8,2.3c-1,0.3-1.7-0.6-2.7-0.9c-1.7-0.5-3.2-0.2-4.4,1c-1.1,1.1-1.7,2.4-1.2,4
			c0.5,1.4,1.8,2.3,3.5,2.1c3.2-0.3,6.5-0.1,9.7-0.2c2.7,0,5.4,0,8,0c2.3,0,3.6-1.3,3.8-3.6c0.1-1.3-0.6-2.3-0.8-3.4
			c0.5-0.3,0.9-0.3,1,0.4c0.1,0.5,0.2,1.1,0.3,1.6c0.1,0.4,0.4,0.6,0.9,0.5c0.5-0.1,0.5-0.5,0.4-0.8c-0.1-0.6-0.1-1.4-0.8-1.6
			C220.7,1.3,220.8,0.8,220.8,0.3z"/>
		<path class="st5" d="M46.9,15.2c-1.6,1-3.3,1.9-5.3,1.7c-2.2-0.3-3.9-1.6-5.2-3.3c-2.4-3.2-2.7-6.8-2.3-10.6c0-0.5,0.1-1,0.1-1.5
			c0-0.5-0.1-1.2,0.8-1.2c0.8,0,0.9,0.6,0.9,1.3c0,1.9,0,3.9,0,5.8c0,0.3,0,0.6,0,0.8c0.1,0.7,0.6,0.9,1.2,0.8c0.7,0,0.9-0.4,0.9-1
			c-0.2-2.1-0.3-4.2-0.2-6.3c0-0.7,0-1.3,0.9-1.3c1.1,0,1.1,0.7,1,1.4c-0.2,1.4-0.3,2.7-0.2,4.1c0,0.6,0.1,1.3,0.8,1.3
			c0.8,0,0.9-0.7,0.9-1.3c0-1.5,0-2.9,0-4.4c0-0.7,0.2-1,1-1.2c2.3-0.4,4.6-0.1,6.9-0.2c0.3,0,0.6,0,1,0c-0.4,1.7-0.2,3.5-0.2,5.2
			c0,2.2-0.4,4.2-1.2,6.2c-0.4,1.1-1.3,2.1-1.5,3.3c0,0,0,0,0,0C47,15,46.7,14.9,46.9,15.2z"/>
		<path class="st5" d="M172,23.1c-2.6,0-5.3,0-7.9,0c-0.9,0-1.2-0.2-1.3-1.2c-0.2-3.8-0.2-7.6-0.2-11.4c0-0.8-0.3-1.6-0.2-2.5
			c0.1-0.9,0.3-1.6,1.4-1.3c0,1.5,0,3,0,4.5c-0.2,0.4-0.3,0.8-0.5,1.2c-0.8,2.2,0.4,4,2.7,4c1.8,0,2.1-0.2,2.3-1.7
			c0.7-1-0.2-2.1,0-3.1c0-1.1,0-2.1,0-3.2c0-1.3,0.5-1.8,1.8-1.8c0.8,0,1.5,0,2.3,0c0,2.3,0.7,4.5,0.2,6.8c-1.1,0.5-0.6,1.4-0.5,2.2
			c0.4,0.6,0.5,1.3,0.5,2C172.8,19.6,172.3,21.3,172,23.1z"/>
		<path class="st6" d="M172.7,13.5c0.5-2.3-0.2-4.6-0.2-6.8c1-0.3,2.1-0.2,2.9-1c0.2,0.2,0.2,0.5,0.2,0.8
			c-0.1,5.5-0.2,11.1-0.3,16.6c-1.1,0-2.2,0-3.3-0.1c0.3-1.8,0.8-3.5,0.7-5.3c0-0.7-0.1-1.4-0.5-2c0.4,0,0.7,0,1.1,0
			c0.8-0.1,1.2-0.8,0.9-1.5C173.9,13.4,173.3,13.6,172.7,13.5z"/>
		<path class="st3" d="M6.8,5.7c0.6,0,1.1,0,1-0.8c1.2,0.6,2.2,1.4,3.7,1.3c0.5,0,0.9,0.3,1.1,0.8c0.4,1.2,0.7,2.5,0.8,3.8
			c0,0.6,0.1,1.2-0.7,1.6c-0.4,0.2-0.3,0.5,0.2,0.6c0.6,0.1,1.3,0.2,1.9,0.3c0.3,0.8-0.6,1.2-0.7,1.8c-0.5,0.4-0.9,0.8-1.4,1.2
			c-0.7,0-1.3,0-1.3-1c0-0.2-0.2-0.4-0.5-0.5c-0.3-1.1-0.6-2.1-0.9-3.2C9.4,9.5,7.9,7.7,6.8,5.7z"/>
		<path class="st4" d="M79.3,20.4c-0.2-0.6-0.2-1,0.6-0.9c1,0.1,1.9,0,2.9,0c2.7,0,5.4-0.2,8.2-0.6c3.1-0.4,6.3-0.1,9.4-0.1
			c0.1,0,0.2,0,0.4,0.1c0.4,0.1,0.7,0.4,0.6,0.9c-0.1,0.5-0.4,0.5-0.8,0.5c-0.9,0.1-1.8-0.2-2.7-0.5c-0.7-0.2-1.4-0.4-2.2,0
			c0.5,0.4,1.3,0.2,1.4,1c0.2,0.8,0.3,1.5,0.5,2.3c-0.7,0.1-1.4,0.5-2.1,0c0-0.3-0.1-0.6,0-0.8c0.2-1.2-0.5-1.6-1.5-1.7
			c-0.6,0-1.3,0-1.9,0c-2.6,0-2.6,0-2.5,2.6c-0.6,0-1.1,0-1.7,0c0-0.7-0.1-1.5-0.5-2.1c-0.3-0.5-0.8-0.5-1.2-0.5
			C83.8,20.5,81.6,20,79.3,20.4z"/>
		<path class="st6" d="M25.3,15.4C27,17,27.6,20,26.7,22c-0.2,0.4-0.5,0.7-0.4,1.2c-0.7,0-1.5,0-2.2,0.1c0-0.8,0.8-1.6,0.3-2.5
			c-0.2-0.3-0.3-0.8-0.6-0.4c-0.8,1-1.9,1.6-2.4,2.8c-1.1,0.1-2.1,0.3-3.2-0.1c-0.3-0.6-1.1-1.1-0.9-2c0.6-0.1,1,0.3,1.4,0.6
			c0.8,0.6,1.5,0.5,2.2-0.2c0.6-0.6,0.8-1.2,0.7-2l0,0c1.3-0.3,1.4-0.6,0.7-1.7c-0.1-0.2-0.2-0.5-0.2-0.7c0.2-0.1,0.3-0.1,0.5-0.2
			c0.1,0.3,0.3,0.5,0.6,0.4C24,16.9,25.1,16.7,25.3,15.4z"/>
		<path class="st6" d="M141.3,23.2c-4.5,0-8.9,0.1-13.4,0.1c-1.8,0-3.6,0-5.4-0.1c0-0.2,0-0.3-0.2-0.4c0.1-0.2,0.3-0.5,0.5-0.4
			c1.1,0.1,2.2-0.4,3.4-0.1c1.5,0.3,3,0.2,4.5-0.4c1-0.1,1.9-0.1,2.9-0.2c0.1,0.5,0.5,0.4,0.8,0.5c2.7,0,5.3,0,8,0.2
			c2.8,0.2,5.6,0,8.3-0.6c0.4-0.1,0.8,0,1.1,0.2c0.1,0.8-0.3,1-1.1,1c-2.8,0-5.6,0-8.4,0C142,22.8,141.5,22.6,141.3,23.2z"/>
		<path class="st2" d="M190.8,0.3c0.7,0,1.4,0,2.2,0c-0.2,1-1.1,1.6-1.1,2.6c-0.8,1.1-0.9,2.3-0.7,3.6c0.3,2.2-0.2,4.3-0.6,6.4
			c0,0.2-0.1,0.4-0.3,0.4c-0.2,0-0.3-0.2-0.4-0.4c-0.1-0.3-0.2-0.7-0.3-1c1-0.5,0.7-1.5,1-2.3c0.6-2,0.3-2.3-1.7-2.9
			c-0.2-1.2-0.3-1.3-1.6-0.6c-0.2-0.4-0.5-0.6-0.9-0.3c-0.3,0.2-0.7,0.4-1.1,0.4c0.7-1.4,1.9-2.5,2.4-4c0.1-0.3,0.4-0.4,0.7-0.4
			c0.4,0,0.5,0.3,0.6,0.6c0.1,0.3,0.2,0.6,0.4,1.1C189.7,2.2,190.9,1.6,190.8,0.3z"/>
		<path class="st5" d="M177.3,23c0-0.3,0-0.6,0-0.8c0.1-5.2,0.2-10.5,0.2-15.7c0-0.6,0.1-1.2,0.8-1.2c0.8,0,0.6,0.7,0.6,1.2
			c0,5.5,0,11.1,0,16.6C178.4,23.1,177.8,23.1,177.3,23z"/>
		<path class="st4" d="M185.2,6.2c0.4,0,0.8-0.2,1.1-0.4c0.4-0.4,0.7-0.2,0.9,0.3c0,0.3,0,0.6,0,0.9c0,0,0,0.1-0.1,0.1
			c0,0,0-0.1,0.1-0.1c0.6,0,1.1-0.1,1.6-0.2c2,0.6,2.3,0.9,1.7,2.9c-0.2,0.8,0,1.8-1,2.3c-0.5-0.3-1-0.3-1.5-0.1
			c-1,0.5-2.1,0.6-3-0.2c-1-0.9-1.3-2.1-0.9-3.4C184.3,7.4,184.7,6.8,185.2,6.2z M187.9,7.9c-1.1,0-2.1,0.7-2.1,1.4
			c0,0.7,0.5,1.1,1.2,1.1c0.9,0,1.9-1,1.8-1.9C188.8,7.9,188.3,7.9,187.9,7.9z"/>
		<path class="st4" d="M44.3,23.1c-0.4-1.2-0.3-2.3,0-3.5c0.2-0.6,0.6-1.1,1.1-1.3c1.3-0.5,2.4-1.4,3.6-2c0.7,0.6,1.1,0,1.5-0.4
			c0.4-0.3,0.8-0.9,1.3-0.3c0.4,0.5,0.1,1.1-0.4,1.4c-0.7,0.4-1.5,0.7-2.2,1.1c-0.6,0.4-1.4,0.7-1,1.7c-0.7,0.9-1.1,1.9-1,3.1
			C46.2,23.4,45.2,23.3,44.3,23.1z"/>
		<path class="st4" d="M235.9,18.1c0.1,1.2,0.7,2.2,1.1,3.2c0.2,0.6,0.4,1.2,0.4,1.8c-2.7,0.2-5.4,0-8.3,0.1c1.1-1,2.1-1.4,3.1-1.9
			c1.7-0.7,2.4-1.7,2.3-3.6c0.4,0,0.8,0,1.2,0C235.7,17.9,235.8,18,235.9,18.1z"/>
		<path class="st3" d="M175.4,5.7c-0.8,0.8-1.9,0.7-2.9,1c-0.8,0-1.5,0-2.3,0c-1.3,0-1.8,0.5-1.8,1.8c0,1.1,0,2.1,0,3.2
			c-0.6-0.2-1.1-0.5-1.4-1c0.4-1.1,0.2-2.2,0-3.3c-0.1-0.5-0.4-0.5-0.8-0.5c-0.4,0-0.7,0.2-0.7,0.6c0,1.1-0.1,2.1,0.2,3.2
			c-0.7,0.1-1.2,0.6-1.9,0.5c0-1.5,0-3,0-4.5c2.6-0.5,5.2-0.3,7.8-0.7c0.6-0.1,1.1-0.3,1.6-0.5C173.9,5.6,174.7,5.2,175.4,5.7z"/>
		<path class="st3" d="M1.5,14.3c-0.8-0.6-0.9-1.7-1.6-2.4c0-1.7,0-3.4,0-5.1c0-0.6-0.4-1.6,0.7-1.6C1.4,5.3,1.9,6,2,6.9
			c0.2,1.3,1.6,1.8,2,3C3.6,10.2,3.1,9.8,2.8,10c0.3,0.4,0.6,0.7,1,1.1c-0.3,0.6-0.8,0.6-1.2,0.1c-0.3-0.3-0.4-1.1-1.1-0.7
			c-0.7,0.4-0.4,1-0.3,1.5c0.1,0.4,0.2,0.7,0.5,1.1C1.8,13.6,1.9,13.9,1.5,14.3z"/>
		<path class="st4" d="M186,23.3c-0.2,0-0.5,0-0.7,0c-0.6,0-1.3,0.1-1.7-0.6c-0.4-0.8-0.2-1.6,0.4-2.2c0.7-0.7,1.5-1.3,2.6-1.2
			c1,0.2,1.5,0.9,1.8,1.8c0.5,1.3-0.1,2.1-1.5,2.1C186.6,23.3,186.3,23.3,186,23.3z"/>
		<path class="st2" d="M22.4,16.9c-0.2,0.1-0.3,0.1-0.5,0.2C21.6,17,21.3,17,21,16.9c-1.7-0.3-3.2,0.5-3.9,2.1
			c-0.5,0.7-0.2,1.4,0,2.1c-0.2,0.9,0.6,1.3,0.9,2c-1.2-0.3-1.7-1-1.9-2.7c-0.4-3.4,1.5-5.4,5.2-5.6c0.6,0,1.1,0,1.7,0
			C23.3,15.6,22.7,16.2,22.4,16.9z"/>
		<path class="st4" d="M141.3,23.2c0.2-0.6,0.7-0.4,1.1-0.4c2.8,0,5.6,0,8.4,0c0.7,0,1.2-0.1,1.1-1c0.1-0.4,0.2-0.8,0.2-1.2
			c0.6-0.7,1.6-1,1.5-2.2c0-0.2,0.3-0.4,0.5-0.3c0.3,0.1,0.5,0.3,0.6,0.7c0.1,0.6-0.2,1.2,0.3,1.7c0,0.2,0,0.4-0.1,0.6
			c-0.9,2.5-0.4,2.2-3.1,2.1c-2.5-0.1-4.9,0-7.4,0.1C143.4,23.3,142.4,23.2,141.3,23.2z"/>
		<path class="st2" d="M12.6,16.4c0.5-0.4,0.9-0.8,1.4-1.2c0.3,0.3,0.5,0.5,0.8,0.8c-0.8,1.9-1.1,3.9-0.4,6c0.1,0.3,0.6,0.9,0,1.1
			c-0.7,0.1-1.7,0.6-2.1-0.5c-0.6-1.6-0.7-3.3-0.1-5C12.4,17.2,12.5,16.8,12.6,16.4z"/>
		<path class="st5" d="M89.5,23.1c-0.1-2.6-0.1-2.6,2.5-2.6c0.6,0,1.3,0,1.9,0c1.1,0.1,1.7,0.5,1.5,1.7c0,0.3,0,0.5,0,0.8
			C93.4,23.1,91.5,23.1,89.5,23.1z"/>
		<path class="st6" d="M97.6,23c-0.2-0.8-0.3-1.5-0.5-2.3c0.9,0,1.8,0,2.7,0c2.4,0,2.6,0.2,3.3,2.5C101.3,23.3,99.4,23.4,97.6,23z"
			/>
		<path class="st3" d="M47.2,23.1c-0.2-1.2,0.2-2.2,1-3.1c0.7-0.5,1.5-0.9,2.2-1.4c0.3-0.2,0.6-0.6,1-0.4c0.4,0.2,0.3,0.8,0.3,1.2
			c0.1,1.3-0.5,2.5-0.5,3.7c-0.5-0.1-1,0.2-1.4-0.3c0.5-0.6,0.7-1.2,0.1-1.7c-0.4-0.3-0.9-0.3-1.2,0.2c-0.5,0.7-0.2,1.1,0.4,1.5
			C48.5,23.3,47.8,22.9,47.2,23.1z"/>
		<path class="st3" d="M4,5.7c2.4,2.4,3.9,5.2,4.3,8.6c-0.2,0.1-0.5,0.1-0.7,0.2C6.9,11.4,5,9,2.7,6.9C3.1,6.5,3.6,6.1,4,5.7z"/>
		<path class="st4" d="M19.5,12.8c-0.5-2-0.7-4,0.2-6.1c0.5,0.6,0.6,1.2,0.6,1.8c-0.2,3.7,1.1,3.1,3.4,3.6c0.3,0.1,0.6,0,0.8,0.1
			c0.4,0.2,0.4,0.6,0.3,0.9c-0.2,0.4-0.4,0.3-0.8,0.1c-0.7-0.3-1.3-0.8-2.1-0.2C21.1,13,20.3,12.8,19.5,12.8z"/>
		<path class="st5" d="M87.3,20.9c0.4,0.7,0.5,1.4,0.5,2.1c-2.9,0.1-5.8-0.2-8.7,0.2c-0.1,0-0.1-0.1-0.2-0.1c0-0.4,0.1-0.8,0.1-1.2
			c0.9,0.3,1.9,0.4,2.9,0.5C83.8,22.6,85.3,21,87.3,20.9z"/>
		<path class="st4" d="M220.8,9.8c-0.9,0.2-0.1,1.3-1.1,1.5c-0.4-1.3-0.8-2.5,0.6-3.4c0.5-0.3,0.5-1,0.5-1.5c0-0.6-0.1-1.4,0.7-1.5
			c0.9-0.2,0.7,0.7,1,1.2c0,0.1,0.1,0.1,0.1,0.2C222.6,7.7,221.7,8.7,220.8,9.8z"/>
		<path class="st4" d="M34.4,23c-0.3,0-0.6,0.1-0.8,0.1c-0.5,0-1.2,0.2-0.8-0.8c0.1-0.4-0.1-0.7-0.3-1c-0.3-0.5-0.3-1,0.1-1.4
			c0.4-0.5,1-0.5,1.5-0.3c0.5,0.2,1,0.6,1.5,0.9C35.6,21.5,34.6,22.1,34.4,23z"/>
		<path class="st5" d="M77.2,22.4c0,0.2,0,0.5,0,0.7c-2.2,0-4.4,0-6.6,0c-0.5,0-0.7-0.2-0.3-0.6c0.2-0.3,0.5-0.5,0.9-0.5
			C73.2,22,75.2,21.5,77.2,22.4z"/>
		<path class="st5" d="M226,5.1c1.1,0,1.5-0.6,1.8-1.6c0.1-0.4,0.1-1.2,0.9-1.1c0.8,0.1,0.8,0.8,0.8,1.4c0,0.5-0.1,1.1,0.2,1.6
			C228.5,6.3,227.1,6.2,226,5.1z"/>
		<path class="st4" d="M183.8,15.9c0.1-1.1,0.6-1.9,1.4-1.8c0.7,0,1.4,0.9,1.3,1.7c-0.1,1.2-1.2,1.2-2,1.3
			C183.7,17.2,183.8,16.5,183.8,15.9z"/>
		<path class="st3" d="M34.4,23c0.2-1,1.2-1.5,1.2-2.6c0.3-0.1,0.5-0.3,0.5-0.7c0.7,0.3,1.3,0.6,1.5,1.4c-0.1,0.1-0.4,0.3-0.4,0.4
			c0.2,1.9-1.1,1.5-2.2,1.5C34.8,23.1,34.6,23,34.4,23z"/>
		<path class="st2" d="M21.3,23.2c0.5-1.2,1.7-1.8,2.4-2.8c0.3-0.4,0.5,0.1,0.6,0.4c0.5,0.9-0.2,1.6-0.3,2.5
			C23.1,23.2,22.2,23.2,21.3,23.2z"/>
		<path class="st4" d="M14.8,16c-0.3-0.3-0.5-0.5-0.8-0.8c0.1-0.7,1.1-1,0.7-1.8c0.2,0,0.4-0.1,0.5-0.3c0.7,0.2,0.9-0.5,1.4-0.7
			c0.3,0.5,0.9,0.3,1.2,0.8C16.8,14,15.6,14.8,14.8,16z"/>
		<path class="st5" d="M22.4,16.9c0.3-0.7,0.9-1.2,0.7-2.1c0.5-0.2,1.1,0.2,1.5-0.3c0.4,0.2,0.7,0.5,0.7,0.9
			c-0.2,1.3-1.3,1.5-2.3,1.8C22.7,17.4,22.5,17.1,22.4,16.9z"/>
		<path class="st4" d="M122.3,22.8c0.2,0.1,0.2,0.2,0.2,0.4c-3,0-5.9,0.1-8.9-0.1c0-0.1,0-0.2,0-0.4c0.3,0,0.6,0,0.9,0
			C117.2,22.8,119.7,22.8,122.3,22.8z"/>
		<path class="st4" d="M28.7,22.4c-0.9,0.2-1.4,0.2-1-1c0.2-0.5,0.3-1,0.5-1.5c0.3-0.7,0.7-0.6,1,0C29.2,20.7,29.1,21.5,28.7,22.4z"
			/>
		<path class="st2" d="M30.3,17.9c0-0.4-0.1-1,0.6-1c0.7,0,1.2,0.4,1.2,1c0,0.6-0.5,1.1-1.2,1.1C30.3,19,30.3,18.4,30.3,17.9z"/>
		<path class="st6" d="M-0.1,18.3c0.4,0,0.7,0,1.1-0.1c0.5-0.2,1-0.1,1.1,0.6c0.1,0.6-0.1,1-0.8,1c-0.4,0-0.9,0-1.3,0
			C-0.1,19.3-0.1,18.8-0.1,18.3z"/>
		<path class="st2" d="M49.1,22.8c-0.6-0.4-0.9-0.8-0.4-1.5c0.3-0.5,0.8-0.5,1.2-0.2c0.7,0.5,0.4,1.2-0.1,1.7
			C49.6,22.8,49.3,22.8,49.1,22.8z"/>
		<path class="st4" d="M266.1,20.4c-0.2-0.3-0.6-0.2-0.9-0.2c-0.3,0-0.6,0.1-0.7-0.3c0-0.3,0.3-0.3,0.5-0.4c1.1-0.5,1.6-0.2,2,1
			C266.8,20.4,266.5,20.4,266.1,20.4z"/>
		<path class="st5" d="M132.4,0.3c2.5,0,5,0,7.5,0c0,2.9,0,5.7-0.2,8.6c-0.2,2.4-0.4,4.8-1.2,7c-1.4,0-2.9,0-4.3,0
			c-1.4,0-1.7-0.3-1.7-1.7C132.4,9.6,132.4,4.9,132.4,0.3z"/>
		<path class="st1" d="M133.6,21.7c-1,0.1-1.9,0.1-2.9,0.2c-0.3-0.2-0.7-0.2-1-0.3c-2.1-0.5-4.1,0.2-6.2,0c-0.4-0.9-0.7-0.9-1.2-0.2
			c-0.4,0-0.8,0-1.2,0c-0.2-0.8-0.7-1.2-1.4-1.1c-0.6,0.1-1.3,0-1.9,0.1c-0.4-0.7-2.4-1.1-2.8-0.5c-0.1,0.2,0,0.4,0.1,0.5
			c-0.2,0.6-0.6,0.5-1,0.3c-0.4-0.2-0.7-0.4-1.1-0.6c0,0,0-0.1,0-0.1c-1.1-2.5-1.2-2.3,1.5-2.3c4.6,0,9.3-0.1,13.9,0.1
			c5.5,0.2,11,0,16.5,0.2c-0.1,1.1-1.4,0.8-1.7,1.6c-4.2,0.1-8.5,0.2-12.7,0.2c-0.2-0.2-0.4-0.2-0.7-0.2c-2.4,0-4.9,0-7.3,0
			c-0.3,0-0.8-0.1-0.8,0.3c0,0.6,0.5,0.4,0.8,0.4c2.7,0.2,5.3,0,8,0c3.9,0,7.8,0,11.7,0.1c0.1,0.8,1.1,0.1,1.3,0.9
			C140.2,21.9,136.9,21.5,133.6,21.7z"/>
		<path class="st5" d="M124.7,15.7c0-2.1-0.2-4.2-0.5-6.2c-0.2-1.2,0.2-1.6,1.5-1.7c0.4,0,0.8,0,1.2,0c1.5-0.1,2.1-0.7,2.1-2.2
			c0-1.3,0.1-2.7,0-4c-0.1-1.2,0.3-1.6,1.5-1.4c0,4.7,0,9.3,0,14c0,1.5-0.2,1.7-1.7,1.7C127.4,15.9,126.1,15.9,124.7,15.7z"/>
		<path class="st5" d="M143.2,14c0-2.6,0-5.1,0.8-7.6c0.3-1,0.7-2.2-0.1-3.3c-0.5-0.8-0.1-1.7,0-2.5c0.1-0.5,0.5-0.4,0.8-0.4
			c1.2,0,2.5,0,3.7,0c0.2,0.6,0.3,1.3,0.2,2c-0.2,2.1-0.5,4.2-0.4,6.3c0,0.3-0.1,0.4-0.3,0.6c-1.1,0.5-1.1,1.7-1.1,2.5
			c0.1,0.7,1.2,0.2,1.9,0.4c0,0,0.1,0,0.1,0c0,0.3,0.1,0.5-0.2,0.7c-0.9,0.3-1.9,0.6-2.9,0.7c0,0-0.1,0-0.1-0.1c0,0,0.1,0,0.1,0.1
			c0.3,0.9,0.3,1.7,0,2.6c-0.2,0-0.5,0-0.7,0c-0.2-0.6-0.4-1.1-0.2-1.7c0.2-0.6-0.1-0.6-0.6-0.7C143.9,13.5,143.6,13.8,143.2,14z
			 M147.5,8.3c0-0.4-0.2-0.5-0.5-0.4c-0.5,0.1-1.1,0.2-1.3,0.9c-0.1,0.3,0.1,0.6,0.5,0.5C146.7,9.2,147.3,9.1,147.5,8.3z"/>
		<path class="st6" d="M155.9,0.3c0.2,0,0.5,0,0.7,0c0,2.1,0.1,4.3-0.3,6.4c-0.5,1.2-0.5,2.5-0.7,3.8c-0.3,1.7-0.4,1.9-2.1,1.7
			c-0.3,0-0.6-0.1-0.7,0.2c-0.1,0.2,0,0.4,0.1,0.5c0.6,0.7,0.6,0.7,0,1.2c0.8,0.2,0.8,0.2,2-1.1c-0.2,1.1-0.2,2.2-1.4,2.5
			c-0.8,0.2-1.8,0.9-2.5-0.1c-0.8-0.9-0.2-1.8,0.3-2.6c0.1,0.2,0.3,0.5,0.5,0.4c0.3-0.1,0.2-0.4,0.2-0.6c-0.1-1.3,0.2-2.6,0.7-3.8
			c0.2,0,0.3,0,0.5,0c0.5,0,1.2,0,1.3,0.6c0.2,0.7-0.6,0.5-1,0.8c-0.2,0.1-0.6,0.1-0.5,0.5c0.1,0.3,0.4,0.2,0.6,0.3
			c0.6,0,1.1,0,1.3-0.7c0.4-1.3,0.1-1.8-1.8-2.2c0.1-0.3,0.2-0.6,0.3-0.9c1.8,0,1.8,0,1.4-1.2c0.1-0.6-0.3-0.7-0.8-0.8
			c-0.5-0.1-1.1-0.3-0.9-1c0.4-1.1,0.1-2.2,0-3.2c0.6,0.1,1.2-0.5,1.9-0.1C156.1,1.5,155.9,0.8,155.9,0.3z"/>
		<path class="st5" d="M119,15.7c0.1-3.7-0.4-7.3-0.7-10.9c-0.1-1.3-0.1-2.5,0-3.8c0.1-1.2,1.1-0.5,1.7-0.7
			c0.2,4.8,0.6,9.6,1.4,14.3c0.2,1-0.3,1.4-1.2,1.3C119.7,15.9,119.3,15.8,119,15.7z"/>
		<path class="st5" d="M112.7,7.6c-0.5-2-0.5-4.1-0.5-6.2c0-0.9,0.2-1.3,1.2-1.2c0.4,4.6,0.8,9.3,1.7,13.9c0.3,1.4,0,1.8-1.2,1.7
			c-0.7-2.5-0.8-5.1-0.9-7.6C112.9,8,112.9,7.8,112.7,7.6z"/>
		<path class="st6" d="M148.9,11.9c0,0-0.1,0-0.1,0c-0.7-0.2-1.8,0.3-1.9-0.4c-0.1-0.8-0.1-2,1.1-2.5c0.2-0.1,0.3-0.3,0.3-0.6
			c-0.1-2.1,0.2-4.2,0.4-6.3c0.1-0.7,0-1.3-0.2-2c0.6,0,1.3,0,1.9,0c-0.3,3.6-0.5,7.3-1.4,10.8C149,11.4,149,11.6,148.9,11.9z"/>
		<path class="st5" d="M133.6,21.7c3.3-0.2,6.6,0.3,9.9-0.3c-0.2-0.8-1.2-0.1-1.3-0.9c3.3,0.1,6.6,0.1,9.9,0.2
			c-0.1,0.4-0.2,0.8-0.2,1.2c-0.4-0.2-0.7-0.3-1.1-0.2c-2.7,0.7-5.5,0.8-8.3,0.6c-2.7-0.2-5.3-0.2-8-0.2
			C134.1,22.1,133.7,22.1,133.6,21.7z"/>
		<path class="st6" d="M138.4,15.9c0.8-2.3,1.1-4.6,1.2-7c0.2-2.9,0.2-5.7,0.2-8.6c0.4,0,0.8,0,1.2,0c0.1,3.8-0.2,7.6-0.7,11.4
			c-0.1,0.9-0.2,1.9-0.3,2.8C140,15.6,139.6,16.1,138.4,15.9z"/>
		<path class="st3" d="M143.2,19.7c0.3-0.8,1.6-0.5,1.7-1.6c2.3,0,4.7,0,7,0c0.3,0,0.8-0.1,0.9,0.4c0.1,0.5-0.1,0.9-0.5,1.1
			c-0.5,0.3-1,0.4-1.6,0.4C148.2,19.6,145.7,19.8,143.2,19.7z"/>
		<path class="st3" d="M113,20.2c0.4,0.2,0.7,0.4,1.1,0.6c0.4,0.2,0.8,0.4,1-0.3c0.9,0,1.8,0,2.7,0c0.6-0.1,1.2,0,1.9-0.1
			c0.7-0.1,1.3,0.3,1.4,1.1c-1.4,0.5-2.8,0.1-4.2,0.2c-1,0.1-1.7,0.4-2.3,1.2c-0.3,0-0.6,0-0.9,0C113.6,21.9,113,21.1,113,20.2z"/>
		<path class="st4" d="M156.4,6.7c0.3-2.1,0.2-4.3,0.3-6.4c0.8,0,1.6,0,2.4,0c0,0.7,0,1.3-1,1c-0.5-0.2-0.6,0.3-0.7,0.7
			c-0.1,1.7,0.2,3.4,0.4,5.1c0,0.1,0.1,0.2,0.1,0.2c-0.1,0.7,0.5,1.8-0.5,1.9c-1.1,0.1-0.4-1-0.6-1.5C156.6,7.3,156.7,6.9,156.4,6.7
			z"/>
		<path class="st6" d="M145.8,15.9c0.4-0.9,0.3-1.7,0-2.6v0c1-0.1,1.9-0.4,2.9-0.7c0,0.2,0,0.4,0,0.6
			C148.7,15.6,148.3,16,145.8,15.9z"/>
		<path class="st6" d="M130.5,20.4c-2.7,0-5.3,0.2-8,0c-0.3,0-0.8,0.2-0.8-0.4c0-0.4,0.5-0.3,0.8-0.3c2.4,0,4.9,0,7.3,0
			c0.2,0,0.5,0,0.7,0.2C130.5,20.1,130.5,20.3,130.5,20.4z"/>
		<path class="st6" d="M143.2,14c0.4-0.2,0.7-0.5,1.2-0.5c0.4,0,0.8,0,0.6,0.7c-0.2,0.6,0,1.1,0.2,1.7c-0.6,0-1.2,0-1.7,0
			C143.4,15.3,143.1,14.7,143.2,14z"/>
		<path class="st4" d="M122.1,16.7c-0.1,0.5-0.6,0.6-0.7,0.6c-1.5-1.1-3.3,0.3-4.8-0.6C118.4,16.7,120.2,16.7,122.1,16.7z"/>
		<path class="st4" d="M131.2,17.6c-0.4,0-0.8,0-0.7-0.5c0-0.4,0.3-0.8,0.7-0.8c0.4,0,0.9,0.2,0.9,0.8
			C132.1,17.5,131.6,17.6,131.2,17.6z"/>
		<path class="st4" d="M123.8,16.9c1.6,0,3.1,0,4.7,0c0,0.1,0,0.1,0,0.2c-1.6,0-3.2,0-4.8,0C123.8,17.1,123.8,17,123.8,16.9z"/>
		<path class="st4" d="M158.6,7.9c0-1.4,0-2.8,0-4.3c0,0,0.1,0,0.1,0c0,1.4,0,2.9,0,4.3C158.7,7.9,158.7,7.9,158.6,7.9z"/>
		<path class="st4" d="M160.8,3.4c1.3,0,2.7,0,4,0c0,0,0,0.1,0,0.1c-1.3,0-2.7,0-4,0C160.8,3.5,160.8,3.4,160.8,3.4z"/>
		<path class="st4" d="M118.5,17.4c0.5,0,1.1,0,1.6,0c0,0,0,0.1,0,0.1c-0.5,0-1,0-1.6,0C118.5,17.5,118.5,17.5,118.5,17.4z"/>
		<path class="st3" d="M116.4,11.4c0.5,0.1,0.5,0.4,0.2,0.7C116.3,11.9,116.3,11.7,116.4,11.4z"/>
		<path class="st1" d="M257.8,12.1c1.5,0.5,2.6,1.6,4.1,2.1c-0.1,0.5-0.5,0.5-0.8,0.6c-1.6,0.7-3.3,0.8-4.9,1.3
			c-0.5,0.2-0.8-0.1-1.2-0.4c-0.5-0.3-1-0.4-1.5,0c-0.5,0.4-0.7,0.8-0.5,1.4c0.2,0.6,0.7,1,1.4,1c3.5,0,6.9-0.1,10.1-1.9
			c0.4-0.2,0.8-0.3,1.1,0c0.5,0.4,0.7,1,0.6,1.6c0,0.5-0.6,0.7-1,0.7c-1.2,0.1-2.3,0.4-3.4,0.7c-1.9,0.5-3.6,1.5-5.1,2.8
			c-0.4,0.3-0.7,0.8-1.1,0.1c-0.6-0.8-1.3-0.6-2.1-0.1c-0.2,0.2-0.5,0.3-0.7,0.5c-0.7,0.5-1.2,0.4-1.6-0.4c-0.7-1.3-1.5-2.6-2.1-4
			c-0.4-1-0.2-1.6,0.8-2.3c2.1-1.5,4.6-2.3,6.9-3.4C257.1,12.3,257.5,12.2,257.8,12.1z"/>
		<path class="st1" d="M277.4,20.7c-0.4,0.7-1,1-1.7,1.3c-0.4,0.1-1,0.1-1.2,0.7c-2.7,0.3-5-1.8-6-4.7c-0.1-0.4-0.2-0.8-0.3-1.3
			c-0.4-2-0.2-2.4,1.9-2.3c2.5,0.1,4.9,0.4,6.4,2.8C277.4,18.3,277.5,19.4,277.4,20.7z M273.4,18.2c-0.1-0.8-0.5-1.3-1.5-1.4
			c-0.6,0-1,0.2-0.9,0.9c0,0.8,0.7,1.7,1.5,1.7C273.1,19.4,273.3,18.9,273.4,18.2z"/>
		<path class="st3" d="M257.8,12.1c-0.4,0.1-0.7,0.2-1.1,0.3c-0.1-0.2-0.2-0.4-0.2-0.7c0.6-0.8,0.2-1.2-0.5-1.5
			c-0.7-0.3-1.4-0.5-1.6,0.6c-0.3,0-0.5,0-0.7-0.3c0.5-0.6,0.1-0.8-0.4-1c-0.6-0.4-0.8-0.8-0.2-1.4c0.2-0.2,0.2-0.5,0.4-0.7
			c0.2,0.2,0.5,0.3,0.7,0.5c0.4,0.3,0.8,0.5,1.3,0.1c0.5-0.4,0.8-0.8,0.6-1.4c-0.2-0.5-0.6-0.8-1.2-0.9c-0.7-0.1-1.1,0.4-1.4,0.9
			c-0.6,0-0.8-0.5-1.2-0.7c0-0.1,0-0.2,0-0.2c0.4-0.2,0.7-0.5,0.7-0.9c0.9-1,0.3-2.2,0.2-3.6c1.7,1.3,3.2,2.6,4.9,3.6
			c0.5,0.3,0.4,0.6,0,0.9c-1.5,1.4-1.6,3-0.8,4.7C257.6,10.9,257.8,11.4,257.8,12.1z"/>
		<path class="st1" d="M253.5,7.3c-0.1,0.2-0.2,0.5-0.4,0.7c-0.6,0.6-0.4,1,0.2,1.4c0.4,0.3,0.9,0.5,0.4,1c-2.1-0.8-4.3-1.6-6.4-2.5
			c-1.2-0.5-1.5-1.3-1.4-2.5c0.1-1.2,0.5-2.5,0.3-3.7c0.4-0.5,0.5,0.2,0.8,0.2c-0.1,1.6,0.3,2.9,1.6,3.8c1.2,0.8,2.4,0.7,3.6,0
			c0.4,0.2,0.6,0.7,1.2,0.7C253.4,6.7,253.4,7,253.5,7.3z"/>
		<path class="st1" d="M241.2,6c1.3-0.4,1.3-0.4,1.2,1c0,0.2-0.1,0.4,0,0.5c0.8,1.2-0.3,1.6-1,2.1c-0.1,0-0.1,0.1-0.2,0.1
			c-0.7,0.4-1.4,1.1-2.1,1.3c-0.9,0.2-1.2-0.9-1.9-1.3c-0.3-0.2-0.6-0.4-0.9-0.5c-1-0.4-1.2-1.3-1.1-2.2c0.1-0.8,0.4-1.1,1.2-0.5
			c0.2,0.2,0.5,0.2,0.7,0.3c0.7,0.5,1.5,1.1,2.4,0.6C240.1,6.9,240.6,6.4,241.2,6z"/>
		<path class="st1" d="M232,16c-1.2-1.3-2.4-2.6-3.9-3.6c-0.5-0.3-0.3-0.6,0.1-0.7c1.4-0.5,2.9-1.1,4.4-1.6c0.3-0.1,0.7-0.2,0.7,0.3
			c0,1.7,1.3,2.3,2.4,3.1c-0.2,0.9-0.8,0.7-1.4,0.5c-1.9-0.6-2.2-0.4-2.2,1.6C232,15.8,232,15.9,232,16z"/>
		<path class="st1" d="M242.9,14.7c0.2-1.4,1-2.5,1.6-3.8c0.2-0.6,0.9-0.6,1.5-0.4c1.1,0.3,2.1,0.8,3.1,1.1c0.7,0.2,0.6,0.6,0.2,0.9
			c-0.5,0.5-1,1-1.8,1C245.8,13.5,244.4,14.3,242.9,14.7z"/>
		<path class="st1" d="M242.8,17.6c0.1,1.1,0.9,1.4,1.8,1.1c1-0.3,1.5,0.1,1.9,0.9c0.5,1,1.1,2,1.7,3.1c-1.1,0.1-1.8-0.5-2.6-0.7
			c-0.4-0.1-0.7-0.3-1.1-0.4c-2.3-0.9-2.3-0.9-2.4-3.3C242.2,17.9,242.3,17.6,242.8,17.6z"/>
		<path class="st3" d="M235.9,18.1c-0.1-0.1-0.2-0.2-0.2-0.3c-0.2-0.5-0.3-1.1-0.2-1.7c0,0,0,0,0,0c0.7-0.1,1.3,0.2,1.9,0.6
			c0.6,0.4,0.7,1.7,2,1.3c0.3-0.1,1,0.5,0.4,1.2c-0.4,0.3-0.4,0.8-0.6,1.3c-0.1,0.3-0.1,0.8-0.5,0.8c-0.4,0-0.6-0.4-0.8-0.7
			C237.1,19.8,236.8,18.7,235.9,18.1z"/>
		<path class="st4" d="M241.2,6c-0.6,0.4-1.1,0.9-1.7,1.3c-0.9,0.5-1.7-0.1-2.4-0.6c0-0.6-0.5-0.7-0.9-1c-0.4-0.3-0.8-0.8-0.2-1.3
			c0.5-0.5,0.7,0,1,0.3c1,1.1,1.7,1.1,2.8,0.1c0.3-0.3,0.6-0.5,1-0.6c0.4-0.1,0.9-0.3,1.1,0.1c0.2,0.3-0.2,0.5-0.4,0.7
			C241.3,5.3,241.1,5.6,241.2,6z"/>
		<path class="st3" d="M232,16c0-0.1,0-0.2,0-0.4c0-2,0.3-2.2,2.2-1.6c0.6,0.2,1.2,0.3,1.4-0.5c1.4,0.4,1.5,0.5,0.5,1.5
			c-0.3,0.3-0.7,0.6-0.8,1.1c0,0,0,0,0,0C234.3,16.3,233.1,16.9,232,16z"/>
		<path class="st6" d="M242.8,17.6c-0.5,0-0.6,0.3-0.7,0.7c-0.8-0.6-0.5-1.3-0.2-2c0.3-0.6,0.6-1.1,0.9-1.6c1.5-0.4,2.9-1.3,4.6-1.1
			c-1.1,1.2-1.9,2.7-3.9,2.6C242.7,16.2,242.9,17.1,242.8,17.6z"/>
		<path class="st4" d="M252.9,4.6c-0.1,0.5-0.4,0.7-0.7,0.9c-0.6,0-1.3,0-1.9,0c-0.6,0-1-0.4-1-1c0-0.6,0.4-0.7,0.9-0.7
			c0.3,0,0.5,0,0.7-0.3c1-1,1.4-0.9,1.8,0.4C252.8,4.2,252.9,4.4,252.9,4.6z"/>
		<path class="st3" d="M260.4,10.5c0.3-0.2,0.2-0.5,0.1-0.8c-0.1-0.3-0.1-0.7,0.2-0.9c0.4-0.2,0.5,0.2,0.7,0.4
			c0.1,0.1,0.3,0.1,0.4,0.2c0.5,0.7,1.2,0.9,1.9,0.9c0,0.7-0.7,0.9-1,1.4C261.8,11.5,260.9,11.4,260.4,10.5z"/>
		<path class="st1" d="M254.3,10.8c0.2-1.1,0.9-0.9,1.6-0.6c0.7,0.3,1.1,0.7,0.5,1.5C255.7,11.5,255,11.2,254.3,10.8z"/>
		<path class="st6" d="M269.2,3.4c-0.8,0.4-1.6,0.1-2.4,0.2c-0.5,0.1-1.1-0.2-1.6,0.2c-0.3-0.6,0.2-0.4,0.4-0.4
			C266.8,3.3,268,3.4,269.2,3.4z"/>
		<path class="st1" d="M87,14.1c0.2,1.1,1,1.3,1.9,0.9c0.4-0.1,0.8-0.2,1.2-0.2c0.9,0,1.8,0,2.6,0c0.5,0,1,0.2,1.4-0.2
			c0.2,0,0.5,0,0.7,0c0.2,0.1,0.3,0.2,0.5,0.3c0.5,0.9,0.1,1.4-0.9,1.6c-1.2,0.2-2.4,0.5-3.6,0.8c-0.6,0.1-1,0.3-1.1,0.9
			c-8.9,0.5-17.7,0.2-26.6,0.2c-2.2,0-4.5-0.1-6.7-0.1c-1.3,0-1.6-0.4-1.4-1.7c0.3-2.1,1.1-4,1.7-6c0.6-2,2.9-2.7,5.3-1.6
			c-0.2,0.1-0.4,0.3-0.5,0.5c-0.4,0-0.6-0.2-1-0.3c-0.6-0.3-1.2-0.4-1.4,0.6c-0.4,0-1.1-0.1-1.1,0.2c0,1.1-0.8,1.9-1.1,3.2
			c1.5-0.8,1.9-2,2.1-3.4c0.8-0.1,1.3,0.2,1.2,1.1c-0.1,0.6,0.3,1,0.5,1.5c0,0.1,0,0.1,0,0.2c-1.2-0.4-1.6,0.2-1.6,1.2
			c-0.1,1,0.6,1.2,1.4,1.1c1.2,0.7,1.8,0.5,1.9-0.9c0.1-0.8,0.2-1.6,0.3-2.4c0.5-0.7,0.4-1.7,0.8-2.4c0.4-0.7,0.8-1,1.6-0.8
			c0.7,0.2,1.4,0.2,2.1,0c0.6-0.1,1,0.1,0.9,0.8c-1.8,1-2.2,2.6-2.4,4.5c-0.1,1.1,0.3,1.7,1.5,1.5c1.3,0.5,1.7,0.3,1.9-1
			c0.2-1.3,0.4-2.6,0.6-3.9c0.2-1,0.7-1.6,1.9-1.8c1.5-0.3,2.9-0.1,4.4-0.2c0.6,0,1,0.3,0.9,0.9c-1,0-1.9,0-2.2,1.2
			c-0.2,0-0.4,0-0.5,0.1c-0.2,0-0.4,0-0.7,0C73.6,9.9,73.3,10,73,9.9c-1.4-0.4-1.8-0.2-2,1.2c-0.1,0.8-0.1,1.7-0.1,2.6
			c0,0.8,0.4,1.2,1.2,1.2c1.7,0,3.5,0,5.2,0.3c0.5,0.3,1,0.3,1.5,0c1.8-0.3,3.6-0.3,5.3-0.2C85.3,15,86.2,14.9,87,14.1z"/>
		<path class="st1" d="M74.5,5.4c-2.3,0-4.5,0-6.8,0c-0.4,0-0.8,0.1-1-0.4c-0.2-0.5,0.2-0.7,0.5-1.1c0.8-0.9,1.7-1.3,2.9-1.4
			c0.9-0.1,1.7-0.3,2.4-1c1-1.1,2.4-1,3.7-0.8C78.1,1,80,1.2,82,1.2c0.6,0,1.2,0.2,1.7,0.5c0,1.5-0.5,2.3-1.6,2.1
			c-1.9-0.4-3.7-0.1-5.6-0.2C74.9,3.5,74.6,3.9,74.5,5.4z"/>
		<path class="st5" d="M87,14.1c-0.7,0.8-1.7,1-2.8,1c-1.8-0.1-3.6-0.1-5.3,0.2c0-1.8,0-3.7,0-5.5c0.7,0.5,1.5,0.6,2.3,0.5
			c0.5,0,1,0,1.5,0.3c-0.1,0.2-0.2,0.4-0.3,0.6c-0.3,0.5-0.2,0.9,0.3,1.3c0.4,0.3,0.8,0.4,1.2,0.1c0.4-0.3,0.6-0.8,0.5-1.3
			c-0.1-0.3-0.3-0.5-0.4-0.7c0.9-0.5,1.6-0.3,2,0.6c0.2,0.4,0.3,0.8,0.9,0.8C87.2,12.6,86.9,13.3,87,14.1z"/>
		<path class="st3" d="M89.9,18c0.1-0.6,0.5-0.8,1.1-0.9c1.2-0.2,2.4-0.5,3.6-0.8c0.9-0.2,1.3-0.6,0.9-1.6c0.5-0.1,1,0.1,1.4-0.3
			c0.3,0,0.7,0,1,0c1.4,0,2.7,0,4.1,0c0.1,0.2,0.3,0.3,0.3,0.5c0.9,2.2,0.4,3.1-2,3.1C96.8,18.1,93.4,18.1,89.9,18z"/>
		<path class="st3" d="M74.5,5.4c0.1-1.5,0.4-1.9,1.9-1.8c1.9,0.1,3.7-0.2,5.6,0.2c1.1,0.2,1.6-0.6,1.6-2.1c1.8,0.6,3.2,1.8,4.6,3
			c0.2,0.2,0.5,0.3,0.3,0.7c-0.1,0.2-0.4,0.1-0.7,0.1C83.4,5.5,79,5.5,74.5,5.4z"/>
		<path class="st5" d="M77.4,15.2C75.6,15,73.9,15,72.2,15c-0.8,0-1.2-0.4-1.2-1.2c0-0.9-0.1-1.7,0.1-2.6c0.2-1.5,0.5-1.6,2-1.2
			c0.3,0.1,0.7,0,0.8,0.4c-0.3,0.2-0.7,0.3-0.8,0.7c-0.2,0.4-0.2,0.9,0,1.2c0.2,0.3,0.5,0.4,0.8,0.3c0.4-0.1,0.6-0.5,0.7-0.9
			c0.2-0.5-0.1-0.9-0.1-1.4c0.2,0,0.4,0,0.5-0.1c0.8,0,1.6-0.1,2.4,0.2C77.4,12.1,77.4,13.6,77.4,15.2z"/>
		<path class="st5" d="M95,14.5c-0.2,0-0.5,0-0.7,0c0-0.8-0.1-1.5-0.6-2.4c-0.1,0.6-0.2,1.5-0.3,1.5c-1.1,0-0.4,0.8-0.6,1.2
			c-0.9,0-1.8,0-2.6,0c-0.2-1.5-0.5-2.9-0.7-4.4c-0.1-0.6-0.2-1.3,0.6-1.4c1-0.1,2-0.4,2.8,0.3C93,9.3,93,9.6,93,9.7
			c-0.5,1.3,0.4,1.3,1.2,1.2C94.7,12.1,94.9,13.3,95,14.5z"/>
		<path class="st6" d="M101.9,14.5c-1.4,0-2.7,0-4.1,0c0.2-0.6,0.5-1.4,0-1.9c-1.2-1.2-1.2-2.7-1.2-4.2c0.6,0,1.1-0.1,1.7,0
			c0.9,0,1.6,0.4,2,1.3C100.9,11.2,101.8,12.7,101.9,14.5z"/>
		<path class="st1" d="M82.7,10.5c-0.5-0.3-1-0.3-1.5-0.3c-0.8,0.1-1.6,0-2.3-0.5c-0.1-0.8,0.2-1.3,1.1-1.5c1.7-0.3,3.4-0.2,5.1-0.1
			c1,0,1.1,1.1,1.3,1.9c0.2,0.6,0.2,1.2,0.3,1.9c-0.5,0-0.7-0.4-0.9-0.8c-0.4-0.9-1.1-1.1-2-0.6C83.5,10.5,83.1,10.5,82.7,10.5z"/>
		<path class="st1" d="M87.3,20.9c-1.9,0.1-3.4,1.7-5.5,1.5c-1-0.1-1.9-0.2-2.9-0.5c0.1-0.5,0-1,0.4-1.4c2.2-0.4,4.5,0.1,6.7,0
			C86.5,20.4,87,20.4,87.3,20.9z"/>
		<path class="st3" d="M94.2,10.9c-0.9,0-1.7,0.1-1.2-1.2c0-0.1,0-0.4-0.1-0.5c-0.9-0.8-1.9-0.5-2.8-0.3c-0.8,0.1-0.7,0.9-0.6,1.4
			c0.2,1.5,0.5,2.9,0.7,4.4c-0.4,0.1-0.8,0.2-1.2,0.2c-0.1-1.7-0.3-3.4-0.6-5.1c-0.3-1.4-0.1-1.6,1.3-1.5c0.6,0,1.3,0,1.9,0
			C93.4,8.3,94.1,9,94.2,10.9z"/>
		<path class="st4" d="M61.1,12.4c0-0.1,0-0.1,0-0.2c0.5-0.9,0.6-1.9,0.7-2.9c0.1-0.2,0.2-0.4,0.5-0.5c0.8,0.7,0.2,1.9,0.8,2.7
			c-0.1,0.8-0.2,1.6-0.3,2.4c-0.1,1.4-0.7,1.6-1.9,0.9C61.3,14,61,13.2,61.1,12.4z"/>
		<path class="st3" d="M67.6,15c-1.2,0.2-1.5-0.4-1.5-1.5c0.1-1.8,0.6-3.5,2.4-4.5C68.2,11,67.9,13,67.6,15z"/>
		<path class="st5" d="M96.6,8.4c0,1.5,0,3,1.2,4.2c0.5,0.6,0.2,1.3,0,1.9c-0.3,0-0.7,0-1,0c-0.6-1.7-0.7-3.5-1.1-5.3
			C95.6,8.5,96,8.3,96.6,8.4z"/>
		<path class="st3" d="M59.3,1.5c0.6,0,1.1-0.1,1.5-0.5c0.4,0.4,0.7,0.9,1,1.4c0,0.6,0,1.1,0,1.7C60.6,3.6,59.6,2.9,59.3,1.5z"/>
		<path class="st5" d="M61.8,4.1c0-0.6,0-1.1,0-1.7c0.9,0.2,1.5,0.7,1.9,1.5c0.1,0.3,0.2,0.7-0.1,1c-0.3,0.3-0.7,0-1-0.1
			C62.3,4.6,62,4.4,61.8,4.1z"/>
		<path class="st3" d="M77.4,10.5c-0.8-0.3-1.6-0.2-2.4-0.2C75.3,9,76.2,9,77.2,9C77.5,9.5,77.4,10,77.4,10.5z"/>
		<path class="st4" d="M57.9,19c-1.7,0-3.5,0-5.2,0c0,0,0-0.1,0-0.1c1.7,0,3.5,0,5.2,0C57.9,18.9,57.9,18.9,57.9,19z"/>
		<path class="st4" d="M74.6,6c1.7,0,3.3,0,5,0c0,0,0,0.1,0,0.1c-1.6,0-3.3,0-4.9,0C74.6,6.1,74.6,6.1,74.6,6z"/>
		<path class="st4" d="M220.8,0.3c0,0.5-0.1,1,0.6,1.3c0.6,0.2,0.7,1,0.8,1.6c0,0.3,0.1,0.7-0.4,0.8c-0.5,0.1-0.8-0.1-0.9-0.5
			c-0.1-0.5-0.2-1.1-0.3-1.6c-0.1-0.7-0.5-0.7-1-0.4c-0.6-0.2-1-0.7-1.4-1.3C219,0.2,219.9,0.3,220.8,0.3z"/>
		<path class="st5" d="M1.5,14.3c0.4-0.4,0.3-0.7,0-1.1c-0.2-0.3-0.4-0.7-0.5-1.1c-0.1-0.6-0.4-1.2,0.3-1.5c0.7-0.4,0.8,0.4,1.1,0.7
			c0.5,0.5,0.9,0.5,1.2-0.1c0.5,0.4,1,0.8,1.6,1.2c0.1,0.1,0.3,0.3,0.2,0.5c-0.1,0.3-0.4,0.2-0.6,0.2c-0.4,0-0.9-0.6-1.1,0.1
			c-0.2,0.5,0.4,0.8,0.8,1.1c0.2,0.2,0.4,0.4,0.6,0.5c-0.4,0.5-1.1,0-1.6,0.4C4,15.6,4.4,16,4.9,16.3c0.6,0.4,1,0.8,0.9,1.6
			C3.9,17.3,2.2,16.4,1.5,14.3z"/>
		<path class="st6" d="M5.9,17.8c0.1-0.8-0.3-1.2-0.9-1.6C4.4,16,4,15.6,3.6,15.2c0.5-0.4,1.2,0.1,1.6-0.4c0.3,0,0.7,0,0.8,0.3
			c0.3,1,0.9,1.8,1.4,2.7c0.2,0.5-0.1,0.5-0.5,0.5C6.5,18.3,6.1,18.2,5.9,17.8z"/>
		<path class="st6" d="M7.6,14.5c0.2-0.1,0.5-0.1,0.7-0.2c0.7,0.9,0.6,1.9,0.1,3C7.9,16.3,7.8,15.4,7.6,14.5z"/>
		<path class="st3" d="M20.9,9.8c0.6-0.3,0.5-0.8,0.5-1.3c0.1-2-0.2-4,0.2-6C21.8,1.8,22,1.1,22.9,1c0.1,2.1-0.4,4.4,0.7,6.4
			c-0.9,0-1.4,0.6-1.4,1.5c0,0.8,0.5,1.3,1.4,1.4c0.1,0.4,0.2,0.8,0.2,1.2C21.6,11.5,21.3,11.3,20.9,9.8z"/>
		<path class="st2" d="M263.7,10.2c-0.8,0-1.5-0.2-1.9-0.9c0.1-2,1.3-2.4,3.3-1.1C265.3,9.3,264.4,9.6,263.7,10.2z"/>
		<path class="st2" d="M267.8,8.1c0.5-0.8,1.1-0.9,1.9-0.5c0.3,0.1,0.7,0.2,1,0.3c0,0,0,0.1,0,0.1c0,1.5-0.4,2.2-1.4,2.2
			C268.3,10.2,267.8,9.6,267.8,8.1z"/>
		<path class="st2" d="M275.1,10c-1,0.1-1.4-0.4-1.5-1.3c0-1.1,0.8-0.8,1.5-0.9c0.8,0,1.5,0.1,1.6,1C276.7,9.9,275.9,10.1,275.1,10z
			"/>
		<path class="st6" d="M47.2,15c0.2-1.2,1.1-2.2,1.5-3.3c0.8-2,1.2-4.1,1.2-6.2c0-1.7-0.2-3.5,0.2-5.2c0.5,0,1,0,1.4,0
			c0,2.4,0,4.8,0,7.1C51,10,50.2,12.6,48,14.5C47.8,14.7,47.6,15,47.2,15z"/>
		<path class="st5" d="M51.5,7.4c0-2.4,0-4.8,0-7.1c1.2,0.3,0.8,1.3,0.9,2c0.2,1.3,0.1,2.6,0.1,4C52.4,6.9,52.1,7.3,51.5,7.4z"/>
		<path class="st6" d="M46.9,15.2C46.7,14.9,47,15,47.2,15C47.1,15.1,47,15.2,46.9,15.2z"/>
		<path class="st4" d="M235.9,0.3c2.2,0,4.5,0,6.7,0C240.4,1.3,238.1,1.2,235.9,0.3z"/>
		<path class="st2" d="M23.6,10.2c-0.8-0.1-1.4-0.5-1.4-1.4c0-0.8,0.4-1.4,1.4-1.5C24.9,8.5,24.9,9.2,23.6,10.2z"/>
		<path class="st2" d="M153.3,8.1c1.9,0.4,2.2,0.8,1.8,2.2c-0.2,0.7-0.7,0.8-1.3,0.7c-0.2,0-0.5,0-0.6-0.3c-0.1-0.4,0.3-0.4,0.5-0.5
			c0.4-0.2,1.1-0.1,1-0.8c-0.1-0.6-0.8-0.6-1.3-0.6c-0.2,0-0.3,0-0.5,0C152.8,8.5,152.8,8.1,153.3,8.1z"/>
		<path class="st2" d="M155,6c0.4,1.2,0.4,1.2-1.4,1.2c-0.7-0.5-0.5-0.8,0.2-0.9C154.1,6.1,154.6,6.2,155,6z"/>
		<path class="st2" d="M155.9,0.3c0,0.5,0.2,1.2-0.8,0.6c-0.6-0.4-1.2,0.2-1.9,0.1C154,0.1,155,0.5,155.9,0.3z"/>
		<path class="st6" d="M272.9,3.4c1.7,0,3.5,0,5.2,0C276.4,3.7,274.6,3.7,272.9,3.4z"/>
		<path class="st4" d="M91.1,0.3C91.3,0.4,92,0,91.9,0.6c-0.1,0.7-0.6,1.3-1.3,1.4c-0.5,0.1-0.9-0.4-0.9-0.9
			C89.8,0.4,90.3,0.1,91.1,0.3z"/>
		<path class="st1" d="M163.9,11.2c0.7,0.1,1.3-0.4,1.9-0.5c0.4,0,0.8,0,1.2,0c0.4,0.5,0.9,0.8,1.4,1c-0.1,1,0.7,2.1,0,3.1
			c-0.3,0-0.6,0-1,0c0-0.8-0.3-1.1-1.1-1.2c-0.9-0.1-1.2,0.5-1.3,1.2c-0.8,0-1.3-0.4-1.4-1.1c-0.1-0.4,0-0.9-0.3-1.2
			C163.5,12,163.7,11.6,163.9,11.2z"/>
		<path class="st3" d="M167.4,14.7c0.3,0,0.6,0,1,0c-0.3,1.4-0.6,1.7-2.3,1.7c-2.3,0-3.5-1.8-2.7-4c0.2,0.4,0.2,0.8,0.3,1.2
			c0.2,0.7,0.6,1.2,1.4,1.1C165.8,15.8,166.6,15.4,167.4,14.7z"/>
		<path class="st2" d="M172.7,13.5c0.6,0.1,1.2-0.1,1.5,0.7c0.3,0.7-0.1,1.4-0.9,1.5c-0.4,0-0.7,0-1.1,0
			C172.1,14.9,171.6,14.1,172.7,13.5z"/>
		<path class="st5" d="M17.2,21.1c-0.2-0.7-0.5-1.4,0-2.1c0.7,0.1,1.1-0.1,1.5-0.7c0.1-0.3,0.6-0.6,0.6-0.1c0.1,1.6,1.2,1.3,2.2,1.3
			c0.1,0.8-0.1,1.4-0.7,2c-0.7,0.7-1.4,0.8-2.2,0.2C18.1,21.5,17.8,21.1,17.2,21.1z"/>
		<path class="st3" d="M21.5,19.5c-1,0-2.1,0.3-2.2-1.3c0-0.5-0.5-0.2-0.6,0.1c-0.3,0.6-0.8,0.8-1.5,0.7c0.7-1.6,2.2-2.4,3.9-2.1
			c0.3,0.1,0.6,0.1,0.9,0.2c0.1,0.2,0.2,0.5,0.2,0.7C21.4,18.2,21.5,18.9,21.5,19.5L21.5,19.5z"/>
		<path class="st5" d="M21.5,19.5c0-0.6-0.1-1.3,0.7-1.7C22.9,18.9,22.8,19.2,21.5,19.5z"/>
		<path class="st5" d="M114.6,22.8c0.5-0.8,1.3-1.1,2.3-1.2c1.4-0.1,2.8,0.3,4.2-0.2c0.4,0,0.8,0,1.2,0c0.3,0.4,0.8,0.2,1.2,0.2
			c2.1,0.2,4.1-0.5,6.2,0c0.3,0.1,0.7,0.1,1,0.3c-1.5,0.6-3,0.7-4.5,0.4c-1.2-0.2-2.3,0.2-3.4,0.1c-0.2,0-0.4,0.2-0.5,0.4
			C119.7,22.8,117.2,22.8,114.6,22.8z"/>
		<path class="st3" d="M187.1,6.9c0-0.3,0-0.6,0-0.9c1.3-0.7,1.4-0.6,1.6,0.6C188.2,6.8,187.7,6.9,187.1,6.9L187.1,6.9z"/>
		<path class="st3" d="M187.9,7.9c0.5,0,0.9,0,0.9,0.6c0,0.8-1,1.9-1.8,1.9c-0.7,0-1.1-0.4-1.2-1.1C185.8,8.5,186.8,7.9,187.9,7.9z"
			/>
		<path class="st3" d="M187.1,6.9C187.1,6.9,187.1,7,187.1,6.9C187.1,7,187.1,6.9,187.1,6.9C187.1,6.9,187.1,6.9,187.1,6.9z"/>
		<path class="st5" d="M167,10.7c-0.4,0-0.8,0-1.2,0c-0.4-1-0.2-2.1-0.2-3.2c0-0.5,0.2-0.6,0.7-0.6c0.4,0,0.7,0.1,0.8,0.5
			C167.2,8.5,167.4,9.6,167,10.7z"/>
		<path class="st2" d="M117.8,20.5c-0.9,0-1.8,0-2.7,0c-0.1-0.2-0.3-0.4-0.1-0.5C115.4,19.4,117.4,19.7,117.8,20.5z"/>
		<path class="st3" d="M123.5,21.6c-0.4,0-0.9,0.2-1.2-0.2C122.9,20.7,123.1,20.8,123.5,21.6z"/>
		<path class="st6" d="M147.5,8.3c-0.2,0.8-0.8,0.9-1.4,0.9c-0.3,0.1-0.6-0.2-0.5-0.5c0.2-0.6,0.8-0.7,1.3-0.9
			C147.2,7.8,147.5,7.9,147.5,8.3z"/>
		<path class="st6" d="M145.8,13.3C145.8,13.3,145.8,13.3,145.8,13.3C145.8,13.3,145.8,13.3,145.8,13.3
			C145.8,13.3,145.8,13.3,145.8,13.3z"/>
		<path class="st2" d="M273.4,18.2c0,0.7-0.2,1.2-0.9,1.2c-0.8,0-1.5-0.9-1.5-1.7c0-0.7,0.3-0.9,0.9-0.9
			C272.8,16.9,273.3,17.4,273.4,18.2z"/>
		<path class="st2" d="M253.5,7.3c0-0.3,0-0.6-0.1-0.9c0.4-0.5,0.8-1,1.4-0.9c0.5,0.1,1,0.4,1.2,0.9c0.2,0.6-0.1,1.1-0.6,1.4
			c-0.5,0.4-0.9,0.2-1.3-0.1C253.9,7.6,253.7,7.5,253.5,7.3z"/>
		<path class="st3" d="M61.1,12.4c0,0.8,0.2,1.6-0.2,2.4c-0.8,0-1.4-0.2-1.4-1.1C59.5,12.6,59.9,12,61.1,12.4z"/>
		<path class="st3" d="M61.8,9.3c0,1-0.2,2-0.7,2.9c-0.2-0.5-0.6-0.9-0.5-1.5c0.1-0.9-0.4-1.2-1.2-1.1l0,0c0.2-0.9,0.8-0.8,1.4-0.6
			C61.1,9.1,61.4,9.3,61.8,9.3z"/>
		<path class="st2" d="M74.5,10.3c0.1,0.5,0.3,0.9,0.1,1.4c-0.2,0.4-0.3,0.7-0.7,0.9c-0.3,0.1-0.7,0-0.8-0.3c-0.2-0.4-0.2-0.8,0-1.2
			c0.2-0.4,0.5-0.4,0.8-0.7C74,10.3,74.2,10.3,74.5,10.3z"/>
		<path class="st3" d="M59.4,9.5c-0.2,1.3-0.7,2.5-2.1,3.4c0.3-1.2,1-2.1,1.1-3.2C58.3,9.4,59,9.6,59.4,9.5
			C59.4,9.5,59.4,9.5,59.4,9.5z"/>
		<path class="st6" d="M92.8,14.7c0.2-0.4-0.5-1.2,0.6-1.2c0.1,0,0.1-0.8,0.3-1.5c0.5,0.9,0.6,1.6,0.6,2.4
			C93.8,14.9,93.3,14.7,92.8,14.7z"/>
		<path class="st2" d="M82.7,10.5c0.4,0,0.8,0,1.2,0c0.1,0.2,0.3,0.5,0.4,0.7c0.1,0.5-0.1,1-0.5,1.3c-0.4,0.3-0.8,0.2-1.2-0.1
			c-0.4-0.3-0.5-0.8-0.3-1.3C82.5,10.9,82.6,10.7,82.7,10.5z"/>
		<path class="st5" d="M167.4,14.7c-0.8,0.6-1.6,1-2.4,0c0.1-0.7,0.4-1.3,1.3-1.2C167.1,13.6,167.5,14,167.4,14.7z"/>
	</g>
</g>
</svg>
